<?xml version="1.0" standalone="no"?>
<!DOCTYPE svg PUBLIC "-//W3C//DTD SVG 1.1//EN" "http://www.w3.org/Graphics/SVG/1.1/DTD/svg11.dtd" >
<svg xmlns="http://www.w3.org/2000/svg" xmlns:xlink="http://www.w3.org/1999/xlink" version="1.1">
<metadata>
Created by FontForge 20201107 at Sun Feb  9 00:33:45 2003
 By 
(c) Jakob Fischer at www.pizzadude.dk - DO NOT DISTRIBUTE WITHOUT AUTHOR'S PERMISSION!
</metadata>
<defs>
<font id="FreaksofNature" horiz-adv-x="500" >
  <font-face 
    font-family="Freaks of Nature"
    font-weight="400"
    font-stretch="normal"
    units-per-em="1000"
    panose-1="0 0 4 0 0 0 0 0 0 0"
    ascent="800"
    descent="-200"
    x-height="803"
    cap-height="803"
    bbox="-2 -200 1108 804"
    underline-thickness="20"
    underline-position="-143"
    unicode-range="U+0020-007A"
  />
<missing-glyph 
d="M63 0v804h375v-804h-375zM125 63h250v679h-250v-679z" />
    <glyph glyph-name=".notdef" 
d="M63 0v804h375v-804h-375zM125 63h250v679h-250v-679z" />
    <glyph glyph-name=".null" horiz-adv-x="0" 
 />
    <glyph glyph-name="nonmarkingreturn" 
 />
    <glyph glyph-name="space" unicode=" " 
 />
    <glyph glyph-name="exclam" unicode="!" horiz-adv-x="363" 
d="M245 148q-9 -11 -17 -11q-7 0 -25 4.5t-27 4.5q-13 0 -132 -17q-4 0 -20 10q-2 2 -10 4v246q0 24 6 82q6 53 4 83l-11 212q18 11 105 25q76 12 93 12q3 0 29 -14q-7 -29 -7 -46q0 -6 4 -24q5 -21 6 -26q2 -12 1 -47q0 -12 -1 -46l-2 -26v-111l8 -310zM254 18
q0 -39 -5 -75q-3 -22 2 -127q-12 -13 -22 -13q-28 0 -84.5 3t-84.5 3q-22 0 -39 -5l-12 9v-3l-3 4q-6 8 -6 15v212q5 5 15 16q6 25 23 25q5 0 14 -3t14 -3q24 0 72 1.5t72 1.5q-8 0 39 10q13 -28 13 -31q0 -6 -4 -19.5t-4 -20.5zM207 454v239q-10 39 -11 59q-103 1 -145 -20
v-425q0 -7 13 -129q45 5 140 16q2 20 8 57zM45 24q-7 -57 -7 -125v-7q-1 -5 -1 -8q0 -13 4 -28q59 -11 84 -11h67q16 0 17 66q1 23 -1 54l-1 20q0 3 6 45q-11 2 -32 5l-15 2q-3 1 -8 1q-21 0 -57 -6q-40 -7 -56 -8z" />
    <glyph glyph-name="quotedbl" unicode="&#x22;" horiz-adv-x="518" 
d="M432 524v-91l-5 -5q-7 -7 -16 -7q-5 0 -11 3l-2 1q0 1 -2 2q-19 0 -57.5 -4t-57.5 -4q-26 0 -27 43q-2 69 -2 89q0 55 3 88l3 33q0 10 -17 58q-6 17 -6 38q9 16 26 16q9 0 23 -19q73 -10 76 -11q54 -8 66 -27q-2 -12 -2 -25q0 -18 7 -54.5t7 -54.5q0 -12 -3 -34.5
t-3 -34.5zM205 756q-2 -3 -2 -4v-310q-15 -9 -22 -8h-2l-48 8q-38 6 -69 10q-41 1 -41 31q5 11 -2 101q-4 55 -9 111q-1 17 -8 57q-2 11 -2 13q0 16 14.5 27t31.5 11q-24 0 32.5 -5.5t63.5 -5.5q52 0 63 -2q0 -13 8 -27zM281 725v-209q0 -52 24 -52q-34 0 85 3v3q8 35 8 125
q0 96 -14 109q-4 4 -42.5 13.5t-47.5 9.5q-2 0 -10 -1zM170 607q0 24 -4 71.5t-4 71.5q-53 7 -92 7q-6 0 -25 -12q-2 -6 -2 -19q0 -54 11 -140q9 -71 14 -89q3 -7 40 -12q34 -5 47 -5q6 0 10 1q0 4 2.5 13t2.5 13v100z" />
    <glyph glyph-name="numbersign" unicode="#" horiz-adv-x="912" 
d="M468 551v16q0 36 -22 155q12 15 32 15q3 0 8 -1t8 -1q7 0 12 1l26 5q12 2 59 9q16 9 20 9q28 0 36 -73q3 -28 10 -102q3 -23 16 -25l40 2l50 -2q4 0 13 2.5t14 2.5q4 0 16 -2h10q3 -14 7 -114q0 -9 6.5 -28.5t6.5 -28.5t-7 -17.5t-16 -8.5q1 0 -37 1l-38 1q-29 1 -38 -4
q-12 -8 -12 -31v-43q0 -2 1 -6v-1q8 -1 30 -1q11 0 33 3.5t33 3.5q31 0 31 -68v-9q0 -25 19 -90q-43 -19 -118 -25q-15 -8 -12 -50l2 -28q1 -14 1 -42q0 -4 3.5 -13t3.5 -14q0 -23 -25 -23q-5 0 -36 -1q-28 -1 -52 0q-37 1 -54 -10q-6 -4 -11 -4q-12 0 -28 19q-2 52 -3 67
q-3 44 -11 64h-44q-32 0 -32 -19q0 -11 20 -114q-16 -17 -25 -17q-2 0 -4 1h-3q-21 6 -39 6q-32 0 -72 -5q-15 -9 -19 -9h-22q-18 48 -23 124q0 7 -2 11q-31 10 -34 10q-13 0 -38.5 -5t-38.5 -5q-2 0 -6.5 1.5t-6.5 1.5q-20 0 -63 -11q-18 15 -18 27q1 24 -10 60
q-13 44 -15 62q11 12 27 13q43 4 106 24q2 9 3 23q12 64 12 56v4l-88 -14q-25 0 -30 24q-1 10 -8 48q-3 17 -1 55q2 33 -3 44q-3 7 -3 13q0 4 2.5 13.5t2.5 13.5l-1 3q-3 22 10 35q25 -2 50 -7l19 -4q3 -1 9 -2q45 0 54 5q14 8 14 47q0 21 -6 62.5t-6 62.5q16 16 29 16
q3 0 8 -1.5t8 -1.5q8 0 70 10l75 12q2 -17 2 -40v-92q0 -23 -1.5 -46.5l-1.5 -23.5h2q18 0 53 10t53 10q4 0 8 -1zM393 -41v2q1 5 1 7q0 10 -11 71q-1 4 -6 14.5t-5 16.5q0 14 22 22q16 6 34 6h61l10 7q9 6 15 6q12 0 25 -19q-2 -23 -2 -44q0 -53 13 -90h10q43 0 110 13
q1 15 2 42l1 27q1 33 -1 49q-9 15 -9 18q0 11 8.5 19.5t19.5 8.5q2 0 7 -1t7 -1q81 0 81 29q0 36 -15 80q-12 1 -37 4q-49 -12 -59 -12q-6 0 -17.5 8.5t-11.5 14.5q0 12 5 35.5t5 35.5q0 22 -5 30l-1 3q-5 7 -4 24q17 14 67 18q30 2 78 8v10q0 18 -8 96q-3 3 -12 6
q-17 0 -50 1l-28 1q-8 0 -24 -5t-24 -5q-30 0 -30 19q0 5 3 14l3 8v91q0 17 -4 37q-6 29 -17 29q-45 0 -108 -22q18 -140 18 -155q0 -7 -6.5 -19t-12.5 -12t-17 2.5t-17 2.5q-52 0 -103 -22q-11 -5 -15 -5q-11 0 -19.5 7.5t-8.5 18.5q0 4 6 18l6 128q0 10 -5 29
q-36 -2 -105 -12q-10 -1 -9 -15q6 -125 0 -165h-30q-61 0 -111 -4q6 -11 6 -18q-12 -48 -12 -74q0 -66 23 -66q8 0 23.5 2.5t23.5 2.5q2 0 19 7.5t23 7.5q9 0 16 -9t7 -18q0 -5 -7 -16q-4 -39 -13 -120q-20 -8 -62.5 -17.5t-62.5 -18.5q9 -45 9 -46q10 -28 31 -27l149 10
q24 2 29 -15q1 -41 4 -78q2 -22 11 -42h57q33 0 56 6zM389 192q-4 0 -14 -2.5t-15 -2.5q-19 0 -34 27q12 14 12 40q0 15 -5 45.5t-5 45.5q0 30 52 32q36 1 42 2q24 3 42 10.5t22 7.5q10 0 28 -18q-6 -19 -3 -77l4 -81v-35q-23 1 -45 2l-32 2q-36 2 -49 2zM473 250v67
q0 7 -3 30q-28 -6 -62 -6q-41 0 -41 -21q0 -71 5 -78q8 -16 70 -16h24q3 0 10 3q-3 26 -3 21z" />
    <glyph glyph-name="parenleft" unicode="(" horiz-adv-x="552" 
d="M312 527v-117q-15 -9 -71 -17q-25 -4 -23 -34l4 -52q5 -61 4 -76q0 -7 -2 -23t-2 -24q1 -4 8 -36v-3q11 1 35 4l20 2q11 0 31 -26q-7 -16 -7 -26q0 -15 15 -15q4 0 14 3.5t15 3.5q9 0 19 -13q3 -4 10 -11q-10 -16 -10 -28q0 -32 12 -58q35 4 55 4q7 0 16 -9l6 -5
q2 -2 13 -10q-10 -11 -10 -38q0 -40 19 -84q-20 -22 -52 -19q-22 2 -57 -6q-39 -9 -55 -9q1 0 -32 -1l-33 -1q-49 -1 -49 40q0 5 1 16v17q0 21 -6 34q-5 4 -43.5 7.5t-50.5 10.5q-4 6 -4 19q0 44 -4 56q-98 5 -98 30q0 7 11 20q0 -1 8 156q1 24 -2 59l14 199q4 20 9 96
q17 10 27 11q17 7 36 5q6 -1 36 -4q11 -1 11 31q0 18 -10 24q6 39 29 39q5 0 13.5 -2.5t13.5 -2.5q46 9 48 15q5 14 3 109q13 14 25 14q-14 0 14 -5.5t46 -7.5q36 -4 83 -4q8 0 19 -2l11 -2q4 -1 6 -1l10 2q10 2 25 -2l-3 -135q-79 -22 -104 -31q-2 0 -2 -8q0 -11 10 -61
q-14 -14 -74 -20q-1 1 -1 2zM141 -36l2 -1q16 -8 41 -8q4 0 14 3l9 1q4 1 7 1q19 0 33 -116q9 -2 21 -2q58 0 165 27q-1 22 -9 59q-3 15 -14 15q-8 0 -22.5 -2.5t-22.5 -2.5q-23 0 -27 43q-1 17 -5 63q-38 -7 -33 -7q-34 0 -30 34q2 17 2 19q0 19 -29 19q-3 -1 -14 -5
l-10 -3q-6 -2 -9 -2q-24 0 -26 28q3 73 3 128q0 34 -9 123q-6 13 -6 17q0 19 41 32q30 6 60 13q3 30 3 24q0 17 -8.5 46.5t-8.5 35.5q0 22 25 22q6 0 18 -2.5t18 -2.5q5 0 26 9q-2 12 -8 46q-2 11 -2 13q0 19 88 39l13 3q8 1 9 3v12q2 9 2 24q0 30 -17 36q-8 3 -46 3
q12 0 -49 -4l-1 -1q-6 -5 -13 -5q-18 0 -26 22h-7q-8 -44 -8 -61q0 -22 7 -39q-13 -26 -27 -26q-2 0 -6.5 1.5t-6.5 1.5q-3 -1 -9 -2l-19 -3q-8 -1 -33 -5v-16q1 -17 1 -33q0 -31 -12 -46q-44 6 -64 6q-32 0 -37 -12q-2 -6 -12 -104.5t-10 -115.5q0 -27 -2.5 -80t-2.5 -80
v-66q0 -6 -1 -17t-1 -17q31 -3 93 -14z" />
    <glyph glyph-name="parenright" unicode=")" horiz-adv-x="565" 
d="M182 521h-1q-5 3 -40 8q-23 4 -40 15q2 10 7 39q3 17 3 23q0 12 -48 25q-19 5 -58 14q0 23 -1 69t-1 69q24 -1 65 0q14 0 40 2h1q36 0 92 14q12 3 16 3q11 0 25 -14q-3 -78 -3 -85q1 -17 7 -23t24 -11t23 -5q4 0 13 2.5t13 2.5q23 0 24 -36l-4 -49q6 -9 74 -9
q17 -3 36 -11q0 -48 10 -148t10 -150v-63q0 -16 2.5 -49t2.5 -49q0 -22 3 -52q12 -12 12 -20q0 -10 -9 -19t-19 -9q-43 0 -71 -3q-3 -45 -3 -48q-6 -35 -22 -35h-44q-33 0 -38 -13q-3 -8 -1 -39q4 -55 -14 -61q-9 -3 -33 -3l-33 1l-33 1q-30 6 -80 17q-26 0 -84 12
q13 39 20 74q6 28 -9 55l12 8l5 5q9 9 17 9q15 0 54 -4q10 21 10 50q0 22 -7 37q20 23 29 23q4 0 14 -3.5t15 -3.5q14 0 14 16q0 11 -7 24l14 18q7 9 17 9q15 0 58 -5q4 13 2 44q-2 39 -2 46q2 19 6 73l4 50q0 5 -1 19q-7 11 -56 20q-16 2 -35 10v43q0 49 3 70zM153 748
q-30 3 -49 3q6 0 -61 -10q-2 -13 -2 -29q0 -35 10 -41q17 -3 51 -10q50 -10 50 -30q0 -4 -1 -12l-4 -17q-2 -7 -4 -30q23 -9 25 -9q6 0 18 2.5t18 2.5q26 0 26 -22q0 -8 -10 -26q-7 -12 -7 -56q0 -2 2 -24q30 -7 60 -13q42 -13 42 -32q0 -9 -4.5 -25t-4.5 -24
q-11 -58 -7 -145q2 -16 4 -51q2 -51 -27 -51q-3 0 -8 2l-10 3q-7 3 -14 5q-30 0 -30 -18q0 -6 2 -17q2 -10 0 -18q-4 -19 -29 -19q-6 1 -33 7q-2 -17 -7.5 -61.5t-25.5 -44.5q-7 0 -22 2.5t-22 2.5q-16 0 -24 -74q110 -27 165 -27q13 0 21 2l10 67q7 49 24 49q5 0 15 -2.5
t15 -2.5q26 0 32 3q11 5 12 28q0 13 2 51q15 4 46.5 6t45.5 5q-3 18 -3 34v68q0 -32 -3 53.5t-3 96.5q0 16 -7 117q-1 26 -4 79q-8 45 -47 45q-9 0 -27 -2.5t-27 -2.5t-16.5 8.5t-7.5 18.5q0 5 6 15q1 20 -3 52l-11 1q-89 8 -89 34q0 5 7 16q0 15 -7 82h-8q-4 -22 -26 -22
q-8 0 -13 6z" />
    <glyph glyph-name="asterisk" unicode="*" horiz-adv-x="655" 
d="M474 292q14 -18 67 -79q-37 -27 -44 -33q-26 -22 -32 -42h-23q-24 23 -76 60q-3 -17 -3 -29v-53l-5 -4q-6 -6 -15 -6q-2 0 -43 5q-46 6 -71 8q-4 15 -4 47.5t-4 48.5q-18 -21 -68 -66l-10 -9q-5 -6 -11 -7q-10 0 -40 45q-35 53 -41 58q-3 22 11 29q8 3 17 6q21 19 29 31
q-29 4 -51 4q-6 0 -17 -1t-17 -1q-8 0 -15.5 7.5t-7.5 15.5q0 6 4 20.5t2 23.5q3 3 1 71q20 13 29 9q5 0 15.5 1t15.5 1q3 0 43 -6l13 1q-3 5 -40 50v22q6 7 29.5 16t32.5 17q28 25 33 28q9 -10 26 -26q16 -8 47 -32q6 -7 19 -21q8 14 6 48q-2 38 0 51q12 12 21 12
q4 0 11.5 -1t11.5 -1q11 0 30.5 8t20.5 8q9 0 16.5 -8.5t7.5 -17.5q0 -5 -4.5 -15.5t-4.5 -12.5l7 -94l40 48q34 41 40 41l58 -23q13 -10 13 -24q0 -2 -31 -48q-20 -30 -28 -51q31 -1 72 2q5 -7 17 -22q-7 -22 -7 -41q0 5 12 -46q-21 -14 -52 -17q-47 -4 -53 -6zM532 336
q2 11 2 25q0 23 -17 28q-7 2 -39 2q-1 0 -7.5 -3.5t-10.5 -3.5q-25 0 -25 24q0 5 29 53q16 26 33 55q-5 3 -10 7h-14q-22 -26 -43 -52q-25 -30 -38 -55h-23q-12 11 -12 21q0 3 1 8t1 7q1 28 -6 128h-21q-8 0 -19 -4q-4 -7 -5 -25l-2 -27v-13q0 -70 -23 -70q-1 0 -42.5 44.5
t-64.5 44.5q-3 0 -47 -27q6 -12 31 -40q20 -22 26 -48q-7 -3 -8 -4l-3 -2q-6 -4 -12 -4q-5 0 -18 8q-61 7 -80 7t-25 -18q-2 -9 -2 -35v-22q51 -10 78 -10q1 0 8.5 3.5t12.5 3.5q24 0 24 -28q0 -13 -21 -23q-8 -4 -25.5 -24t-17.5 -26q0 -13 12.5 -34t23.5 -28q20 22 56 56
l25 24q9 9 17 12q18 0 24 -49q0 -10 3 -64q15 -8 39 -11q11 -2 16 -2q23 0 15 82q-1 10 7.5 18t18.5 8q6 -2 20 -13l72 -56q-3 0 37 33l6 5q-4 8 -38 44q-30 33 -30 39q0 28 41 28h59q3 0 7 1z" />
    <glyph glyph-name="plus" unicode="+" horiz-adv-x="524" 
d="M451 413l-3 -4q-15 -20 -15 -64q0 -26 5 -45q-38 -5 -110 -21q-15 -5 -15 -57q0 -11 3.5 -31.5t3.5 -31.5l-10 -9h2l-2 -1q-4 -2 -11 -2q-6 0 -22 6.5t-23 6.5q-22 0 -72 -13q-12 -3 -15 -3q-26 0 -26 56q0 11 1.5 33t1.5 33q0 9 -1 11q-29 9 -68 9q-8 0 -23.5 -2.5
t-23.5 -2.5h-13l-10 10q1 -1 1 -4q-6 9 -6 16v115q5 16 48 27q32 8 52 8q4 0 10 -2.5t8 -2.5q12 0 35.5 3.5t35.5 3.5q7 30 7 56q0 18 -6.5 56.5t-12.5 49.5q23 11 74.5 19.5t75.5 21.5q4 -4 19 -31q-7 -36 -7 -78q0 -67 15 -98q-6 -1 55 -1q15 8 17 8h22q9 -19 9 -30
q0 -7 -6 -15zM209 411q0 -9 -5 -7l-3 2q-20 10 -52 10q-56 0 -107 -17q-5 -18 -5 -27q0 -14 4 -43q11 0 64 -4q40 -3 67 -2q12 -15 12 -30q0 17 -5 -22t-5 -45q0 -26 8 -31q5 -3 35 -3q22 0 61 4l4 53q2 30 -4 52q14 23 26 23q7 0 21.5 -3t21.5 -3q25 0 46 11q4 29 17 86
q-24 6 -40 6q-8 0 -20 -8t-16 -8q-12 0 -28 15q0 10 3 37q3 23 2 36q-1 10 -5 44q-4 27 -4 44q0 13 2 25q-18 4 -24 4q-23 0 -52 -11v-115q0 -16 4 -54q1 -9 -6.5 -18t-16.5 -9v8z" />
    <glyph glyph-name="comma" unicode="," horiz-adv-x="278" 
d="M171 3q0 -164 -19 -203q-24 9 -35 9q-5 0 -16 -3.5t-16 -3.5q-10 0 -21 13q0 115 -12 140l-32 2q-20 4 -20 21q0 5 4 12.5t4 9.5q2 22 -1 59q-3 44 -3 58q0 11 9.5 21.5t20.5 10.5q3 0 16 -6l74 -5q4 0 12 1t12 1q9 0 22 -8.5t13 -17.5q0 -19 -6 -55.5t-6 -55.5zM141 66
q0 23 -1 36q-60 8 -83 8q-6 0 -13 -7.5t-7 -13.5v-91q8 -6 13 -8q4 0 10.5 1t10.5 1q18 0 22 -20q2 -12 0 -25l-2 -11q-1 -5 -1 -8q0 -14 3 -41.5t3 -41.5q7 -2 16 -2q16 0 20 6q1 3 2 23.5t4 63t3 63.5v67z" />
    <glyph glyph-name="hyphen" unicode="-" horiz-adv-x="488" 
d="M189 549q1 3 5 5q26 4 61 2q14 5 33 3q30 -4 32 -3q6 0 18 1.5t18 1.5q24 0 24 -24v-59q0 -17 12 -40v-23q-99 -20 -169 -20q-33 0 -98.5 -1t-98.5 -1q-26 0 -26 22q0 8 4 23t4 22q5 27 2 58h-1q-4 5 -4 12q0 13 37 21q27 6 47 6h82q4 -1 18 -6zM264 524q2 0 -63 -4
l-65 -4l-16 3q-32 3 -27 3l-51 -12q0 -5 -4 -75l98 -7q7 0 29 -1l28 -1q7 0 86 7q75 7 75 12q0 65 -9 72t-81 7z" />
    <glyph glyph-name="hyphen" unicode="&#x2010;" horiz-adv-x="488" 
d="M189 549q1 3 5 5q26 4 61 2q14 5 33 3q30 -4 32 -3q6 0 18 1.5t18 1.5q24 0 24 -24v-59q0 -17 12 -40v-23q-99 -20 -169 -20q-33 0 -98.5 -1t-98.5 -1q-26 0 -26 22q0 8 4 23t4 22q5 27 2 58h-1q-4 5 -4 12q0 13 37 21q27 6 47 6h82q4 -1 18 -6zM264 524q2 0 -63 -4
l-65 -4l-16 3q-32 3 -27 3l-51 -12q0 -5 -4 -75l98 -7q7 0 29 -1l28 -1q7 0 86 7q75 7 75 12q0 65 -9 72t-81 7z" />
    <glyph glyph-name="period" unicode="." horiz-adv-x="278" 
d="M64 -19q6 0 16.5 -1.5t16.5 -1.5q10 0 28.5 1.5t28.5 1.5q4 0 27 -16q-7 -22 -13 -80q-6 -52 -17 -80q-12 -1 -31 4q-2 1 -3 1q-6 0 -17 -1t-17 -1q-18 0 -44 6q-39 9 -39 23q0 3 6 16v59q0 9 1 26t1 26q5 5 21.5 13t23.5 8q6 0 11 -4zM138 -60q-29 6 -59 6q-32 0 -38 -8
t-6 -41q0 -30 2 -37q5 -17 29 -17q10 0 29.5 1t29.5 1q13 53 13 74v21z" />
    <glyph glyph-name="slash" unicode="/" horiz-adv-x="672" 
d="M614 572l2 -2q5 -7 5 -13q0 -15 -13 -29q-4 0 -12 2.5t-10 2.5q-53 0 -75 -14q-9 -6 -9 -36v-39q-1 -11 3 -103q-14 -18 -29 -14l-44 -9q-30 -6 -34 -21l20 -129q-47 -14 -87 -30q-26 -10 -26 -47q0 -90 21 -125q-15 -20 -27 -20q-6 0 -19 3.5t-19 3.5q-23 0 -26 -1
q-12 -4 -12 -20q0 -14 5 -41t5 -41q0 -26 -23 -26q-4 0 -10 2.5t-7 2.5q-25 0 -72.5 -13t-72.5 -13q-21 15 -30 87q-5 50 -9 100q-9 10 -9 16q0 25 26 25q3 0 7.5 -1.5t7.5 -1.5q21 0 46 9q30 11 33 27q-1 38 -1 60q0 23 1 30l-1 2q-9 18 -9 21q0 18 26 25q5 2 41 10
q29 10 29 24v96q0 7 -3.5 22t-3.5 22q0 16 14 27q13 1 85 23q0 18 4.5 55t4.5 55q0 4 -5 16t-5 17q0 4 6 16q7 4 107 37q5 35 5 64q0 11 -6 31t-6 29q0 20 20 25q10 1 35 4q104 13 110 17q19 10 23 10q13 0 21 -62q6 -48 5 -80zM577 751h-34q-29 0 -95 -21q-2 -4 -2 -7v-101
q4 -8 4 -17q0 -10 -4 -24q-20 1 -56 -5q-41 -7 -49 -18q0 -16 -2.5 -48t-2.5 -48q0 -33 7 -61q-12 -14 -23 -13q-32 -5 -42 -8q-23 -7 -38 -20v-97l2 -25q2 -25 2 -41q-8 -6 -18 -8l-6 -1q-15 -2 -40 -13q-17 -7 -26 -16v-100q0 -2 3 -15q2 -9 0 -17q-23 -15 -68 -26
q-32 -7 -44 -16q1 -12 11 -65q1 -5 5 -50q2 -21 17 -21q56 0 116 24q3 27 3 21q0 8 -9 38q-11 37 -12 42q7 3 9 5l4 3q7 5 14 5q3 0 11 -1l4 -1h3q3 0 57 10q-1 24 -3 53q-6 13 -6 17q0 13 5.5 52t8.5 47q98 23 93 54l-17 107q6 17 46 27q26 6 60 17q3 31 3 81q0 39 -2 91
q9 18 38 17q5 -1 6 0q33 7 69 11q-1 11 -1 21q0 13 7 61q-1 6 -1 21t1 39q-4 26 -8 40z" />
    <glyph glyph-name="zero" unicode="0" horiz-adv-x="776" 
d="M653 31q-91 -22 -91 -49q0 -33 24 -135q-24 -12 -30 -12q-5 0 -14 3t-13 3q-12 0 -39 -8.5t-40 -8.5q-7 0 -13 2q-15 -5 -47 -10l-115 -3q-8 0 -113 -10q-3 4 -17 14q12 77 8 146q-2 45 -8 46q-27 4 -53 4q-10 0 -31 -3t-31 -3q-11 0 -32 18q17 41 15 91q-2 72 -2 78
l9 158q3 44 23 156q3 19 11 60q4 19 35 19q11 0 31 -7l59 4q7 43 7 52q0 19 -23 101q-5 18 -5 27q3 2 25 17q13 9 32 9q5 0 14.5 -4.5t10.5 -4.5q3 0 50 6q55 7 74 8l163 8q11 -31 14 -77q2 -40 4 -79q5 -70 71 -70q-2 0 34 8l27 6q15 -30 15 -35q0 -32 -8 -119
q-7 -77 -5 -108l19 -282q-15 -9 -45 -16zM649 455q0 23 -8 83h-92q-34 0 -46 93l-8 120q-26 10 -56 10q-18 0 -75 -5q-71 -6 -114 -15l-35 -21q0 -6 -1.5 -19t-1.5 -19q0 -9 17 -126q-8 -6 -31.5 -13.5t-34.5 -7.5q-6 0 -17.5 1.5t-17.5 1.5q-35 0 -39 -10q-13 -34 -29 -122
l-9 -341q18 -7 58 -7q10 0 28.5 2t28.5 2t24 -19v-123q0 -32 2 -43q5 -29 24 -29q25 0 73 6t72 6q115 1 170 33q-1 43 -10 103q-10 20 -10 24q0 13 11 22.5t24 9.5q3 0 8 -1.5t8 -1.5q9 0 40 8.5t39 12.5q12 7 12 34zM456 103q-57 15 -101 17q-22 1 -76 2q-10 8 -15 22
q6 62 6 135q0 102 -12 225q37 13 91 18l92 8q12 -157 14 -248q0 -14 6 -124zM419 327q0 120 -23 153l-50 -2q-33 -1 -43 -17v-194q0 -40 10 -91q16 -12 51 -14l55 -3v168z" />
    <glyph glyph-name="one" unicode="1" horiz-adv-x="521" 
d="M397 -159q-23 6 -17 6q-14 0 -90.5 -12.5t-82.5 -16t-18 -3.5h-12q-14 -12 -24 -12q-40 0 -40 32q0 10 20 30q-1 6 -1 14q0 11 3.5 32t3.5 32q1 15 0 128q-1 86 3 144q1 14 3 40l1 26q3 68 -13 102q-57 0 -93 -3q-12 -1 -9 -1q-31 0 -31 32q0 10 10 18q2 13 2 15
q0 25 -6 74.5t-6 74.5q31 38 37 38q5 0 13 -4l8 -5q15 1 60 0q15 87 15 123q0 13 -1 25l9 11q0 -1 -2 -1l4 3q8 4 15 4t11 -4l2 -2q-11 0 -12 1q0 2 60 10q85 11 113 11q42 0 42 -259q0 -196 14 -326l22 -205q1 -6 7 -104q0 -2 5.5 -12t5.5 -16v-26q-11 -19 -31 -14z
M185 -132q5 1 13 -1.5t11 -2.5q46 0 177 26q-1 6 -6 133q-1 19 -3 31q-17 89 -30 270q-2 31 -11 126q-1 10 3 46q7 65 -17 248q0 5 -10.5 9.5t-16.5 4.5q-77 0 -103 -18q-33 -23 -33 -94q0 -6 6.5 -22t6.5 -23q0 -27 -30 -27q-11 0 -32 2.5t-32 2.5q-16 0 -27 -4l-4 -109
q-1 -28 11 -36q9 -6 39 -6q10 0 30.5 4.5t30.5 4.5q31 0 26 -88l-11 -214l2 -191q0 -10 5.5 -29t5.5 -29q0 -7 -1 -14z" />
    <glyph glyph-name="two" unicode="2" horiz-adv-x="798" 
d="M117 592v98q0 16 -13 50q48 40 101 37q18 -1 27 -1q44 0 130 13.5t129 13.5q6 0 13 -4q5 -3 11 0q9 4 14 4q13 0 25 -49q9 -37 12 -72h124q17 -29 25 -94l13 -101q0 -6 6.5 -22t6.5 -24q0 -23 -48.5 -39t-48.5 -23q0 -20 4 -47q6 -39 15 -44v-33q-18 -11 -28 -11
q-5 0 -15.5 1.5t-15.5 1.5q-66 0 -167 -10q-129 -13 -129 -30v-112q14 -1 39 0q26 1 38 1q8 2 34 11q58 19 96 19h40q37 5 128 10v-12l1 -23v-33q0 -5 1 -14.5t1 -13.5q1 -22 9 -67q20 -40 20 -56q0 -14 -7 -27q-6 0 -17 1t-17 1q-30 0 -84 -11q-57 -13 -83 -14
q-71 -4 -178 -17q-128 -16 -200 -22q-36 -3 -70 -21q-7 -4 -12 -4q-13 0 -29 18q-18 192 -18 292q0 21 10 96t15 81q8 10 76 21q62 10 62 36q0 38 -7 45l-2 2q-5 7 -5 18q0 33 54 33h7l1 1q38 10 132 14q23 1 46 1q35 4 35 19q0 13 -9 50.5t-15 48.5q-75 -2 -226 -29l-28 -5
q-6 -1 -13 -1q-22 0 -22 22q0 12 6 26zM44 -90q6 -30 13 -49q86 10 106 8l311 40q6 0 18.5 -1.5t18.5 -1.5q3 0 58 9l91 15q4 0 7 5l-21 154q-8 5 -11 5q2 0 -12 -2l-27 -4q-60 -9 -93 -7q-17 1 -24 0l-91 -22q-83 -20 -95 -20q-13 0 -21.5 11.5t-8.5 24.5q0 14 6 41t6 41
q-1 6 -7 32l-5 21q-2 8 -2 12q0 35 113 44q61 4 121 9q70 6 120 19v19q0 12 -18 72q-4 13 -4 17q0 17 48.5 32t48.5 32q0 9 -9 68q-10 65 -18 97q-64 5 -87 5q-1 0 -1 -1l-2 -1q-8 -7 -15 -7q-22 0 -41 29q9 15 9 42q0 56 -44 56q-37 0 -111 -11.5t-111 -11.5q-52 0 -82 -2
v-2q-2 -7 -10 -15q-8 3 -16 5q6 -39 5 -119h43q16 0 53 7t57 10q20 0 93 15q15 3 18 3h7q17 0 21 -14q1 -6 2 -29q0 -3 8 -77l7 -65q0 -29 -42 -29q-6 0 -20 1t-21 1q-70 -3 -86 -4q-50 -3 -85 -12q-3 -3 -10 -8l-1 -1q-1 -2 -1 -15q0 -15 3 -44l3 -3q5 -7 5 -14
q0 -11 -15 -32q-13 0 -37 -2q-29 -7 -86 -22q-6 -7 -16 -15q-17 -114 -17 -126q0 -39 8.5 -117.5t8.5 -67.5q0 -19 -13 -28z" />
    <glyph glyph-name="three" unicode="3" horiz-adv-x="770" 
d="M666 40q-65 -13 -65 -28q0 -30 15 -105q3 -15 3 -21q0 -9 -9 -17.5t-18 -8.5q-3 0 -9 1.5t-9 1.5q-5 0 -19.5 -6t-20.5 -6t-35 -3l-437 -45q-32 0 -32 35q0 18 3 82q2 51 0 82q25 15 61 21l62 10q120 19 138 23q46 10 46 22q0 36 -8 69q-12 49 -36 49q-19 0 -57 -4.5
t-57 -4.5q-12 0 -35 15q11 51 10 104q0 13 -3 39.5t-3 40.5t21 35q13 -8 21 -8q29 0 70 16q31 12 46 23q-6 18 -11 80q-3 32 -22 42q-13 7 -48 7q-32 0 -95 -6t-95 -6q-13 0 -22.5 9.5t-9.5 22.5q0 6 5.5 16t6.5 14q1 36 -19 135q12 11 48 16q16 3 45 8q21 4 29 4h185
q3 0 54 3q69 4 133 6q16 -26 19 -76q1 -22 5 -81q19 -1 79 9q12 2 18 2q26 0 26 -27q0 -6 -2 -17.5t-2 -17.5q0 -38 9 -113t9 -64q0 -15 -65 -38t-65 -40q0 -35 2 -43q6 -24 30 -24q12 0 36 -3t36 -3q4 0 13 3t14 3q9 0 18.5 -7t9.5 -16l7 -197q-12 -11 -24 -13zM282 618
q9 15 27 15q17 0 29 -18q-7 -87 9 -149q9 -35 9 -38q0 -32 -32 -32q-3 0 -9.5 1.5t-9.5 1.5q-10 0 -105 -27q-5 -9 -4 -12q0 -30 -2 -59l-3 -43q0 5 3 -22q10 -6 29 -5q47 3 30 3q13 0 40 3t40 3q18 0 45 -147q5 -29 13 -51q-68 -29 -228 -53q-14 -2 -44 -7q-36 -7 -43 -25
q-3 -8 -3 -58q0 -47 21 -47h72q57 0 254 37q29 0 86 3q21 7 62 18q0 4 1 12t1 12q0 8 -4 64q0 4 -7 15t-7 17q0 20 44 35.5t47.5 26.5t3.5 53q0 29 -7 76q-22 5 -125 5q-14 0 -27 14q-1 11 2 25l1 9q2 7 2 14q0 18 -14 65q-3 10 -3 17q0 14 66 39.5t66 34.5q0 5 -3 20
q-10 49 -9 142q-21 3 -80 -8q-11 -2 -17 -2q-29 0 -26 45q4 61 -8 109q-36 7 -62 6l-285 -8q-30 -1 -73 -16q3 -40 9 -110q20 -7 61 -7q12 0 34.5 1.5t34.5 1.5q8 0 23.5 3t23.5 3q21 0 51 -6z" />
    <glyph glyph-name="four" unicode="4" horiz-adv-x="862" 
d="M742 228q-68 -11 -68 -35q0 -20 8 -59l12 -59q16 -79 16 -209v-37q-18 -3 -64 -2l-121 -24q-29 9 -32 9q-5 0 -15.5 -3t-16.5 -3q-9 0 -17.5 8.5t-8.5 17.5q0 8 6 24t6 22q0 -2 -3 61l-3 63v80q0 10 -11 45t-17 46q-70 7 -60 7h-283q-1 -1 -4 -2l-9 -4q-13 -6 -19 -6
q-26 0 -26 29q0 5 2 11v79q0 15 -4 44t-4 44q0 3 -1.5 8.5t-1.5 7.5v83q0 7 5.5 21t5.5 20v213q-9 5 -15 18q8 22 26 33q21 -8 51 -8q2 0 17 1l59 4q10 1 47 4q12 8 18 8q-2 0 30 -13v-136q1 -10 1 -21v-131q0 -15 9 -27.5t23 -12.5l9 1h86q12 52 12 123q0 29 -12 85.5
t-12 85.5q0 16 8.5 31t23.5 15q10 0 34 -6l145 21q24 -27 27 -74q1 -14 4 -81q4 -22 8 -127q1 -26 1 -41q4 -32 13 -33q3 0 9 1h9q40 0 85.5 1t50.5 1l3 -84q3 -64 9 -78q9 -21 10 -24q0 -18 -15.5 -24.5t-45.5 -11.5zM128 222l1 1q14 8 51 2l18 -3h74q13 0 40 1t40 1
q4 0 12.5 -3t12.5 -3q9 0 26.5 4.5t26.5 4.5q14 0 31 -30q-7 -17 -6 -22q1 -7 11 -30t10 -29v-108q0 -12 4 -58l8 -93q8 0 25 -5t24 -5q14 0 65 12q48 11 65 17q2 11 2 30q0 21 -9 106q-3 25 -19 105q-14 69 -14 103q0 35 74 42l10 1q8 2 42 16v64q0 11 -18 63q-24 0 -66 -3
l-42 -3q-36 -3 -54 21q2 34 2 52q0 17 -2 19q0 17 -3 130q-2 82 -16 126q-7 2 -22 2q-17 0 -112 -14q-10 -28 -10 -33q0 -17 7.5 -51t7.5 -51v-184q-17 -17 -30 -17q-14 0 -41 4.5t-41 4.5q-13 0 -37 -7.5t-37 -7.5q-32 0 -32 33q0 15 8 31q-2 6 -2 10v80q0 -14 -7 177
q0 4 -8.5 8.5t-13.5 4.5q-64 0 -76 -1q-60 -5 -60 -27v-153q0 -33 -2.5 -68t-2.5 -37l6 -4v-222q17 -2 31 -2q8 0 24 -1t24 -1z" />
    <glyph glyph-name="five" unicode="5" horiz-adv-x="691" 
d="M611 58q-38 -9 -121 -28q-5 3 -6 -4v-28q0 -19 6 -56.5t6 -56.5q0 -13 -84 -32q-80 -19 -109 -18q-37 1 -106.5 -15.5t-104.5 -16.5q-5 0 -16 3t-16 3l-1 -1h-2q-7 -5 -13 -5q-9 0 -19 11t-10 20q0 10 5 49q2 21 8 75q2 13 4 27q0 7 -5.5 21.5t-5.5 22.5q0 16 11 30
t27 14q4 0 10.5 -3t8.5 -3q8 0 24.5 6t24.5 6q6 0 20 -4.5t19 -4.5q7 0 46 5l76 9q-3 58 -10 117q-9 76 -40 76q-27 0 -55 -1l-56 -2q-66 -2 -91 10q-36 18 -36 85q0 55 10 182q10 118 8 183q-1 26 26 44q29 -3 79 -1q53 2 76 2q30 0 89.5 10.5t89.5 10.5q-2 0 13 -2l22 -3
q29 -4 33 -4q5 0 17 5l10 4q8 3 10 3h21q2 -12 10 -32v-146q0 -26 -91 -36q-40 -4 -156 -17q-29 -3 -43 -9q-5 -2 -5 -41q0 -29 6 -35.5t35 -6.5q-9 0 12 1.5t54 2.5q44 2 92 2q0 -13 -1 -15q6 0 21 6t22 6q14 0 27 -32q-7 -16 -7 -55q0 -64 23 -64q10 0 30.5 -1.5
t30.5 -1.5q6 0 16.5 3t16.5 3q7 0 27 -10q0 -26 4 -115zM589 243l-3 17q-1 8 -5 32q-19 3 -36 3q-24 0 -70 -6q-23 0 -30.5 70.5t-12.5 70.5q-11 0 -25 -13.5t-22 -13.5q-15 0 -15 24q0 6 3 12q-63 3 -120 3q-8 0 -25 -4.5t-25 -4.5q-36 0 -36 28q0 8 6.5 20.5t7.5 18.5
q2 13 -3.5 43.5t-3.5 43.5q15 17 24 17q6 0 11 -3h2q2 0 9.5 3t11.5 3q12 0 36.5 3t36.5 3q45 0 158 25q3 0 7 12.5t4 17.5q0 -16 -1.5 27.5t-1.5 49.5q-64 11 -115 11q-16 0 -47 -7.5t-47 -7.5q20 0 -107 -3q-21 0 -81 -8q-5 -3 -16 -7l-21 -307q-1 -15 -1 -30
q0 -46 23 -61q19 -14 67 -11q29 2 129 5q3 0 10 2t10 2q17 0 26 -18q2 -40 11 -102l15 -101q14 -17 14 -36q0 -28 -27 -28q-7 0 -19.5 1.5t-19.5 1.5q-9 0 -27 -3t-27 -3q-4 0 -12.5 -1.5t-12.5 -1.5q-9 0 -25.5 1.5t-25.5 1.5q-46 0 -60 -9q-20 -13 -20 -57q0 -90 -3 -110
q30 -12 55 -12q28 0 65 11q56 17 63 18q17 2 103 10q68 6 98 24q1 7 -3 112q-2 69 27 69q6 0 17 -4.5t13 -4.5q25 0 72 22q18 119 18 130q0 4 -1 9z" />
    <glyph glyph-name="six" unicode="6" horiz-adv-x="878" 
d="M729 -64q0 -14 6 -42.5t6 -42.5q-15 -11 -47 -15q-26 -2 -51 -4q-20 -3 -77 -9l-337 -20q-8 -1 -28 22q5 23 5 27q-5 34 -18 84q-10 18 -57 18q-22 0 -69 -16q-20 18 -20 61q0 11 1 30q1 17 0 26q-15 147 -20 273q0 4 -1 124q-1 83 -13 116q-9 24 -9 26q0 12 9.5 24
t20.5 12q1 0 66 -6l65 -6q16 0 25 2q-11 74 -11 116q0 21 29 35q12 -1 31 1q23 2 31 2h78l164 26q17 0 36 4q12 -13 12 -33q0 -8 -2.5 -23t-2.5 -23q0 -11 7 -56t10 -52q9 -20 9 -23q0 -14 -16 -30q-19 3 -42 3q-35 0 -104 -14q-76 -16 -97 -31q-4 -40 -4 -61q0 -31 1 -36
q2 -11 14 -11q20 2 126 14q7 0 19.5 -3t19.5 -3q48 0 149 12q10 -23 10 -94q0 -30 11 -36q31 -4 77 -12q8 2 32 2l47 -314v-39q-15 2 -30 2q-30 0 -61 -7zM281 459h-1q0 21 -15 69q-2 6 -2 11q0 9 11 17t20 8q3 0 7.5 -1.5t5.5 -1.5q2 1 10 3l27 8q10 3 61 16q43 5 126 22
q-17 96 -14 146l-205 -24q-5 0 -14.5 1.5t-14.5 1.5q-37 0 -52 -10q-19 -13 -19 -48q0 -7 3 -20t3.5 -17.5t7 -16.5t6.5 -18q0 -30 -37 -27q-11 1 -13 1h-49q-14 0 -70 9l-10 -33v-221q0 20 4 -29.5t4 -55.5q0 -60 9 -129l17 -131q53 7 50 7q4 0 12 -3t12 -3t11 -1.5
t10 -1.5q4 0 12 3t12 3q20 0 25 -19q2 -40 14 -120q6 -3 18 -3h123q24 0 71.5 4t71.5 4t164 23q3 8 3 13q0 31 -8 42l-3 4q-6 8 -6 15q0 17 46 27q32 7 56 7q-3 0 -3 7q0 93 -39 250q-31 8 -86 8q-15 0 -30 16q-3 48 -4 58q-3 33 -13 56q-122 -8 -233 -10q-12 0 -37 -4.5
t-38 -4.5q-12 0 -22 8.5t-10 20.5q0 9 6.5 29.5t6.5 30.5q1 3 2 4zM533 22q-11 -10 -89 -10q-11 0 -42 2l-31 2q-3 0 -14.5 -4.5t-17.5 -4.5q-13 0 -24.5 10.5t-10.5 22.5q8 87 5 125t-4 64q-14 19 -14 21q0 8 9 18.5t17 10.5q106 1 187 22q18 -20 18 -29q0 -34 4 -41l2 -1
q5 -6 5 -12v-196zM495 193q0 26 -13 54q-14 5 -18 5q-25 0 -122 -24v-146q0 -23 39 -28q8 -1 55 -1h11q10 1 18 1h30v139z" />
    <glyph glyph-name="seven" unicode="7" horiz-adv-x="657" 
d="M462 297l4 -58q2 -30 13 -55q-53 -20 -113 -28q-6 -1 -17 -3q-16 -5 -16 -68q0 -38 14.5 -112.5t14.5 -112.5q0 -28 -65 -34q-57 0 -88 -1q-18 -1 -86 -19q-11 -3 -16 -3q-7 0 -28 11q13 73 14 150q0 23 -1 65q-1 46 -1 66v77q0 39 -6 87q15 22 48 24q44 2 53 7q3 2 8 80
q-4 10 -4 20q0 22 22 22q5 0 11 -1q79 10 79 16q0 45 -15 117q-91 11 -118 11q-12 -3 -84 -3q-9 0 -27.5 -3t-27.5 -3q-4 0 -30 13v24q0 16 5.5 48.5t5.5 48.5q0 59 -3 67q-5 13 -5 22q0 14 13 28q27 -11 36 -24l1 -1q3 -1 8 -1q22 6 67 14l160 13l205 -4q2 0 13.5 4.5
t16.5 4.5q24 0 31 -68q2 -24 8 -86q15 -116 20 -253q0 -7 5.5 -20.5t5.5 -20.5q0 -10 -58 -32q-37 -13 -73 -26zM545 462q-6 185 -27 287q-3 13 -18 12q-14 -1 -16 -1l-158 3q-84 2 -154 -11l-127 -23v-134q11 -3 16 -3l207 -3q6 0 19 4t19 4q8 0 25 -9q0 -10 -2.5 -30
t-2.5 -30q0 -44 21 -96q3 -10 3 -14q0 -31 -27 -31q-3 0 -9.5 1.5t-9.5 1.5q-71 0 -73 -60v-48q0 -31 -24 -31q-3 0 -8 1.5t-8 1.5q-46 0 -59 -19q-10 -15 -10 -63v-317h29q41 0 167 20q4 6 4 23q0 16 -23 233q-1 4 -6 12t-5 14q0 17 54 33l75 22q17 5 17 7q0 48 -18 79
q-5 9 -5 12q0 11 7 22l8 -5q-6 9 0 10l4 1q118 18 118 43q0 -11 -3 81z" />
    <glyph glyph-name="eight" unicode="8" horiz-adv-x="895" 
d="M571 532l-1 -1q-6 -95 -6 -145q-15 2 -32 2q-22 0 -142 -20q-30 -5 -49 -5q-9 0 -18.5 9.5t-9.5 18.5q0 6 12 20v142q0 8 18 17q91 12 209 12q10 0 19 -10.5t9 -20.5t-9 -19zM807 393h-17q-33 -14 -96 -42q-3 -13 -3 -39q0 -48 5 -59q10 -22 53 -22q5 0 14 1.5t14 1.5
q4 0 33 -14q-11 -51 -11 -89q0 -49 18 -105q-45 -12 -128 -45q-3 -2 -35 -11q-25 -7 -31 -23q-3 -8 -4 -40q-1 -37 5 -70q-40 0 -118.5 -8t-118.5 -8h-101q-13 0 -40.5 -9t-41.5 -9q-12 0 -23 10.5t-9 22.5q7 19 7 50q0 48 -16 86q-36 1 -83 4t-82 20q14 41 17 103
q1 29 4 106q26 3 93 13q75 11 75 29v69q0 42 -13 49q-2 2 -47 4q-26 1 -55 11l-32 4q-19 5 -19 23q0 6 2 13l5 17q17 58 8 158q38 9 109 25l35 4q22 3 32 11q5 3 5 23t-10.5 60t-10.5 60t32 26l17 -91q13 -69 13 -92q0 -6 -13 -29q-13 -3 -81 -10q-54 -5 -80 -17
q-12 -41 -16 -136q26 -12 82 -20t81 -19l-6 -47q-4 -31 -4 -26q0 -16 6 -48.5t6 -48.5q0 -15 -46 -25q-54 -12 -98 -19q-24 -4 -31 -17v-43q0 -14 -5.5 -40.5t-5.5 -40.5v-10q29 -12 47 -12h21q27 0 56 1.5t31 1.5q14 -121 14 -159q5 -1 18 -1q7 0 21 3t21 3q6 0 18.5 -1.5
t18.5 -1.5q-1 0 76 6l77 6q4 0 13 -1.5t13 -1.5q56 0 70 6q20 9 20 43q0 22 -8 72q105 31 189 64q2 1 2 9l-2 127l-66 10q-2 0 -6.5 -1.5t-7.5 -1.5q-2 0 -30 14q1 10 4 23l3 13q0 16 -13 142q5 2 78 22q39 11 48 27q7 12 7 57q0 34 -1 45q-3 33 -21 33q-4 0 -12.5 -1.5
t-12.5 -1.5q-12 0 -32 7t-29 8l-32 -4q1 5 -10 147q1 8 -1 22q-42 13 -124 13q-24 0 -82 -4q-52 -4 -81 -3q-23 1 -53.5 -8t-36.5 -9q-19 0 -28 37l9 12h-3l4 3q9 7 17 7q5 0 15 -3t15 -3q41 0 123.5 4.5t123.5 4.5q97 0 128 -8q16 -4 16 -30q0 -4 -1 -13.5t-1 -14.5
q1 -45 12 -111q24 -14 58 -14q8 0 25 4.5t25 4.5q19 0 28 -99q3 -61 7 -122q-12 -4 -18 -4zM357 228q21 0 63 1.5t63 1.5q31 0 41 7l3 2q5 3 12 3q10 0 18 -9.5t8 -19.5q0 -5 -8 -17q-4 -18 -7 -69l-5 -86q10 0 -32 2l-21 1q-52 2 -129 -35q-14 -7 -20 -7q-9 0 -19.5 10
t-10.5 19t9 57q5 27 -5 125l9 11q0 -1 -1 0h2l2 2q7 7 15 7t13 -6zM439 547q-9 0 -35 -8.5t-35 -9.5q-6 -9 -6 -10q0 -19 -1 -57l-2 -33q0 -13 5 -16t20 -3q14 0 137 23q6 17 7 49q2 43 3 50q-46 15 -93 15zM803 412q-3 29 -9 139q-1 12 0 35q0 13 -4 13q-8 0 -25 -4.5
t-25 -4.5q-51 0 -76 22q-13 73 -13 122q0 3 1 12v16q0 10 -1 11q-28 7 -123 7q-41 0 -123.5 -4.5t-123.5 -4.5q-5 0 -15 3t-15 3q-2 0 -5 -3l-2 -1q4 -15 8 -15q17 0 52 9t54 8q69 -2 92 2q28 5 55 5q89 0 137 -17q5 -6 8 -36q5 -59 10 -127l10 1q11 0 32 -7.5t31 -7.5
q4 0 12.5 1.5t12.5 1.5q30 0 39 -37q3 -13 3 -60q0 -51 -11 -69q-13 -21 -59 -34q-14 -4 -62 -17q11 -106 11 -128q0 -2 -1 -7l-4 -18l4 -3q3 -2 5 -2t6.5 1.5t7.5 1.5t33 -5l52 -8q0 4 1 -34q1 -46 2 -109q0 -23 -15 -29q-78 -31 -174 -59q6 -36 6 -58q0 -47 -34 -61
q-19 -8 -76 -8q-4 0 -13 1.5t-13 1.5q-1 0 -77 -6l-76 -6q-6 0 -19 1.5t-18 1.5q-7 0 -21 -3t-21 -3q-24 0 -38 11q1 40 -12 149q-11 0 -40 -1l-29 -1h-12q-7 -1 -9 -1q-22 0 -67 18v25q0 15 5 41q5 30 6 40q0 1 -2 27q-3 41 41 49q12 2 43 8q2 1 60 12q5 1 24 3q10 1 10 4
q0 16 -6 48.5t-6 48.5q0 6 8 60q-22 6 -81 16q-51 8 -81 24l4 81q2 37 16 81q37 18 137 27q11 1 27 3q6 9 6 12q0 30 -11 85l-17 85l12 -8q-7 -1 -7 -5q0 -20 10.5 -60t10.5 -60q0 -39 -28 -48q-30 -5 -60 -9q-30 -8 -91 -22q5 -92 -10 -146l-5 -18q-1 -4 -1 -8t36 -8
q21 -8 64 -9q35 -1 47 -11q18 -15 18 -63v-69q0 -44 -168 -59l-3 -92q-2 -51 -13 -89q28 -12 76 -14q40 -1 79 -2q21 -49 21 -107q0 -32 -7 -53q0 -8 13 -8q14 0 41 9t41 9h101q-12 0 214 15q-3 24 -3 43q0 76 43 88q13 3 38 11q21 12 56 22q55 16 58 18q-14 46 -14 92
q0 36 9 79l-5 3l-6 3q-5 0 -14 -1.5t-14 -1.5q-54 0 -69 28q-8 15 -8 72q0 33 5 53q105 49 126 47zM424 199q-59 0 -67 -16q-4 -8 -4 -26q0 -16 1.5 -48t1.5 -48q52 11 150 28q3 15 13 102q-34 8 -95 8z" />
    <glyph glyph-name="nine" unicode="9" horiz-adv-x="850" 
d="M718 434l34 -205q18 -109 18 -206q0 -23 -20 -23q-4 0 -10 2q-15 -4 -50 -21l10 -65q6 -39 6 -49q0 -28 -23 -28q-4 0 -10 1l-12 2q-18 3 -22 3l-305 -42q-4 -2 -8 -2q-8 0 -17.5 10t-9.5 18q0 6 7 22.5t8 22.5q6 39 6 79q-7 6 -7 15v14l10 10q-1 -1 -4 -1q10 7 16 7
q3 0 9 -1.5t9 -1.5q36 0 70 5q53 8 53 22q0 10 -6 52q-7 49 -14 49q-2 0 -7 -1l-12 -2q-12 -2 -24 -2q-5 0 -13.5 1t-13.5 1q-54 0 -161.5 -12.5t-91.5 -12.5q-13 0 -26 15q-2 23 -9 83.5t-38 60.5q-3 0 -8 -1.5t-8 -1.5q-27 0 -27 27q0 5 4.5 15t4.5 13.5t1 11t1 11.5
l-28 234q0 36 90 36h5q2 18 2 121q52 14 208 38q137 21 214 45h24q14 -68 19 -131h3q11 0 34 4t34 4q17 0 50 -5q11 -26 29 -120q16 -86 16 -105q0 -10 -10 -16zM347 -146l5 -4q1 -1 4 -3q7 0 140 18q141 19 169 21l2 16q0 17 -11 50.5t-11 50.5q0 16 30 26q22 5 45 11
q5 40 5 68q0 36 -10 61q3 60 -16 153q-27 132 -29 151q2 5 4 6l2 3q8 12 8 21q0 29 -8 71q-10 53 -25 62q-8 5 -25 5q-27 0 -63 -15q-9 -4 -13 -4q-12 0 -29 22q3 26 3 47q0 42 -13 64q-81 -12 -357 -59q-7 -1 -16 -15q-2 -2 0 -69q1 -57 -23 -57q-5 0 -15 3.5t-15 3.5h-42
q-4 -16 -4 -22l27 -245q14 -1 48 -3q7 -19 11 -48l7 -50q7 -51 38 -51q34 0 84 6q75 9 84 9h41q32 -1 55 -1q5 1 16 8.5t17 7.5q5 0 25 -68q23 -75 30 -129q-107 -9 -159 -24q-5 -34 -16 -98zM243 536q-8 7 -8 16q0 3 10 26h228l17 -275q2 -27 -23 -33q-18 9 -16 9h-177
q-13 8 -15 19v23q0 26 -2 67q-3 52 -3 66q-1 41 -11 82zM437 538q-10 6 -53 6q-2 0 -95 -8q0 -9 -2 -26t-2 -26q0 -30 14 -154q43 -12 57 -12q65 0 92 5q1 14 2 35l1 23q3 59 -14 157z" />
    <glyph glyph-name="colon" unicode=":" horiz-adv-x="263" 
d="M171 391v-67q-6 -16 -22 -16q-4 0 -11.5 2.5t-11.5 2.5q-13 0 -39.5 3.5t-39.5 3.5l-6 -2q-6 -3 -10 -3q-26 0 -26 28q0 10 2.5 28.5t2.5 26.5q3 53 -3 106q2 2 18 12l14 14q40 0 88 3q21 9 23 9q28 0 28 -69q0 -14 -3.5 -41t-3.5 -41zM64 214q5 0 16 -1t16 -1q9 0 28 1
t28 1q4 0 28 -16q-7 -28 -14 -85t-17 -85q-11 -1 -31 5q-2 1 -3 1q-6 0 -16.5 -1.5t-16.5 -1.5q-16 0 -43 7q-39 10 -39 25q0 3 6 16v63q0 9 1 27t1 27q5 7 20.5 15t23.5 8q7 0 12 -5zM45 485q0 6 -1 7q0 6 -4 -10v-118q20 -13 65 -12l32 1l9 119q-1 9 -7 26q-24 -1 -71 -4
q-10 -10 -20 -10q-1 0 -3 1zM136 171q-29 6 -58 6q-32 0 -37.5 -8.5t-5.5 -43.5q0 -31 2 -38q5 -19 28 -19q10 0 29 1.5t29 1.5q13 56 13 78v22z" />
    <glyph glyph-name="semicolon" unicode=";" horiz-adv-x="276" 
d="M182 469v-81l2 -5q1 -9 -3 -22q-22 0 -64 8t-64 8q-2 0 -6.5 -1t-6.5 -1q-8 0 -15.5 8.5t-7.5 16.5q0 -2 7 19v139q17 18 44 18q14 0 32.5 -5t59.5 -10q19 0 34 -18q-12 -61 -12 -74zM174 171q0 -176 -19 -211q-24 9 -36 9q-5 0 -16 -3.5t-16 -3.5q-10 0 -22 13
q0 123 -12 146l-33 2q-20 3 -20 22q0 4 4 11.5t4 10.5q2 44 0 77q-1 23 -4 46q0 10 10.5 21.5t20.5 11.5q3 0 16 -6l76 -6q4 0 12.5 1t11.5 1q10 0 22.5 -9t12.5 -18q0 -19 -6 -57.5t-6 -57.5zM74 541q-21 0 -21 -93q0 -24 2 -32q68 -17 78 -17h14l10 121q1 8 -38 15
q-32 6 -45 6zM145 236q0 24 -2 38q-62 8 -85 8q-6 0 -13 -7.5t-7 -13.5v-95q8 -7 13 -9q4 0 11 1t11 1q18 0 22 -21q2 -10 -1 -26l-1 -11q-1 -5 -1 -8q0 -15 3 -43.5t3 -43.5q7 -2 17 -2q15 0 19 7q1 2 3 23q1 7 2 27q6 78 6 105v70z" />
    <glyph glyph-name="equal" unicode="=" horiz-adv-x="490" 
d="M198 541q2 2 6 5q17 3 38 3q12 0 26 -1q9 4 21 4q7 0 23 -2.5t25 -1.5q6 0 18.5 2t18.5 2q25 0 25 -27v-65q0 -20 12 -46v-25q-103 -22 -176 -22q-35 0 -104.5 -1t-104.5 -1q-26 0 -26 24q0 10 4 26.5t5 24.5t1 64v1q-5 5 -5 13q0 14 38 23q26 6 50 6h86zM390 198v-35
q-46 0 -86 -3l-53 -4q-8 -1 -112 2q-75 1 -113 1q-26 0 -26 26q0 6 2 17.5t2 17.5q-1 39 -1 84q13 13 40 27l343 5q11 -23 11 -26q0 28 -3.5 -38.5t-3.5 -73.5zM278 514q1 0 -67 -5l-68 -5l-17 4q-34 4 -29 4q-6 0 -26 -6q-23 -7 -28 -8q0 -6 -4 -85l104 -7q7 0 30 -1l30 -2
q31 1 90 7q80 8 80 15q0 73 -9.5 81t-85.5 8zM307 298q-135 0 -265 -12l-3 -3v-79q14 -4 47 -4h50q11 0 31.5 -4t31.5 -4q118 0 155 14q6 74 5 88q-39 4 -52 4z" />
    <glyph glyph-name="question" unicode="?" horiz-adv-x="776" 
d="M288 569v-7q-11 -6 -21 -5q-1 -1 5.5 -33t6.5 -37v-23l-10 -9q1 1 4 1q-9 -7 -15 -7q-3 0 -10.5 2.5t-9 2.5t-13.5 1q-15 1 -32 2l-44 2q-9 0 -29.5 -6t-30.5 -6q-5 0 -15 3.5t-14 3.5q-3 0 -7.5 -1t-7.5 -1q-25 0 -30 26q5 17 4 67q0 16 -9.5 46.5t-9.5 37.5q0 9 8 18
t17 9q6 0 18 -1t18 -1h73q27 0 26 29q0 9 -4 32q-4 20 -3 31q8 17 31 21l41 2q40 9 154 17q64 5 130 17q14 -28 28 -100q5 -11 36 -11q12 0 36 2.5t36 2.5q8 0 18.5 -10.5t11.5 -18.5q18 -119 50 -305q-17 -8 -73 -17q-38 0 -38 -5q0 -10 7 -32.5t7 -33.5q0 -24 -24 -24
q-6 0 -17 1t-17 1q7 0 -21 -7q-109 -5 -109 -36q0 -55 16 -106q3 -10 3 -20q0 -5 -9 -22q-5 0 -128 -16q-68 -9 -117 -20q-11 11 -27 30q-2 4 -2 21q0 7 4 20t5 18q10 67 7 100q-2 16 -6 62q12 13 25 18q42 10 137 35q2 1 2 13q0 10 -5 27.5t-5 25.5q0 3 3 12q31 16 99 22
q4 -1 6 -1q11 0 11 15q0 17 -6 64q-7 51 -12 59q-7 12 -46 12q-14 0 -30 -1l-31 -2q-4 0 -11.5 -2t-11.5 -2q4 0 -23 -3zM462 -105q9 -13 9 -18q0 -29 -25 -29q-2 0 -6 1t-6 1q-3 0 -13 -2l-31 -6q-66 -13 -155 -35l-7 -3q-6 -2 -7 1v-3q-11 0 -26 18q3 12 3 33q0 33 -7 89
q-8 18 -8 32q0 9 9.5 19.5t18.5 10.5q5 0 15 -2.5t14 -2.5q32 0 96 12t96 12q7 0 25 -9q-1 -63 5 -119zM437 259l3 1q13 3 45 12q20 2 89 11q14 2 14 12q0 13 -11 34t-11 27q0 22 25 22q3 0 9.5 -1t9.5 -1q70 0 70 23q0 12 -36 245q-7 14 -22 14q-14 0 -42 -3.5t-42 -3.5
q-4 0 -25 4q-9 34 -26 102q-7 0 -19 -1.5t-17 -1.5l-66 -3l-174 -24q-2 0 -11 -2l-5 -1q1 -34 -8 -101q-14 -7 -30 -7q-29 0 -32 -1h-41q-29 0 -40 -6q8 -72 11 -110q14 -10 25 -13q1 0 11.5 7t15.5 7q18 0 53 -4.5t53 -4.5q5 1 27 5q-1 19 -1 31q0 13 1 19q-9 35 -9 47
q9 5 51 13.5t55 8.5q106 0 138 -10q3 -38 18 -163q9 -27 9 -23q0 -29 -26 -29q-8 0 -24 2t-24 2q-15 0 -42 -10q-3 -18 -3 -31q0 -11 2 -16l2 -5q3 -10 3 -17q0 -24 -27 -23q-139 -7 -139 -48v-66q0 -4 -3 -28q-4 -33 0 -43q2 -9 2 -16q0 -8 -3 -14q2 -1 3 -1q13 5 15 5
q4 0 11.5 -2.5t11.5 -2.5q29 0 117 16l11 2q5 1 8.5 1t11 4.5t7.5 9.5q0 20 -5 54q-6 39 -7 54l-2 2q-5 5 -5 13q0 33 27 33q9 0 13 -6zM419 -23q-26 0 -36 1l-21 2q-26 0 -64 -9q-53 -13 -62 -14q-5 -41 -5 -61q0 -18 6 -48q5 1 21 5l51 11q89 19 115 23q2 2 2 16
q0 3 -7 74z" />
    <glyph glyph-name="A" unicode="A" horiz-adv-x="744" 
d="M13 175v104l-13 168q-1 14 3.5 39t4.5 36q0 6 -2.5 19t-1.5 21q37 15 145 29q14 39 14 81q0 25 -5 45q9 17 30 27q7 3 40 13l89 40q13 6 18 6h30q32 -80 33 -182q12 -9 17 -9h91q6 0 17 -3t16 -3q2 0 11 4.5t14 4.5q37 0 53 -131q3 -21 11 -163l13 -143q8 -85 8 -144v-76
q0 -5 9 -26.5t9 -29.5q0 -9 -9 -18t-18 -9q-6 0 -17 4.5t-15 4.5q-19 0 -72 -5q-58 -5 -66 -9q-19 -9 -24 -9q-10 0 -31 21q0 43 -12.5 123.5t-13.5 119.5q-17 16 -37 16q-46 0 -46 -26q0 -44 17 -230q0 -25 -7 -41q-6 0 -16.5 1t-16.5 1q-38 0 -187 -27q-6 -1 -23 -8.5
t-23 -7.5q-16 0 -26.5 13.5t-10.5 29.5v78q0 38 -2.5 114t-2.5 114q0 17 5 23zM604 86v87q0 2 -5.5 14t-5.5 17q-12 148 -12 182v91q0 62 -29 80q-19 12 -80 12l-42 -3l-42 -3q-19 -1 -27 9t-5 30q1 7 1 43t-2 41q-3 22 -15 64q-47 -12 -62 -17q-41 -13 -56 -26
q-25 -22 -25 -102q1 -4 3 -19q2 -18 -2 -34q-39 -3 -92 -9q-21 -2 -32 -6q-24 -8 -30 -39q-2 -10 -2 -53q0 -16 3 -42q4 -32 5 -42q1 -19 -5 -115l-6 -92q0 21 7.5 -28.5t7.5 -57.5v-86q0 -119 16 -119h16q45 0 96 10q31 6 94 19q5 6 5 29q0 11 -4 31.5t-4 31.5
q0 102 -10 133q-5 16 -12 42q18 16 24 16q19 0 51 5l26 4q10 0 29.5 -2.5t29.5 -2.5q14 -8 23 -21q-3 -26 -3 -56q0 -101 32 -189q60 5 108 5q7 1 40 9l1 1q-1 22 -4 90zM398 309q-4 0 -13 1.5t-13 1.5q-79 0 -112 -21q-4 -2 -7 -2q-18 0 -40 78q-18 64 -18 85q0 6 1.5 16.5
t1.5 16.5q32 4 95 17q32 9 47 9q7 0 20 -1.5t20 -1.5l50 -182q-17 -17 -32 -17zM330 465q-87 0 -87 -36q0 -15 6 -45t12 -41q117 -1 117 21q0 30 -11 61q-14 40 -37 40z" />
    <glyph glyph-name="B" unicode="B" horiz-adv-x="701" 
d="M624 206v-95q0 -50 -2 -61q-7 -36 -37 -42q-22 -4 -65 -12q-49 -11 -49 -35q0 -17 7 -48.5t7 -46.5v-19l-9 -9h2l-3 -2q-7 -5 -13 -5q-8 0 -22.5 1.5t-22.5 1.5q-15 0 -45 -4t-45 -4h-92q-11 0 -33 -3t-33 -3q-71 0 -91 -4q-5 -1 -26 -8q-16 -5 -27 -5q-8 0 -16.5 12.5
t-8.5 21.5q0 4 10 41q-4 13 -4 16q0 89 -2 109l-1 10q0 14 6 59q4 29 -4 46q6 12 6 91v88q0 13 6 39t6 39l-3 275q-9 25 -9 32q0 6 5 18.5t5 19.5q0 4 -2 11.5t-2 11.5q0 28 29 28q5 0 11 -2l5 -3q4 0 13 2l30 7q41 10 65 12q160 16 208 16q-9 0 53 -5q11 -25 16.5 -79
t14.5 -78q32 4 69 10l56 9q13 0 35 -22q-12 -50 -12 -75v-138q0 6 9 -49q-24 -9 -51 -13l-52 -7q-42 -6 -42 -43q0 -62 12 -62q19 0 58 3t58 3q7 0 29 -23q-7 -21 -7 -28zM436 254q-1 47 -2 58q-3 34 -12 56q18 16 33 19q27 5 96 18q17 3 19 8q4 13 1 43q-6 73 -1 100
q6 31 6 43q0 4 -3 13h-28q-15 0 -50.5 -11.5t-51.5 -11.5q-26 0 -27 35l-2 84q-8 53 -50 52q-21 -1 -50 -2q-22 -1 -28 -1l-192 -25q-11 0 -23 -11q-17 -13 -21 -15v-777q0 -37 3 -69h116q18 0 52.5 4t52.5 4q5 0 15.5 -1.5t15.5 -1.5q13 0 39.5 6t39.5 6q5 0 15 -1.5
t15 -1.5q12 0 23 7q-6 37 -17 122q49 23 88 31q59 12 62 15q15 11 15 68v78q0 4 -5.5 10.5t-8.5 6.5q-18 0 -54.5 -3t-54.5 -3q-11 0 -22 10t-11 21q0 7 5 14zM339 373h-22q-9 0 -26.5 -5t-26.5 -5q-26 0 -58 -14q-7 -3 -14 -3q-19 0 -26 16q-11 25 -13 28v98
q0 15 -4.5 44.5t-4.5 44.5q0 28 14 41q80 -21 85 -21q15 0 93 6q8 -65 32 -225q-19 -5 -29 -5zM343 17q-10 0 -30.5 1.5t-30.5 1.5q-14 0 -45 6q-34 7 -38 13q0 72 -14 142q-4 20 -4 28q0 36 48 36q75 0 136 -20q-5 -50 -1 -112q6 -91 6 -72q0 -9 -8.5 -16.5t-18.5 -7.5z
M186 560v-51q0 -42 18 -111q115 5 115 36q0 123 -45 123h-76q-5 0 -12 3zM313 194q-25 12 -36 12q-54 0 -54 -22q0 -25 14 -110q19 -11 65 -11q12 0 20 1l3 20q0 40 -12 110z" />
    <glyph glyph-name="C" unicode="C" horiz-adv-x="749" 
d="M645 -52q-3 0 -7.5 1.5t-6.5 1.5t-66 -22q3 -76 16 -115q-70 -10 -160 -10q-47 0 -142 3.5t-142 3.5q-32 0 -32 25q0 8 4 17l1 5l1 76q0 22 -31 28q-26 1 -80 12v29q23 63 25 131l4 134q11 67 23 158q1 50 8 145q-1 18 -4 57q14 16 27 16q4 0 11 -1.5t11 -1.5q24 0 79 10
q7 14 24 116q4 25 18 25q3 0 9.5 -1.5t9.5 -1.5q18 0 54 7t54 7q20 0 41 -1l41 -2h26q11 -112 31 -112q-9 0 135 6q8 -8 19 -25q0 -30 5 -89.5t5 -89.5v-84q0 -2 4 -12.5t4 -15.5q0 -11 -18 -28q-6 0 -9 1l-3 1q-3 1 -6 1t-9 -1.5t-9 -1.5q-2 0 -11 2q-40 7 -47 7
q-14 0 -42 -4.5t-42 -4.5q-6 0 -17.5 -2.5t-17.5 -2.5q-11 0 -20.5 7.5t-9.5 17.5q0 4 1 7q5 9 5 54q0 59 -17 59q-13 0 -43.5 -8.5t-43.5 -14.5q-1 -31 -5 -87l-4 -55v-129q0 -9 -5 -62l-6 -63q1 -7 4 -45q5 0 18 1q17 1 26 1l31 1q7 0 27 2q17 1 27 1t10 44q0 75 -15 115
q17 17 30 17q4 0 11 -1.5t11 -1.5l170 -3q7 0 26 -19q-3 -31 -3 -62q0 -78 18 -154q-18 -19 -31 -19zM615 415q2 26 2 51q0 61 -4 107q-6 24 -16 68q-21 11 -27 11q-39 0 -66 -1q-4 0 -16.5 -8t-18.5 -8q-30 0 -30 28q0 7 2 23q3 12 1 15q-6 19 -23 54q-60 9 -73 9
q-12 0 -98 -18q-6 -9 -11 -83q-4 -61 -29 -61q-4 0 -12 2.5t-12 2.5q-11 0 -77 -9q-9 -12 -9 -17q-18 -176 -34 -379q-1 -27 -3.5 -96t-13.5 -88v-5q42 -17 51 -17q12 0 36 7q16 -27 16 -60q0 -9 -1.5 -25.5t-1.5 -25.5q0 -17 4 -32q16 -7 21 -7h143q11 0 32 -4t32 -4
q10 0 29 4t29 4h91v48q0 9 -5.5 27t-5.5 27q0 24 27 24q5 0 13.5 -1.5t13.5 -1.5q8 0 54 19l-6 115q-1 25 -5 46q-47 13 -58 13q-27 0 -90 -6q-9 -30 -9 -77q0 -27 14 -75q-5 -24 -27 -24q-9 0 -25.5 3t-25.5 3q-63 0 -111 -16q-12 -4 -15 -4q-10 0 -17.5 9.5t-6.5 20.5
l25 472q0 4 -2.5 15t-2.5 16q22 12 28 12q2 0 7 -1.5t8 -1.5q17 0 52.5 14t50.5 14q26 0 29 -52q2 -35 9 -96h62q20 0 54 11t42 11q4 0 10 -2z" />
    <glyph glyph-name="D" unicode="D" horiz-adv-x="759" 
d="M492 -152q9 -7 9 -17q0 -11 -9.5 -19.5t-20.5 -8.5q-8 0 -22.5 4t-22.5 4l-26 -1l-26 -1q-4 0 -13 2.5t-13 2.5q-9 0 -25.5 -2.5t-25.5 -2.5q-32 0 -96.5 2.5t-96.5 2.5q-8 0 -24 -1.5t-24 -1.5q-4 0 -13 -2.5t-14 -2.5q-10 0 -19.5 7.5t-9.5 16.5q0 10 3 30.5t3 30.5
v244l8 64l6 397q0 13 2.5 40t2.5 41q0 39 -12 112q26 14 47 14l342 -3q29 4 50 -13t21 -46v-100q0 -10 4 -30t4 -30l1 -42q125 22 157 22q11 0 22.5 -10t11.5 -21q0 -6 -4 -19.5t-4 -20.5q-4 -115 -4 -174q0 -17 1.5 -52t1.5 -52v-89q0 -13 5 -38l-2 -50q-1 -27 11 -60
q-72 -24 -91 -24q-53 0 -95 -16v-87zM625 515q-3 1 -6 1q-64 0 -94 -6q-55 -22 -65 -22t-18 10.5t-8 21.5q0 9 5.5 26.5t5.5 26.5q-1 14 -11 160q-3 10 -11 21q-46 10 -103 9q-22 0 -34 -1l-17 -1q-5 0 -15.5 -3t-15.5 -3q-9 0 -26 4t-26 4q-3 0 -24 -4q-41 -7 -79 -2
q-6 1 -24 -6q0 -25 -3 -302q-2 -178 -14 -357l6 -235q15 -6 24 -6q7 0 20 1.5t20 1.5q10 0 30.5 -3t30.5 -3q12 0 36 4.5t36 4.5q9 0 27.5 -3t27.5 -3t28 3t28 3q4 0 24 -3l13 -2q3 -1 7 -1q33 0 53 8v66q-6 23 -6 35q0 27 24 27q3 0 9.5 -1.5t9.5 -1.5q108 0 136 27l-1 217
q0 143 2 285zM367 36q-1 0 -5 1l-34 8q-34 8 -42 8t-25 -1.5t-25 -1.5q-30 0 -38 15q-2 192 -3 232q-3 120 -12 196q11 16 33 20q6 1 40 3q72 17 89 17q5 0 28 -17q0 -13 7 -99l5 -65v-74l9 -181q1 -14 -7 -36q-8 -25 -20 -25zM232 470q-1 -13 -1 -31v-124q0 -111 8 -219
q7 -6 63 -6q9 0 23 1t22 0q5 13 5 16l-3 147q-1 51 -10 181l-2 34q-3 22 -18 22q-12 0 -39.5 -11.5t-40.5 -11.5q-3 0 -7 2z" />
    <glyph glyph-name="E" unicode="E" horiz-adv-x="663" 
d="M550 -161q-53 0 -115 -4q0 -6 -36 -12q-32 -5 -49 -5q-4 0 -12 3t-11 3q22 0 -27.5 -4.5t-54.5 -4.5q-24 0 -73 3t-73 3q-8 0 -31.5 -9t-34.5 -9q-10 0 -21.5 9.5t-11.5 19.5q0 7 7 16l3 3q-2 19 -3 49q0 7 2.5 20t2.5 19v76q0 108 2 117q1 5 -2 10v408q5 20 8 143
q3 110 25 110q13 0 17 -11l2 -2q0 -2 8 -2q30 0 90 4.5t90 4.5q91 0 119 -1l56 -2q4 0 30 6q8 3 15 -8q2 -4 11 -19q-1 -12 -1 -26q0 -19 4 -56t4 -56q0 -22 -17 -118q-54 -1 -182 -19v-53q0 -24 18 -24q6 0 18 3t18 3h84q1 0 14.5 7.5t18.5 7.5q23 0 24 -65q1 -60 7 -160
q-70 -14 -73 -14q-105 0 -129 -15v-69q0 -9 5 -21l248 6q31 1 31 -33v-4q-1 -3 -1 -4v-77q0 -18 6 -66q7 -56 12 -64q-24 -17 -42 -17zM529 46q-5 18 -33 18q-19 0 -189 -7q-2 0 -10 -5.5t-14 -5.5q-17 0 -38 19q11 72 5 93q-10 36 -10 59q0 26 27 26q8 0 24 -3t24 -3
q19 0 63 5q54 6 68 15l3 63v67q-6 -1 -76 0q-12 0 -35 -4.5t-35 -4.5q-4 0 -13.5 -3t-13.5 -3q-11 0 -21 9.5t-10 20.5q0 5 4 13t4 10q-1 31 -1 79q-10 20 -10 22q0 13 10.5 22t23.5 9l25 -5q20 -4 23 -4q73 0 98 17q31 21 31 90q0 57 -10 74q-13 22 -73 27q-13 1 -85 1
q-4 0 -62 -5q-35 -3 -62 1l-106 -14v-332q0 -150 -7 -315l-2 -47q-1 -17 5 -94l7 -94q87 7 166 7q10 0 27 -3l11 -2q3 -1 6 -1l99 3q14 0 41.5 10.5t42.5 10.5q5 0 14.5 -1.5t14.5 -1.5q27 0 57 12q-1 30 -1 51t1 32q-1 24 -8 72z" />
    <glyph glyph-name="F" unicode="F" horiz-adv-x="586" 
d="M309 518q-9 -19 -8 -67q10 -4 44.5 -11.5t42.5 -7.5q9 0 20 6q16 -26 16 -97v-106l12 -24q-23 -17 -77 -20q-42 -2 -58 -14q10 -104 24 -287q1 -2 9 -2q1 -5 1 -9q0 -11 -8.5 -22.5t-18.5 -11.5q-4 0 -10.5 1.5t-10.5 1.5q-22 0 -130 -20q-33 -2 -94 -8l-11 -9
q-12 -8 -19 -8q-6 0 -27 10q0 7 -3 20t-3 20t4 22.5t4 22.5q4 107 4 138v110q0 14 1 37q2 27 2 36q2 64 -3 88q-1 23 1 97q0 8 6 43q4 24 4 43q0 65 -10 99q-7 23 4 73q3 16 -3 43q-8 31 -8 42q0 7 9 17t16 11q47 1 135 5q22 1 71 11q46 9 71 9q10 0 30.5 -3t30.5 -3
q9 0 25.5 4.5t25.5 4.5h72q9 -28 22 -85q13 -96 13 -147v-40q-40 7 -75 7q-51 0 -143 -20zM286 -107l1 3q1 5 1 6q0 44 -19 225q-1 10 -9 34q-7 21 -7 34q0 28 19 28q4 0 9 -1q48 5 106 17q-1 13 1.5 37t2.5 34q0 54 -15 72.5t-68 18.5q-4 0 -11.5 -1.5t-10.5 -1.5
q-11 0 -31 19q8 96 8 85q0 22 -6 50q42 16 112 21q98 8 115 11v69q-7 63 -9 68q-11 38 -47 38q-12 0 -31 -3q-23 -3 -31 -3l-283 -18q-10 -1 -28 -9q0 -19 -3 -65l-3 -46q0 6 6 -57l5 -56q0 -11 -3 -50q1 -6 -1 -12q0 -60 -2 -142l-3 -4v-136q-1 -7 -1 -180v-77q0 -48 1 -41
q113 7 235 33z" />
    <glyph glyph-name="G" unicode="G" horiz-adv-x="773" 
d="M417 478q38 0 116 4l60 3q33 1 57 2q16 -36 20 -108q1 -16 2 -111q2 -163 25 -203q-11 -21 -42 -21q-4 0 -12.5 3t-12.5 3q-20 0 -20 -6q0 -14 15.5 -76t22.5 -75q-17 -18 -31 -18q-2 0 -6.5 1.5t-6.5 1.5q-1 -1 -9 -2l-24 -4q-180 -30 -213 -30q-7 0 -20 1.5t-20 1.5
q-36 0 -112 -19q-6 -1 -35 -13q-25 -10 -31 -10q-41 0 -42 64q0 12 2.5 35.5t2.5 34.5v118q0 16 -68 16l-11 1q-7 0 -10 3q-14 12 -14 37q0 9 4.5 25.5t5.5 23.5q2 25 2 74v112q1 6 9 34q-1 9 -1 35q0 27 1 71q-3 10 -13 49q-2 7 -2 11q0 26 24 26q4 0 13 -1.5t13 -1.5
q11 0 69 14q5 13 5 26q0 20 -6 66q-8 60 -17 80q24 22 38 23l339 24q4 0 15 -3t16 -3q12 0 35.5 3t35.5 3q40 0 45 -70q1 -33 2 -99l12 -72q-15 -13 -41 -11l-49 3q-20 1 -93 -11t-86 -26.5t-12 -86.5q1 -77 0 -89q-3 -35 -11 -92l-6 -43l-3 -21q0 -23 27 -23h21q55 0 52 59
q-2 29 -6 88l-4 1h-11q-1 -1 -1 -2l-3 -2q-9 -8 -16 -8q-13 0 -23.5 14t-10.5 28q0 -16 6 55q4 49 0 70q9 19 29 19q8 0 13 -6zM638 196q0 4 -1 9l-3 16q-5 24 -4 38q6 149 -7 178q-4 9 -13 10h-17q-10 0 -31 -4.5t-31 -4.5h-91l-17 -5q-5 -20 -5 -41q0 -19 4 -39h17l2 1
l2 2q9 6 16 6q11 0 23.5 -9t12.5 -20q0 -18 -20 -107l-4 -16v-71q0 -29 -26 -29q-8 0 -25 6t-25 6q-11 0 -33 -3t-33 -3q-31 0 -31 35q0 28 12.5 79.5t13.5 76.5q3 69 9 217q-3 8 -6 18q5 18 25 25q9 1 37 5l200 23q5 1 5 3v102q0 56 -48 56q-213 0 -365 -21q-9 -1 -22 -15
q6 -52 9 -102q1 -25 -3 -50q-7 -38 -24 -38q-4 0 -16 5l-10 4q-2 0 -62 -16v-349q0 -7 -3.5 -19.5t-3.5 -18.5q0 -24 37 -24q31 0 44 -5q22 -9 22 -36q0 -7 -4 -20.5t-4 -19.5v-82q0 -73 14 -87l142 23h74q7 0 19.5 1.5t19.5 1.5q29 0 102 13q17 3 50 8q29 8 29 32
q0 20 -13.5 62t-13.5 62q0 35 29 35q6 0 15 -4l9 -5q5 0 21 2v103z" />
    <glyph glyph-name="H" unicode="H" horiz-adv-x="787" 
d="M662 -190q-5 0 -14.5 3.5t-14.5 3.5q-13 0 -38 -5t-38 -5q-23 0 -68 -2t-68 -2q-11 0 -21 11.5t-10 22.5q0 6 5 14.5t5 10.5v129q0 19 6.5 57.5t6.5 58.5q0 11 -1 14q-15 1 -28 1q-63 0 -81 -26q-13 -18 -13 -98q0 -3 14 -191q-6 0 -17.5 -2t-17.5 -2q-5 0 -12 3.5
t-9 3.5q-16 0 -65 3l-66 4q-13 1 -40.5 -4.5t-40.5 -5.5q-10 0 -23 9t-13 19q1 4 8 25q29 178 32 463q0 40 10 176q8 114 7 176q-1 60 0 71q4 48 27 58q22 -11 46 -11q54 0 149 -5q6 -10 23 -27q-13 -30 -12 -68l11 -298q22 7 107 31q19 6 24 14.5t4 29.5q-1 8 -2 31
q-1 38 3 103q4 75 4 104q0 13 -7 40q102 7 226 26q5 -9 16 -26q-4 -31 -4 -68q0 -44 7 -118q9 -88 11 -117q2 -34 -1 -162l-3 -141q0 -22 2 -95q5 -155 6 -215q-11 -22 -32 -22zM99 745l-4 -137q-1 -43 -4 -69l-5 -47q0 -13 -3.5 -38.5t-3.5 -38.5v-106q0 -36 -9 -215
q-3 -60 -12 -127l-9 -67q0 -3 9 -37q65 -5 110 -5q8 0 25 1t25 1q30 0 36 1l-2 207q0 9 -2.5 27.5t-2.5 28.5q0 31 19 36q27 -7 40 -7q20 0 60 10t60 10q33 0 33 -36q0 44 -10 -81t-10 -143q0 -56 -1 -53q1 -2 21 -2q137 0 183 5q6 33 6 45v537q0 17 -6.5 50t-6.5 50v100
q0 47 -11 77q-131 -4 -148 -31q-3 -104 -3 -192q0 -53 1 -100l-1 -2q-7 -14 -19 -14q-3 0 -8 2t-7 2q-7 0 -50 -12q-50 -14 -77 -25q-23 -20 -31 -20q-34 0 -32 94q0 15 3 51q3 32 3 50q-1 140 -11 210q-69 15 -94 15q-7 0 -21.5 -3.5t-21.5 -3.5q-4 0 -8 2z" />
    <glyph glyph-name="I" unicode="I" horiz-adv-x="411" 
d="M309 465q-5 0 -18.5 7t-18.5 8q-47 5 -138 19q-115 18 -115 47q2 10 11 57l17 85q3 16 1 47q-3 39 -2 48q15 20 55 20q6 0 15 -6t13 -7q96 -23 144 -23q-4 0 40 7q15 -17 17 -34v-38q0 -35 3 -104.5t3 -104.5q0 -10 -8.5 -19t-18.5 -9zM294 -180q-2 -3 -8 -18
q-115 28 -168 28q-14 0 -41.5 -3.5t-41.5 -3.5q-35 0 -35 35q0 9 8 17l2 2q2 2 8 98q3 43 0 112q-4 90 -4 113q0 13 4 50l4 37v85q8 23 53 23q26 0 77.5 -7t77.5 -7l32 4q16 -7 16 -30q0 -5 -2 -23.5t-1 -25.5q15 -77 10 -133q-3 -34 -3 -62v-137q0 -30 7.5 -89t7.5 -50
q0 -7 -3 -15zM170 745q-24 4 -51 8q-16 -16 -25 -16t-18 9q10 -20 -2 -100l-7 -46l-3 -21q0 -29 87 -46q62 -12 118 -12q26 0 26 66v18q-1 10 -1 16q0 135 2 60q-1 29 -22 42q-14 8 -104 22zM246 264q0 3 -17 71q-86 13 -140 13q-38 0 -38 -155v-258q0 -10 3 -28.5t3 -28.5
q45 -8 76 -8q9 0 27 1.5t27 1.5q15 0 45 -12q1 -1 3 -1h11v404z" />
    <glyph glyph-name="J" unicode="J" horiz-adv-x="827" 
d="M686.5 32.5q-18.5 -1.5 -35.5 -2.5q-26 -4 -26 -28q0 -23 12 -60t12 -40q0 -12 -69 -28q-60 -14 -72 -14h-22l-151 -27q-73 5 -121 -20q-19 -10 -22 -10q-13 0 -34 16l-16 110l-7 1l-8 2q-3 0 -6 1q-21 0 -59 -7q-11 -9 -21 -9q-31 0 -31 48v89q0 34 -5 102t-5 102
q0 18 15.5 41.5t32.5 23.5q11 0 32 -3.5t32 -3.5q-1 0 52 2l53 2q6 0 19 5t20 5q11 0 28 -8q0 -5 2 -15t2 -15q0 -10 -8 -78l-9 -77q0 -26 2 -32q3 -9 17 -9h32q6 0 97 19q3 22 8 64l-6 402q-10 90 -10 84q0 7 3 21.5t3 21.5t-8 20.5t-8 19.5q0 15 15 24q12 8 28 8
q9 0 25.5 -3.5t25.5 -3.5q30 0 92 11q23 3 83 14l34 6q9 -10 9 -25v-307l32 -418q-11 -12 -25.5 -16t-33 -5.5zM670 748q-8 2 -10 2t-31 -6q-24 -5 -167 -21q-3 -6 -6 -32.5t-3 -35.5l17 -320l-3 -246q3 -32 -32 -32q-6 0 -17.5 3t-17.5 3q-26 0 -76 -11.5t-76 -11.5
q-12 0 -22.5 14.5t-10.5 27.5q0 7 6 17l6 10q15 138 15 148q0 19 -27 20h-20l-139 -7q-1 -21 -9 -47q0 -2 -1 -5v-163q0 -12 3 -42q4 -40 10 -40q11 0 34 1.5t34 1.5q6 0 33 19q13 -10 39 -27q-13 -23 -13 -39q0 -11 8.5 -34t9.5 -33l52 10q42 8 45 8t8.5 -2t8.5 -2
q16 0 117 16q120 19 157 34q-4 44 -11 92q-11 18 -11 24q0 31 29 31q8 0 15 -5l2 -1l1 -1q45 0 63 13q22 16 19 59l-27 393q-2 32 -1 54q1 17 3 32l2 14v88q0 9 -6 29z" />
    <glyph glyph-name="K" unicode="K" horiz-adv-x="784" 
d="M701 719q7 -32 7 -71q0 -21 -8 -104q-4 -37 -4 -65q-1 -39 8 -65q-23 -17 -80 -17q-4 0 -12 1.5t-12 1.5q-25 0 -29 -4q-1 -74 9 -92q4 -7 50 -20t58 -27q-22 -78 -26 -200l-7 -203q-15 -16 -33 -16q-3 0 -8.5 1.5t-8.5 1.5q-8 -1 -37 -6q-47 -8 -100 -14
q-7 -1 -25.5 -9.5t-24.5 -8.5q-13 0 -24.5 9t-10.5 22l25 387q1 13 -2 22l-67 3q-17 1 -60 -15q-2 -30 -5 -59l-5 -42q0 -27 8 -125q9 -103 14 -115q-8 -22 -59 -18q-90 7 -149 7q-9 0 -25.5 -5t-25.5 -5q-10 0 -21 8.5t-11 18.5q0 14 21 98q6 25 6 37q-1 32 4 75
q7 60 17 62h3v449l6 4q8 88 8 105l-6 10q-6 10 -6 15q0 33 71 40q19 1 67 4q73 5 56 5q15 0 59 -1v-256q0 -29 9 -29q10 0 77 17q13 1 35 4q30 4 30 37q0 6 -4 17.5t-4 17.5v180l10 9h-2l4 2q7 5 15 5q6 0 17 -3t17 -3q4 0 11.5 1.5t11.5 1.5q35 0 97 -15q82 -20 82 -43
q0 -4 -4 -11t-7 -12zM69 199v-98q0 -46 -17 -175q59 -9 56 -9h68q53 0 58.5 7t5.5 63q0 66 -13 86v200q36 15 155 15q6 0 23.5 8t25.5 8q11 0 18.5 -10t6.5 -21l-28 -341l1 -71h15q20 0 82 12t81 20q4 25 17 108q3 19 3 24v192q0 10 9 12l3 1q-1 -1 -5 5q-14 8 -38 13
q-33 7 -39 9q-27 9 -26 26q5 71 0 89l-14 51q0 9 10 18.5t19 9.5t26.5 -3t26.5 -3q22 0 49 5l11 102q8 74 8 80t-5 43l-8 60q-53 20 -119 20q-23 0 -39 -2q-9 -102 -9 -93q0 -59 17 -151q-33 -9 -81 -17l-70 -11q-7 -1 -29.5 -11t-28.5 -10q-16 0 -34 19q6 11 7 30
q1 15 0 30q-2 28 -2 30q0 15 2 42t2 39q2 101 -16 102q-87 3 -112 -4q-9 -4 -30 -9q-13 -61 -17 -167q-4 -118 -13 -167q4 -46 3 -91q-1 -20 -7 -64l-6 -41q0 -7 -3 -10z" />
    <glyph glyph-name="L" unicode="L" horiz-adv-x="601" 
d="M9 -142q-3 6 -6 14q16 23 16 33q0 79 21 253q25 206 33 308q12 151 16 302l29 15q15 0 28 -26q-16 -32 -24 -93q-2 -19 -7 -99q-10 -3 -39 -8l-1 -625l-12 -5q-7 -29 -7 -50q0 -12 4 -19q68 6 92 6q13 0 38.5 -3t38.5 -3q98 0 245 28q0 11 -2 39l-2 28v122h-6
q-53 0 -111 -10l-58 -10q-11 0 -19.5 10.5t-8.5 21.5q0 10 6 36q4 16 -2 23q10 128 12 302q0 56 2 214q13 67 13 73q0 18 -12 21h-24q-18 0 -47 -5q-42 -7 -55 -19l-8 8l-3 2q-15 10 -15 40q12 17 75 17q40 0 135 5q-2 -38 -18 -132q-11 -65 -2 -110l-11 -438q0 -15 13 -15
q30 0 80 7l100 14q0 -16 15 -23l-11 -58v-121q0 9 25 -81q-10 -8 -31 -16l-249 -17q-17 -1 -60 1l-65 3q-24 0 -78 -12q-9 -2 -14 -2q-2 0 -21 3h-13q0 5 -2 15t-2 15q0 13 9 21z" />
    <glyph glyph-name="M" unicode="M" horiz-adv-x="1107" 
d="M1015 555l4 -2q5 -13 5 -22t-5 -12v-304l-6 -4q0 -1 -3 -67q-1 -37 -9 -66q0 -71 1 -217q-38 -13 -147 -29q-13 -2 -42 -14q-7 -3 -12 -3q-21 0 -28 35q-2 10 -4 51q-3 61 -3 79q0 16 1 69l2 112q0 29 -8 36q-16 15 -38 15q-12 0 -15 -21q-1 -5 0 -50q0 -20 3 -64.5
t3 -67.5l-72 8l-214 -21q-25 0 -32 71q-1 12 -6 79q-8 9 -31 18t-36 9q-10 0 -11 -5q-1 -1 -1 -14q0 -14 4 -40.5t4 -40.5q0 -19 9 -110l8 -81q0 -4 -2 -12t-2 -12q-15 -5 -23 -4q-7 1 -19 3q-38 0 -183 -31q-8 -2 -37 -12.5t-33 -10.5q-12 0 -24.5 11t-12.5 23q0 8 5 15
l3 4q-2 16 -1 46q18 66 21 205l2 65q2 110 7 214q7 159 6 216q2 17 2 42q0 19 -1 43q-2 10 -1 30q8 12 22 20q45 3 163 16l101 11q19 0 28 -22q-12 -71 -12 -105q0 -26 2.5 -29t27.5 -3l13 1t28 1l41 1q24 1 56 -13v-35q-5 -8 -14.5 -56.5t-9.5 -62.5q0 -29 92 -29h11
q3 20 11 76q5 42 -2 103q14 14 27 14q-8 0 7.5 -2t26.5 -3q13 -1 65 2q19 4 19 20q0 7 -3 18v141q16 16 31 16q39 0 78 -1l77 -2q8 1 29 4l19 3q13 2 12 2q21 0 28 -47q1 -15 3 -47q2 -21 2 -22q-1 -13 -7 -24v-108zM975 747q-5 3 -7 3h-78q-8 0 -25 1.5t-25 1.5t-24 -3
l-26 -5q1 -67 -7 -169q-4 -18 -18 -18q-5 0 -13.5 1.5t-13.5 1.5q-11 0 -93 -12q-1 -36 -3 -134q-1 -53 -26 -53q-19 0 -78 9q-72 11 -87 22q15 135 15 157q0 14 -20 14t-60 -4.5t-60 -4.5q-14 0 -35 20q19 86 19 108v24q-41 8 -145 -4q-18 -2 -38 -3q-27 -4 -34 -14t-5 -37
v-21q-1 -49 -7 -186q-17 -293 -20 -547q-4 -8 -11 -26q59 5 89 5q6 0 18 3t18 3q12 0 105 23q1 2 9 24q-3 52 -1 65q-3 13 -6 99q-2 61 -28 92q19 34 33 34q21 0 77 -14q72 -18 76 -41q-6 -29 -6 -54q0 -36 13 -63h78q23 0 70 7q52 8 72 9q3 6 4 12v97q0 43 -3 68
q16 18 29 18q84 0 117 -35v-160q0 -19 -2 -57.5t-2 -57.5q0 -53 10 -77q106 13 136 29q5 59 18 380q3 67 9 150l7 93q2 32 2 64q0 82 -17 162z" />
    <glyph glyph-name="N" unicode="N" horiz-adv-x="976" 
d="M790 -65q-17 -4 -47 -13q-58 -29 -61 -29q-9 0 -20.5 7.5t-12.5 15.5q0 1 -9 116q-6 71 -17 112q-119 -9 -143 -29q-19 -16 -26 -16q-32 0 -42 31q-2 7 -4 56q-1 34 -13 50.5t-45 16.5q-9 0 -27 -7q19 -81 53 -346q1 -4 6.5 -16t5.5 -19q0 -30 -29 -30q-4 0 -11 2t-11 2
q13 0 14 -2q0 -2 -28 -7q-145 -27 -206 -27q-10 0 -26 7q-10 52 -28 161q-4 77 -19 231q-10 28 -24 87q-5 42 -5 172q0 -27 -7 215q0 8 -4 23.5t-4 23.5q0 6 15 31q53 -4 147 15q124 25 149 28q13 -14 14 -56q-1 6 -2 -61l-1 -55q0 -24 13 -24q1 0 55 3l54 3q31 2 36 -102
q0 -16 1.5 -47t11.5 -36l38 -3q23 -2 35 -2q38 0 37 37l-3 166q-16 106 -16 119q0 15 11.5 25t26.5 10q11 0 34 -3t34 -3q25 0 97 29l10 4q5 2 8 2q42 0 42 -84l28 -209v-408l8 -2q1 -28 6 -84q9 -36 9 -38q-13 -8 -34 -16.5t-74 -26.5zM839 500q6 -2 6 -10q-33 8 -33 65v25
q0 6 1 14v8q0 41 -3 59q-3 17 0 38q-3 15 -5 29q-6 20 -16 20q-22 0 -68 -10l-48 -8q-39 -8 -40 -17q-3 -20 4 -72q1 -8 1 -14v-137q0 -10 3 -29t3 -28q2 -58 -30 -58q-13 0 -37.5 1.5t-37.5 1.5q-10 0 -29.5 -4.5t-29.5 -4.5q-33 0 -33 32q0 4 1.5 11.5t1.5 11.5
q-6 56 -10.5 95.5t-16.5 39.5q-59 0 -71 -2q-5 0 -16 -5.5t-17 -5.5q-33 0 -34 35l-3 159q-121 -3 -229 -37q-7 -17 -5 -48l7 -136v-106q0 -127 -1 -70q1 -30 15.5 -60t14.5 -36v-39q12 -92 18 -184q10 -172 47 -172h39q24 0 73.5 13t71.5 25q-2 82 -14 173q-16 121 -42 168
q-11 20 -11 24q0 31 66 38q24 2 87 6q13 -18 18 -43q1 -13 6 -46q7 -46 40 -46q6 0 78 17l51 12q26 6 28 6h23q2 -13 14 -140q6 -68 19 -107l86 24q57 21 57 54v470z" />
    <glyph glyph-name="O" unicode="O" horiz-adv-x="837" 
d="M680 -2q-35 -9 -46 -21q-3 -59 7 -114q-16 -18 -28 -18q-4 0 -12 1.5t-12 1.5q-63 0 -187 -22.5t-187 -22.5q-5 0 -14.5 3.5t-14.5 3.5q-5 13 -5 29q1 36 0 68q-1 40 -22 40q-14 -1 -62 -6l-70 -7q-19 16 -19 79v14q-1 14 -1 27v55q0 -7 2 80q1 61 1 106q-1 56 -3 215
q0 11 -3.5 32.5t-3.5 32.5q0 30 26 30q3 0 8 -2t8 -2q12 0 69 15q11 0 29 8v20q0 26 -17 146l388 7q4 0 13 3t14 3q16 0 24 -14q3 -17 3 -40q0 -42 2 -57q4 -29 18 -55q3 -4 31 -4q16 0 48 2t48 2q33 0 33 -34q0 -12 -7 -56t-5 -52l6 -212q19 -144 19 -183v-82
q-9 -2 -78 -20zM170 731v-19q0 -18 9 -53t9 -53q0 -11 -9 -22.5t-20 -11.5q-5 0 -15 3.5t-15 3.5q-10 0 -78 -15q-10 -61 -9 -96l13 -479l11 -1h60q13 0 39.5 2.5t39.5 2.5q15 -31 18 -106q1 -23 14 -30q9 -5 34 -5q4 0 23 4q72 15 87 18q50 9 88 11l85 5q4 0 35 8
q5 38 5 62q0 7 -2.5 21t-2.5 21q0 18 15 28q56 7 64 9q40 10 48 39q4 14 0 66l-19 250v145q0 9 9 45q-14 4 -53 4q-11 0 -32 -3t-32 -3q-20 0 -44 12q-2 29 -25 149q-8 15 -57 15q-13 0 -37 -5t-36 -5l-197 -4q-4 -6 -15 -17zM245 492l-1 1q-8 5 -8 15q0 46 65 46h13
q7 -1 11 -1q41 0 145 -7q3 -67 10 -154q0 -4 13 -120q10 -90 9 -125q0 -9 5.5 -26t5.5 -26q0 -26 -27 -26q-7 0 -22 1t-22 1q-26 0 -78.5 -9t-78.5 -9q-20 0 -36 28q6 54 3 157q-3 118 -4 112q1 26 -1 71q-2 51 -2 71zM425 503q0 8 -49 8q-68 0 -92 -18v-217q0 -25 5 -71
q7 -62 16 -93q11 -4 28 -4q41 0 127 13q5 16 5 28q0 86 -40 354z" />
    <glyph glyph-name="P" unicode="P" horiz-adv-x="766" 
d="M710 580q-3 -24 -11 -92q0 -17 2 -110q-2 -16 -6 -52q-3 -32 8 -67q-51 -6 -81 -11q-50 -8 -50 -24q0 -38 13 -103q-13 -14 -28 -14q-3 0 -9.5 1.5t-9.5 1.5q-18 0 -109 -20q-86 -19 -114 -27q3 -15 8 -45q0 -122 22 -149v-30q-21 -1 -186 -21l-127 -15q-13 0 -32 20
l26 473q7 127 7 225q0 145 -14 242q16 21 27 21q10 0 17 -7q87 26 257 26q8 0 25 -4.5t26 -4.5l159 6q28 1 28 -54q0 -14 -3 -42t-3 -42q0 -20 11 -20q30 0 78 14q40 12 54 19q22 -31 15 -95zM61 724l2 -1q-10 -114 -10 -99v-656q0 -12 -12 -12h-3q1 -1 4 -13q2 -31 3 -62
q0 -8 10 -23l10 -2q10 -2 11 -2q-7 0 60 10l40 6q20 3 24 3q5 0 15.5 -1.5t15.5 -1.5q40 0 60 9q-2 59 -14 175q-1 4 -7 15t-6 18q0 11 12.5 22t23.5 11q4 0 11 -1.5t11 -1.5q70 0 213 45q-1 3 -12 73q-2 12 -2 16q0 24 43 32q24 5 84 17q2 5 10 68l4 4v78q-2 24 -1 52
q0 8 1 22t1 11v79q-99 -23 -120 -23q-12 0 -21 37q-6 23 -8 46q-1 10 -3 73q-29 8 -46 8t-36 -1l-37 -2q1 0 -53 3l-55 3q-36 2 -115 -7q-6 -1 -56 -15l-28 -8q-11 -3 -17 -5q-4 0 -7 1zM378 281q-47 -3 -70 -3q-7 0 -19.5 -2t-19.5 -2q-15 0 -27.5 11t-12.5 26q0 6 5.5 18
t5.5 18q8 69 8 119v87q13 13 25 13q7 0 15 -6l1 -1l2 -1q6 -5 103 -5q8 0 25 1.5t25 1.5q25 0 26 -23q4 -95 4 -219q0 -30 -24.5 -30t-71.5 -3zM423 502q-11 13 -89 13q-14 0 -45 -11l-12 -165q-1 -11 9 -14q4 -1 20 -1q44 1 113 8q11 33 11 96q0 66 -7 74z" />
    <glyph glyph-name="Q" unicode="Q" horiz-adv-x="848" 
d="M746 -125q-18 -15 -33 -15q-5 0 -16 1.5t-16 1.5l-309 -47q-30 0 -47 1l-34 2q-18 1 -130 -17q-10 18 -12 39q-1 11 0 37q1 31 1 39q-2 52 -58 52q-7 0 -20 -1.5t-20 -1.5q-31 0 -36 2q-16 6 -16 33q0 -55 11 81.5t11 152.5v259q0 2 5 13q2 4 10 55q3 19 3 23q0 5 -16 29
q10 36 37 36q6 0 16.5 -3.5t16.5 -3.5q90 0 90 28q0 32 -13 73q30 15 108 15q-28 0 204 21q21 2 81 8q6 1 22 8t23 7q37 0 37 -32q0 -6 -5 -26q-6 -24 -7 -27q-5 -29 -5 -36q0 -51 8 -67q13 -25 62 -25q4 0 11.5 1.5t11.5 1.5q12 0 23.5 -12t11.5 -24q0 -6 -6 -21.5
t-6 -17.5l12 -495q0 -12 -4 -64zM706 334q-1 53 -4 202q-3 6 -22 11t-29 5q-2 0 -8.5 -3.5t-11.5 -3.5q-16 0 -36 21q1 36 -1 70l-4 69q0 22 3 41q-5 1 -9 3l-270 -35q-6 -1 -90 -4q-3 -4 -3 -17q0 -7 1.5 -20t1.5 -20q0 -24 -12 -41q-64 0 -131 -9q-11 -71 -17 -119
q-2 -18 -7 -213l-6 -247q0 -2 1 -6l2 -4q26 -3 20 -3q15 0 44.5 4.5t44.5 4.5q31 -78 28 -163q38 -4 62 0q41 7 36 7h120l204 34q8 3 52 7q30 3 34 21q15 64 14 103zM525 185q-67 0 -76 -2q-37 -8 -37 -52q0 4 19 -82l-32 -14q1 0 -18 1q-22 1 -46 1l-64 1q-27 0 -25 56
l6 181q1 22 -2 74q-1 11 -9 77q-4 31 -4 46q0 5 13 33h22q7 0 17 -6l10 -6h128q44 0 66 10l3 1q3 1 5 2q14 0 31 -30q20 -231 20 -264q0 -10 -8.5 -18.5t-18.5 -8.5zM496 415q-2 15 -19 33l-28 3q-13 0 -39 -3t-39 -3q-6 0 -18 3t-18 3q-39 0 -51 -10v-332q0 -15 20 -25
q16 -8 33 -8q13 0 36 8q-1 35 -1 57t1 30q-5 17 -5 30q0 29 23 29q7 0 20 -3t20 -3q14 0 71 14q2 7 2 20q0 88 -8 157z" />
    <glyph glyph-name="R" unicode="R" horiz-adv-x="813" 
d="M329 -115q8 -12 8 -19v-27l-9 -9h1l-3 -3q-8 -4 -16 -4q-7 0 -21.5 4.5t-20.5 4.5q-21 0 -61 -9.5t-61 -9.5q-7 0 -20 1.5t-20 1.5q-30 0 -61 -10q-9 -3 -16 -3q-8 0 -16 8l-3 3l62 937q1 15 39 26q4 0 11.5 -3t10.5 -3l214 22q8 0 107 8q25 2 115 2q10 0 18 -11t8 -21
t-8 -33t-8 -32q0 -44 12 -95q40 -5 76 -5q5 0 20 6.5t22 6.5q12 0 22 -22q8 -18 8 -33q0 -23 -8 -69.5t-8 -69.5l5 -36q4 -29 4 -59q-25 -5 -60 -5h-14q-9 1 -12 1q-29 0 -29 -44q0 -36 7 -45q45 -6 57 -9q39 -10 39 -32q0 -5 -11 -144q-7 -89 8 -183q-4 -4 -23.5 -10.5
t-25.5 -6.5t-17 -1.5t-16 -1.5q-136 0 -155 -9q-22 -10 -25 -11q-37 0 -37 31q0 6 5.5 17t6.5 15.5t1 16.5q0 51 -6 157q-15 6 -49 6q-51 0 -51 -34q0 -90 4 -153zM419 118l1 1q8 8 17 8q30 0 32 -104l3 -135h127q-5 0 63 12q9 84 9 125v139q0 24 -46 24q-4 0 -10.5 -1.5
t-10.5 -1.5q-17 0 -39 35v125q18 23 28 22q12 -4 22 -4q20 0 68 14l3 55q-2 20 3 54q5 40 5 55q0 23 -10 23q-6 0 -16.5 -2t-16.5 -2q-9 0 -26 3.5t-26 3.5q-2 0 -14 -5t-18 -5q-8 0 -16 12.5t-9 21.5q3 21 1 53q-1 21 -4 111q-48 6 -59 6q-50 0 -348 -37q-5 -4 -19 -13
q-12 -49 -17 -148q-1 -24 -11 -88q-8 -56 -8 -87t-3 -94t-3 -95v-96q0 -45 -5 -120q-6 -90 -7 -121q47 0 70 1l46 2q-17 0 23 6q28 4 56 7q31 0 29 9v36q0 104 2 112q-15 40 -15 51q0 31 32 31q5 0 14 -3t13 -3q15 0 45 3.5t45 3.5zM347 348q-39 -4 -59 -27q-21 22 -21 112
v87q0 1 -5 9.5t-5 14.5q0 32 132 41q25 2 40 6q24 -28 19 -48q-4 -15 -4 -38q0 -30 23 -138q-20 -7 -120 -19zM415 404l3 12q0 23 -7 59q-9 47 -10 59q-12 7 -22 7q-51 0 -64 -18q-9 -13 -9 -62v-66q29 -3 23 -3q26 0 86 12z" />
    <glyph glyph-name="S" unicode="S" horiz-adv-x="864" 
d="M605 -156q-2 0 -54 3l-52 3h-26l-286 -34q-20 0 -60 -6.5t-60 -6.5q-12 0 -23.5 9.5t-11.5 21.5q0 7 5 12l1 2q8 9 8 145q0 17 -5 35q32 31 192 31l190 18q35 -2 35 11q0 64 -14 88q-7 2 -87 11q-52 6 -88 6q-13 0 -53 -3l-53 -4q-3 0 -9.5 -1.5t-10.5 -1.5q-3 0 -18 7
q-4 18 -5 37q0 12 2 35.5t2 34.5v52q-11 5 -43 7.5t-45 8.5q-21 30 -21 44q0 26 -7.5 76.5t-7.5 76.5q0 43 34 43q6 0 18 -3t18 -3q11 0 32 1.5t32 1.5q8 21 15 100q8 88 29 88q11 0 32.5 -3t32.5 -3q15 0 44.5 6.5t44.5 6.5q18 0 54 -3.5t54 -3.5q22 0 43 3q40 10 45 10
q14 0 40.5 -4.5t40.5 -4.5q1 0 18 2q18 2 38 -2q-2 -25 3 -104q2 -33 5 -49q6 -33 21 -47q-7 -12 -15 -24.5t-21 -12.5q-8 0 -34 9l-228 -41q-32 -6 -38 -19q-2 -4 -2 -40q0 -17 4 -39q49 6 130 6q14 0 42 -3.5t42 -3.5q7 0 32 6t33 7q25 -13 25 -32q0 -8 -9.5 -33t-9.5 -37
q0 -10 8 -31l54 16q41 12 49 12q11 0 23 -12t11 -23q-3 -8 -7 -19q2 -57 4 -146q1 -38 8 -53q3 -6 3 -11q0 -21 -70 -40q-18 -4 -89 -22v-79q0 -11 6 -33q6 -25 7 -34q-18 -24 -34 -24q-8 0 -13 6zM747 171v44q-2 12 -11 54q-2 10 -16 10q-30 0 -83 -35q-14 0 -25.5 10
t-11.5 24q0 17 4.5 51.5t4.5 51.5l-115 10q-16 -2 -123 -14q-19 -15 -26 -15q-37 0 -37 32q0 12 6.5 36t6.5 36q0 42 -21 58q5 13 11 26q7 10 27 9q45 6 104 17l191 35l1 5q1 5 1 11q0 10 -15 121h-17h-12q-23 -1 -25 -1h-131h-19q-38 1 -41 1h-55q-30 0 -124 -16
q-6 -16 -14 -49q2 -82 0 -102q3 -4 3 -8q0 -8 -11 -16l-1 -1q0 1 2 3l-11 -5q-15 3 -46 3q-54 0 -72 -9q2 -7 3 -34q2 -45 8 -70q11 -46 40 -46q17 0 45 13q33 -16 33 -44q0 -7 -11 -29l-5 -65q-1 -16 2 -26q4 -13 19 -13q1 0 67 2l66 2q21 1 62.5 -6t61.5 -7q2 0 9.5 3.5
t12.5 3.5q29 0 33 -56q6 -82 18 -127q-18 -25 -33 -25q-9 0 -26 4.5t-26 4.5l-210 -19q-6 0 -17 1.5t-17 1.5q-78 0 -94 -37q-7 -16 -7 -105q0 -23 9 -23q16 0 136 13l148 16q33 4 109 16q12 2 17 2q14 0 40.5 -4.5t40.5 -4.5q10 0 20 6v40q0 16 -6 48.5t-6 48.5q0 33 29 33
q6 0 18.5 -3.5t17.5 -3.5q23 0 36 4q39 12 52 26q6 5 6 82z" />
    <glyph glyph-name="T" unicode="T" horiz-adv-x="710" 
d="M622 438q-9 -3 -15 -3q-7 0 -21 5.5t-20 5.5q-70 0 -86 -10q-28 -17 -24 -74l26 -379q-5 -57 -6 -108q0 -15 1 -32q-2 -17 -20 -25q-22 6 -59 12l-230 -26q-2 0 -21 4h-14q0 8 -4 17.5t-4 15.5q0 7 8.5 18.5t9.5 16.5q5 11 5 34v36q0 34 23 320l16 199q2 27 -82 39
q-16 2 -105 12v27q0 6 9.5 19.5t9.5 16.5q4 29 10 87v94q0 6 -4 17q2 12 65 20q54 7 92 7q32 0 98 -8t101 -7l214 4q25 0 31 -22q1 -21 10 -89l8 -64v-150q0 -6 -4 -13.5t-18 -16.5zM529 744q-27 0 -83 -2l-84 -3q8 0 -85 8l-85 7q-11 1 -55 -4t-67 -10q-1 -24 -4 -85
q-1 -8 -5.5 -25.5t-4.5 -27.5v-44q5 -1 72 -15q43 -9 74 -9q13 0 24 1q3 -2 4 -2q13 -6 13 -20q0 -16 -8 -46q-8 -33 -9 -47q-14 -180 -29 -430q-1 -16 -7 -57q-5 -37 -5 -58q0 -15 20 -15h7q4 1 5 1q62 0 190 19q12 2 22 10q2 28 8 77q-1 6 -1 30q0 23 1 63l-16 152
q-8 74 -7 146q0 28 -11 80q-3 14 -3 16q0 19 24 37q65 -7 72 -6q70 11 96 11q2 11 7 43q4 26 0 123q-2 50 -12 64q-13 18 -58 18z" />
    <glyph glyph-name="U" unicode="U" horiz-adv-x="886" 
d="M13 179q0 -8 19 76q4 33 13 129q2 30 9 113q2 18 11 193q6 113 32 113q11 0 19.5 -10t8.5 -21q0 -6 -9 -30t-10 -32q-10 -65 -10 -114v-81l-37 -348q0 -20 -1 -61l-2 -35q0 -45 111 -45q8 0 60 7q14 -41 14 -44q0 -6 -4.5 -18t-4.5 -18q-1 -11 -7 -95q13 -5 26 -5
q4 0 9 1l16 3q16 3 36 5q107 -1 294 5q3 0 6 7q7 11 3 75q-3 61 4 68q48 10 67 15q37 10 65 23q15 7 15 28q0 8 -3 24t-3 24q0 37 3.5 110.5t3.5 110.5t-12 111.5t-12 112.5q0 46 -11 75q-15 0 -45.5 -5t-46.5 -5q-6 0 -18 1.5t-18 1.5q-27 0 -27 -44v-367q0 -18 -7 -37
q-8 0 -24.5 1.5t-24.5 1.5q-38 0 -123 -21q-2 -1 -15 -10q-9 -6 -16 -6q-25 0 -29 28q-1 1 -1 44v135q0 20 -8 53q-6 24 4 52q-1 23 -10 124q-4 37 -15 132q-1 8 -6 10q-28 10 -77 10q-11 0 -32.5 -3t-32.5 -3q-21 0 -34 13q-2 17 7.5 30t26.5 13q1 0 62 -5l61 -5
q16 -1 59 9q1 -7 17 -190q13 -145 13 -196q0 -89 11 -186q3 -2 7 -2q51 0 135 21q2 0 13 107q5 47 5 77t-6 242q26 15 33 15q26 0 51 -1l50 -2q7 0 40 13t41 13q25 0 30 -50q1 -14 5 -50q0 -92 -3 -108q2 -13 13 -64q10 -47 10 -51v-84q0 -16 -4 -51q-4 -31 -4 -52
q-1 -35 4 -86q7 -75 7 -91q-28 -9 -107 -34q-7 -2 -28 -10q-11 -6 -13 -14q-2 -57 -14 -145l-293 -3q-13 -1 -72 -7l-73 -7q-38 0 -38 38q0 5 8 20q1 13 7 49q5 31 5 49q0 23 -20 23h-14q-9 -1 -15 -1q-8 0 -57 12q-86 21 -86 43q0 13 13 29v114z" />
    <glyph glyph-name="V" unicode="V" horiz-adv-x="1005" 
d="M919 719v-261q1 -3 7 -29.5t6 -35.5v-113q-13 -4 -75 -23q-38 -12 -58 -40q-3 -4 -14 -100q-1 -9 6 -30l-7 -49q-100 -15 -170 -19q-5 -40 -16 -120q1 8 1 -44q0 -41 -36 -42l-257 -6q-17 51 -6 120q3 20 7 48q0 10 -4 19q-10 20 -96 26q-44 3 -55 5q-40 7 -40 27
q0 -12 7 68l6 69q3 34 -5 49t-42 19q-10 1 -39 4l-39 3v32q0 -18 1 -20q0 -3 2 10.5t4 42.5q8 93 14 193q7 108 7 134l1 115q53 32 62 32q19 0 56.5 -6.5t56.5 -6.5q52 0 89 4q10 -35 10 -41l-20 -325q-1 -22 0 -30q5 -11 28 -11q-7 0 25 3q22 2 46 -1q0 -7 5 -18.5t5 -17.5
q0 -10 -8.5 -33.5t-8.5 -32.5q0 -37 15 -68q134 11 134 38q0 15 -17 113q36 16 101 23q19 2 24 3q10 4 11 14v103l-10 115q-5 58 -22 114q5 23 26 24l122 4q23 1 74.5 15.5t67.5 14.5q11 0 21 -13.5t10 -24.5q0 -7 -6.5 -23t-6.5 -20zM658 355q-25 -1 -98 -19v-42
q0 -9 6.5 -29.5t6.5 -30.5q0 -48 -135 -52q-25 -5 -87 -20q-16 20 -16 39q5 34 4 80q-1 60 -29 60q-7 0 -21.5 -5t-21.5 -5q-13 0 -23.5 8.5t-9.5 20.5l23 292q6 73 -7 88q-9 11 -87 11q-13 0 -39.5 -2t-39.5 -2l-41 -386q4 -16 10 -47q14 -9 55.5 -15t58.5 -18
q2 -52 -4 -202q39 -12 172 -23q17 -22 17 -40q0 -17 -6.5 -50t-6.5 -50q0 -24 9 -59q-16 -1 126 -1q42 0 77 14q3 54 9 113q10 97 38 97q7 0 22 -6.5t21 -6.5q8 0 24.5 2t24.5 2q5 0 47 14q1 15 8 56q6 36 6 56q0 25 -7 54q31 19 67 32q51 18 59 25q20 17 20 63q0 14 -5 42
t-5 42v126q0 16 1 48.5t1 48.5q0 53 -6 62l-48 -9h-81q-85 0 -85 -25q0 -13 5 -37q5 -29 6 -38q10 -103 13 -229l5 -9q4 -10 4 -15q0 -9 -7.5 -19.5t-16.5 -10.5q-10 0 -13 7z" />
    <glyph glyph-name="W" unicode="W" horiz-adv-x="1177" 
d="M36 366q-1 2 -1 11l29 279q-1 85 -16 124l7 8q13 15 26 15q6 0 18 -7t15 -7q-37 0 46.5 7t93.5 7q31 0 60 -8q42 -12 42 -35q0 -7 -7 -21.5t-7 -17.5q0 -17 7 -50.5t7 -50.5l-17 -168q0 -34 8 -55q37 7 110 14q9 11 4 28q-8 30 -8 33q0 14 10 25q57 13 169 22q97 8 156 8
q16 0 29 -38q0 -14 -7 -40.5t-7 -40.5q0 -26 8 -57q65 14 65 101q0 -18 -3 60q-4 105 22 233q119 23 175 23q12 0 25 -11t13 -22q0 -10 -5 -28.5t-5 -28.5q0 -25 -7 -132q-6 -92 -6 -133q2 -20 -8.5 -56t-10.5 -53v-100q0 -2 -5 -34l-11 -71q-17 -112 -23 -165
q-2 -19 -6 -108q-28 -16 -72 -18q-25 0 -75 -1q-75 -3 -92 -3q-8 0 -12 8q-10 -9 -18 -9q-18 0 -18 35q2 4 14 36q0 34 1 68q-2 56 -14 56q-15 0 -44.5 -7t-44.5 -7q-4 0 -36 11v38q6 4 12 39q6 31 6 44q0 3 -4 27l-6 36h-7q-52 0 -64 -7q-20 -11 -20 -56q0 22 -2 -33.5
t-2 -60.5q-49 -9 -99 -4l-61 6q-26 0 -34 -27q-4 -14 -4 -49q0 -71 13 -95q4 -7 4 -11q0 -27 -33 -27h-124q-25 0 -76 -5.5t-76 -5.5q-34 0 -34 22q0 16 25 43v462q0 8 7 10h1q4 5 4 25zM1003 713q-43 0 -61 -10q-9 -4 -17 -69q-6 -49 -6 -75v-104q0 -14 -14 -90
q5 -13 7 -37q-15 -13 -39 -17q-16 3 -44 -10t-36 -13q-27 0 -37 21q3 53 8 152q-11 18 -17 18q-62 0 -126 -8q-88 -11 -113 -30q3 -21 4 -50q1 -23 -13 -33.5t-37 -9.5q-2 11 -5.5 13t-15.5 2t-67 -9l-15 -11q-16 -12 -23 -12q-14 0 -29.5 12t-15.5 26q0 42 10.5 126.5
t10.5 126.5q0 69 -19 121q-3 9 -51 9q-5 0 -14.5 -2t-13.5 -2q-7 0 -20 3.5t-19 3.5q-4 0 -65 -21l-41 -332v-105q0 -17 -8 -149l-9 -149v-137q12 -7 20 -7l14 2l35 5q49 7 57 7q-14 0 102 -4q0 93 -3 129q-11 38 -11 40q3 44 27 44q-1 0 32 -11q34 -3 77 -2q9 1 35 2h18
q27 0 27 48v26q0 13 -7 30.5t-7 18.5q0 13 11 23t24 10q5 0 15 -3.5t15 -3.5l40 8l74 15q10 -14 21 -43q0 -26 1 -154q6 -3 22 -3q7 2 50 15q10 3 15 3q36 0 37 -83v-110q25 -1 67 -5l41 -4q81 0 81 62l37 324l38 427q0 30 -13 38q-9 7 -41 7z" />
    <glyph glyph-name="X" unicode="X" horiz-adv-x="1148" 
d="M136 523l-1 1q-2 1 -5 1q-9 0 -65 -11q-10 -2 -14 -2q-9 0 -17 14t-7 23q1 17 -4.5 62t-11.5 58q-11 23 -11 29q0 25 99 40q31 4 116 19q78 15 90 15q10 0 38 -9l1 -102q0 -27 47 -27q25 0 56 12q8 3 13 3h27q1 -29 3 -103q3 -82 28 -82h23q9 0 9 15v162q21 11 28 11
q8 0 25 -6t24 -6q4 0 69 13q0 52 7 114q3 24 28 24q4 0 10.5 -3t7.5 -3l205 9q6 0 19 4.5t20 4.5q30 0 34 -68q-1 -25 0 -78q0 -12 2.5 -36t2.5 -37q0 -29 -27 -29q-9 0 -27.5 1.5t-27.5 1.5q-30 0 -34 -6l8 -124v-30q-16 -5 -101 -16q-53 -7 -72 -26v-104q0 -7 19 -4
q6 0 19 3t20.5 3t33.5 5t35 7q22 -17 22 -38q-10 -20 -7 -37t6 -79q24 0 71.5 -2t71.5 -2l12 -140q7 -76 23 -138q-28 -11 -31 -11q-4 0 -12 1.5t-12 1.5l-10.5 -1t-23.5 -1l-35 -1q-11 0 -33 3t-32 3q-26 0 -56 -10q-9 -3 -12 -3q-21 0 -34 77.5t-18 77.5q2 0 -60 -5
l-62 -5q-31 -2 -36 64q-1 18 -4 66q-1 16 -17 25q-38 22 -101 18q-8 -9 -8 -24q0 -58 9 -83q3 -6 3 -14q0 -30 -33 -30q-7 0 -22 4.5t-23 4.5q-10 0 -28 -5q12 -83 18 -90q17 -21 17 -26q0 -39 -38 -39q-7 0 -15 8q-17 1 -73 1q-81 0 -132 -16q-15 -15 -28 -15q-5 0 -14 3
t-14 3q-1 0 -11 -4.5t-15 -4.5q-10 0 -21 9.5t-12 19.5q-20 5 -18 24q2 20 2 48q0 120 -24 145q11 30 28 30q16 0 47 -6.5t47 -6.5q4 0 21 3q12 2 20 0l8 144q1 15 -7 26t-8 18q0 20 52 30q60 12 62 14q25 24 25 104q0 5 -9 5q-14 0 -113 -18q-17 -3 -21 -3q-31 0 -31 31
q0 11 7 23q-1 8 -1 27q0 20 1 53zM1019 -22q0 2 -2 11l-4 23l-8 48q-14 8 -37 8q-15 0 -44 -6t-44 -6q-18 0 -29 6v150l-24 1q-12 0 -42.5 -9t-43.5 -9q-11 0 -37 26v167q19 19 79 30q24 4 88 16q9 21 9 33q0 55 -4 77q-1 5 -6.5 16t-5.5 17q0 9 7.5 19t16.5 10q6 0 16 -6
q64 0 84 9v125q0 4 -6 16q-5 0 -15.5 1.5t-15.5 1.5q-9 0 -72 -6l-74 -7q-34 0 -60 -2q0 -10 -4 -37l-4 -20q-1 -5 -1 -9q0 -10 3 -30.5t3 -30.5q-15 -1 -76 -11l-48 -8q-15 0 -21 1q0 -25 -9 -117q1 -7 6 -29q6 -26 -16 -44q-49 16 -73 16q-41 -1 -61 21q0 102 4 142
q-1 3 -2 9l-1 2q-25 -4 -108 -4q-38 0 -38 38q0 3 6 34q2 11 -7 55l-43 3q-31 2 -94 -10q-31 -6 -93 -19q-5 -1 -11 -10t-6 -15q0 -25 23 -104q8 -1 19 -1q28 0 56 14l4 2q4 2 7 2q9 0 16 -9.5t7 -18.5q0 -18 -8 -23q-4 -4 -4 -42q4 -27 7 -40q8 0 22.5 -4.5t20.5 -4.5
q14 0 47 12.5t47 12.5q21 0 29 -19q0 -4 -7 -105q-5 -71 -24 -80l-61 -8q-35 -9 -41 -41q2 -9 2 -37t-2 -75l12 -33q0 -28 -70 -34l-96 -8v-24q0 -40 17 -141q3 1 67 1q10 2 27 8q32 11 43 12q32 3 91 2q48 -1 61 5q-6 30 -16 82q-1 3 -11 20q-9 14 -9 21q0 10 10 19t20 9
q6 0 16.5 -4.5t11.5 -4.5q60 0 60 37q0 26 -8 59.5t-8 37.5q0 23 28 23q7 0 70 -12l105 -20q11 -9 23 -28q-7 -26 -7 -59q0 -59 30 -59q20 0 59 7.5t58 7.5q12 0 28 -23q2 -6 1 -29q-6 -102 29 -102h29q9 0 27 -1.5t27 -1.5q52 0 83 13v102z" />
    <glyph glyph-name="Y" unicode="Y" horiz-adv-x="887" 
d="M726 441q0 -3 3 -18q13 -64 22 -126q8 -14 8 -19v-33q-61 -17 -184 -32q-4 -23 -4 -38q0 -33 6 -92q2 -18 12 -157q1 -10 8 -30t7 -31q0 -8 -11 -29q-29 3 -64 3q-2 0 -6.5 -1.5t-6.5 -1.5l-158 -33q-16 0 -27 13q-16 223 -16 290v78q0 16 -12 16q-37 0 -88 -20
q-8 -3 -25 -4q-8 17 -13 68.5t-15 76.5q-3 8 -48 16q-39 7 -56 7q-3 0 -10 -1.5t-10 -1.5q-17 0 -31 16q-1 55 -4 106q-6 103 5 168q7 41 -3 84q14 15 28 29q20 19 32 19q5 0 10 -2q5 -8 38 -6q11 1 65 3l93 4q8 0 25.5 5.5t24.5 5.5h24q2 -30 -4 -83q-7 -59 -7 -82
q0 4 1.5 -11t2.5 -38q2 -30 2 -64q46 -2 151 -10q-4 155 -22 261l299 58q40 -64 49 -243q2 -29 11 -50q3 -7 3 -11v-30q-105 -10 -105 -29zM563 253q30 1 71 8q60 10 78 25q-8 64 -25 142l-7 30q0 18 42 34q13 5 62 19q-9 127 -9 128q-10 86 -33 116q-49 -9 -116 -21
q-79 -15 -109 -29v-25q0 -58 9 -167q1 -7 6.5 -23.5t5.5 -25.5q0 -26 -27 -26l-58 6l-58 6q-13 0 -38.5 -4.5t-38.5 -4.5q-27 0 -27 24q0 5 3.5 15t3.5 14l1 232l-223 -9q-4 0 -9 2q-29 -106 -29 -157q0 -168 9 -171q65 -21 105 -21q5 0 14.5 3t14.5 3q12 0 22 -18
q2 -39 22 -127l113 22q24 0 24 -25q0 -9 -4.5 -25.5t-4.5 -24.5q-5 -141 16 -324q4 -1 11 -1q34 0 90 10q84 15 84 40q0 71 -19 271q-2 20 -14 45q-3 6 -3 10q0 12 10 21t22 9q9 0 13 -6z" />
    <glyph glyph-name="Z" unicode="Z" horiz-adv-x="794" 
d="M674 -170l-225 6q-2 0 -44 -4l-41 -4q-18 0 -51.5 -5.5t-50.5 -5.5l-188 -3q-3 0 -19 -5.5t-31 -3.5q-7 16 -10 50q-2 25 -15 39q16 56 18 125q1 36 4 128q1 20 7 107q1 8 10.5 14.5t18.5 6.5q3 0 8.5 -1t8.5 -1q7 0 131 21q18 0 51 7q3 9 3 15q0 12 -5.5 35t-5.5 34
t9 19.5t20 8.5q8 0 23 -1.5t23 -1.5q-3 0 74 8q3 7 3 15q0 19 -5 89q-6 82 -11 112q-46 -4 -139 -22q1 -5 1 -10q-1 -1 -1 -95v-13q0 -57 -26 -57q-7 0 -20 4t-20 4q-6 0 -148 -8q-3 7 -4 9l-4 6q-7 10 -7 15q0 8 4.5 22.5t4.5 22.5v227q0 26 34 35q14 4 55 7l204 16h81
q8 0 24.5 3t24.5 3q14 0 37 -7q27 -8 37 -9q37 -4 112 -14q-2 -53 2 -142q4 -107 4 -143q0 -21 -3 -62t-3 -62l2 -29q1 -16 0 -30q-7 -13 -22 -13q-79 0 -137 -13q1 -9 6 -31.5t5 -29.5q0 -45 -54 -39l-148 -33q-35 -3 -35 -13v-89q17 -7 24 -7q11 0 116 10q27 -1 82 1v123
h60q19 0 93 18q17 4 25 4q16 0 26 -16q10 -108 29 -326q-2 -6 -13.5 -13.5t-18.5 -7.5zM210 148q-6 -2 -6 3v3q0 21 21 24q61 8 213 42q3 7 3 25q0 19 -1 25q-2 12 -15 14q-1 15 7 29.5t22 14.5q3 0 19 -8q23 0 114 13q7 14 10 56q8 45 8 120q0 35 -13 221q-129 31 -155 31
q-12 0 -65 -5l-64 -6h-68q-10 0 -84 -8l-83 -9q-3 -1 -5 -8v-125q0 -14 -2 -42l-3 -42q-2 -29 7 -34q3 -1 39 -1q10 0 28.5 3t28.5 3q26 0 39 2l7 73q0 11 -5 33t-5 33q0 32 51 32q36 0 133 18l21 4q9 0 25 -12q1 -13 0 -29q-2 -26 -2 -28q0 -26 2 -77t2 -77q0 -10 4 -30.5
t4 -30.5q0 -20 -9 -24q-13 -2 -30 0q-25 3 -28 3q-58 0 -81 -9q-5 -29 -5 -41q0 -7 5.5 -23.5t5.5 -24.5q0 -26 -22 -26q-5 0 -15.5 3t-15.5 3q-18 0 -94 -13q-39 -6 -82 -20q-8 -13 -13 -72l-11 -129v-142q0 -34 29 -33l220 5q10 2 98 20q10 2 18 2h149q6 0 17.5 -4
t16.5 -4q7 0 20.5 1.5t20.5 1.5q21 0 25 11q1 3 1 28q0 130 -27 235q-42 -4 -63 -7q-48 -7 -55 -17t-7 -53q0 -17 12 -54q-20 -20 -26 -20q-2 0 -12 2l-21 4q-26 5 -34 5q-101 0 -173 -12l-24 -4q-10 0 -19 8t-9 18q0 5 8 16q3 48 3 70q0 28 -11 46q2 -1 5 -6q0 3 1 6z" />
    <glyph glyph-name="bracketleft" unicode="[" horiz-adv-x="440" 
d="M13 -146v742l5 3q2 20 2 57q0 5 1.5 15t1.5 15q0 11 -2 32.5t-2 32.5q0 10 11 20.5t21 10.5q3 0 8.5 -1t8.5 -1q-19 0 27 6q43 6 51 6l183 10q16 1 24 -16.5t7 -52.5q-1 -32 -3 -75q-2 -35 -2 -44q-48 -7 -176 -25q-2 -1 -8 -7v-101q2 -2 4 -6q6 -43 6 -88v-68l12 -159
q0 -6 -4 -59l-5 -60q-1 -14 6 -14q3 0 8.5 1t8.5 1q12 0 38 -2l26 -2q9 -1 31 4.5t32 5.5q14 0 30 -22q-9 -24 -9 -42q0 -17 7.5 -48.5t7.5 -45.5q0 -29 -30 -29l-9.5 -1t-19.5 -1l-30 -1h-64l-27 -5q-95 -9 -149 -32l-7 -3q-5 -2 -7 -2q-9 0 -15 8q1 0 1 -1l-4 4
q-6 15 -6 26q0 13 10 14zM142 585l-1 1q-8 5 -8 14q0 32 27 32q1 0 20 -1l19 -1q34 -2 118 26q10 46 10 68q0 35 -14 36l-83 3q-46 2 -157 -19q-4 -9 -13 -13q-11 -86 -11 -97q0 -18 1 -93l1 -75v-304q0 -6 -3 -9v-2q-2 -7 -3 -18q-7 -122 -7 -147v-97q0 -37 7 -37
q1 0 17.5 7t22.5 7q27 4 130 17q15 2 80 2q34 0 34 10q0 -4 -6 26q-1 24 -5 70l-6 -2q-9 -1 -13 -1q-6 0 -17 1t-17.5 1t-19.5 1.5t-20 1.5q-15 0 -33 -7.5t-19 -7.5q-9 0 -19.5 11t-10.5 20t7 13q2 29 6 91l4 49q0 -7 -3.5 12.5t-6.5 49.5q-4 40 -5 85q-1 64 -5 162
q-2 51 2 114z" />
    <glyph glyph-name="backslash" unicode="\" horiz-adv-x="673" 
d="M6 572q-4 59 0 172q1 29 3 36q5 20 23 23q9 -4 104 -24q82 -17 82 -33q0 -2 -1 -5q-11 -24 -11 -55q0 -11 2.5 -32.5t2.5 -32.5q15 -6 105 -28q2 -6 2 -7l2 -3q4 -8 4 -14q0 -5 -5 -17t-5 -16q0 -14 7 -108q28 -11 84 -25q9 -1 12 -24q3 -22 -2 -38q2 -19 0 -100
q4 -15 50 -34t46 -30q0 -3 -8 -20l-2 -3q2 -15 0 -89q4 -11 8 -14q8 -6 34 -14.5t37 -8.5q3 0 7.5 1.5t7.5 1.5q26 0 26 -25q0 -6 -9 -17q-7 -20 -12 -75q2 -24 1 -48q-1 -32 -27 -64q-23 2 -72 14.5t-74 12.5q-1 0 -7 -2.5t-10 -2.5q-23 0 -23 26q0 14 5 41t5 41
q0 16 -13 20q-3 1 -25 1q-6 0 -18.5 -3.5t-18.5 -3.5q-13 0 -27 19q20 42 20 126q0 37 -29 50q-25 6 -84 27l20 129q-4 14 -52 23q-16 3 -27 7q-19 -3 -25 10q-4 10 -1 29q0 3 2 11q-2 9 0 69q0 15 -5 68q-3 9 -39 15q-24 4 -41 4q-1 -1 -20 -6q-15 15 -15 30q0 5 6 15z
M462 28q5 35 5 30v100q-46 26 -73 31l-5 1q-15 3 -12 20l1 5q3 15 3 47v98q-19 18 -81 28q-15 2 -22 14q8 43 6 63v49q0 31 -7 47q-23 11 -106 24q0 52 -1 145q-67 21 -92 21h-34q-5 -18 -8 -40q2 -48 0 -60q2 -27 7 -81q11 -1 60 -9q39 -6 52 -18q-2 -51 -2 -91
q0 -50 3 -83q10 -7 30 -12l31 -8h20q28 -1 24 -26l-16 -105q-4 -26 33 -38q11 -3 58 -15q4 -3 11 -47q6 -40 6 -53q0 -12 -4.5 -35t-4.5 -35q51 -10 56 -10q3 0 9 1t9 1q26 0 26 -22q0 -5 -9 -20q-1 -7 -9 -46q-1 -2 -1 -5q0 6 4 -22q81 -23 114 -23q19 0 20 52q0 40 13 85
q-8 3 -58 18q-35 10 -56 24z" />
    <glyph glyph-name="bracketright" unicode="]" horiz-adv-x="463" 
d="M186 166v220q0 10 11 78q2 12 2 18v101q-5 6 -8 6q-42 7 -176 25q0 44 -2 74l-3 45q-1 20 3 36q2 8 16 34q137 -13 175 -13q3 0 10 1t10 1q30 0 78 -12q3 0 8.5 1t8.5 1q28 0 30 -33q-6 -14 -4 -37l4 -38v-70q0 -3 -1 -44v-21v-217l22 -474q0 -10 -9 -27.5t-18 -17.5
l-49 15q-21 6 -56 12l-56 9l-19 4q-3 1 -10 2h-64q-8 0 -25 2.5t-25 2.5h-37q2 11 12 94q6 45 -7 61q3 30 29 30q10 0 28.5 -4t28.5 -4h87q6 0 6 14q0 21 -8 99q-2 18 8 26zM227 584v-122l-2 -62l-2 -95q-1 -27 -7 -87l-6 -56q0 5 2 -12t4 -42q2 -34 2 -72q0 -7 4.5 -16
t4.5 -11q0 -9 -10.5 -20t-19.5 -11q-12 5 -23 10t-29 5q-16 0 -47 -1.5t-47 -1.5q-1 -10 -6 -47q-4 -30 -4 -48q0 -8 38 -9q27 2 81 -4q19 -6 52.5 -7.5t45.5 -3.5t37 -10.5t30 -8.5q7 0 7 36v98q0 12 -4 36.5t-4 36.5q0 9 2 19q3 15 0 41q-4 34 -4 42v63q0 17 -3 57
q-3 37 -1 56q-1 -14 -2 187v17q1 29 1 26v55q0 64 -7 110q-9 4 -14 14l-156 17q-36 0 -83 -3q-14 -1 -14 -36q0 -23 10 -69q7 -5 70 -20q21 -5 47 -5q7 0 20 1t20 1q27 0 27 -32q0 -9 -8 -15z" />
    <glyph glyph-name="a" unicode="a" horiz-adv-x="744" 
d="M13 175v104l-13 168q-1 14 3.5 39t4.5 36q0 6 -2.5 19t-1.5 21q37 15 145 29q14 39 14 81q0 25 -5 45q9 17 30 27q7 3 40 13l89 40q13 6 18 6h30q32 -80 33 -182q12 -9 17 -9h91q6 0 17 -3t16 -3q2 0 11 4.5t14 4.5q37 0 53 -131q3 -21 11 -163l13 -143q8 -85 8 -144v-76
q0 -5 9 -26.5t9 -29.5q0 -9 -9 -18t-18 -9q-6 0 -17 4.5t-15 4.5q-19 0 -72 -5q-58 -5 -66 -9q-19 -9 -24 -9q-10 0 -31 21q0 43 -12.5 123.5t-13.5 119.5q-17 16 -37 16q-46 0 -46 -26q0 -44 17 -230q0 -25 -7 -41q-6 0 -16.5 1t-16.5 1q-38 0 -187 -27q-6 -1 -23 -8.5
t-23 -7.5q-16 0 -26.5 13.5t-10.5 29.5v78q0 38 -2.5 114t-2.5 114q0 17 5 23zM604 86v87q0 2 -5.5 14t-5.5 17q-12 148 -12 182v91q0 62 -29 80q-19 12 -80 12l-42 -3l-42 -3q-19 -1 -27 9t-5 30q1 7 1 43t-2 41q-3 22 -15 64q-47 -12 -62 -17q-41 -13 -56 -26
q-25 -22 -25 -102q1 -4 3 -19q2 -18 -2 -34q-39 -3 -92 -9q-21 -2 -32 -6q-24 -8 -30 -39q-2 -10 -2 -53q0 -16 3 -42q4 -32 5 -42q1 -19 -5 -115l-6 -92q0 21 7.5 -28.5t7.5 -57.5v-86q0 -119 16 -119h16q45 0 96 10q31 6 94 19q5 6 5 29q0 11 -4 31.5t-4 31.5
q0 102 -10 133q-5 16 -12 42q18 16 24 16q19 0 51 5l26 4q10 0 29.5 -2.5t29.5 -2.5q14 -8 23 -21q-3 -26 -3 -56q0 -101 32 -189q60 5 108 5q7 1 40 9l1 1q-1 22 -4 90zM398 309q-4 0 -13 1.5t-13 1.5q-79 0 -112 -21q-4 -2 -7 -2q-18 0 -40 78q-18 64 -18 85q0 6 1.5 16.5
t1.5 16.5q32 4 95 17q32 9 47 9q7 0 20 -1.5t20 -1.5l50 -182q-17 -17 -32 -17zM330 465q-87 0 -87 -36q0 -15 6 -45t12 -41q117 -1 117 21q0 30 -11 61q-14 40 -37 40z" />
    <glyph glyph-name="b" unicode="b" horiz-adv-x="701" 
d="M624 206v-95q0 -50 -2 -61q-7 -36 -37 -42q-22 -4 -65 -12q-49 -11 -49 -35q0 -17 7 -48.5t7 -46.5v-19l-9 -9h2l-3 -2q-7 -5 -13 -5q-8 0 -22.5 1.5t-22.5 1.5q-15 0 -45 -4t-45 -4h-92q-11 0 -33 -3t-33 -3q-71 0 -91 -4q-5 -1 -26 -8q-16 -5 -27 -5q-8 0 -16.5 12.5
t-8.5 21.5q0 4 10 41q-4 13 -4 16q0 89 -2 109l-1 10q0 14 6 59q4 29 -4 46q6 12 6 91v88q0 13 6 39t6 39l-3 275q-9 25 -9 32q0 6 5 18.5t5 19.5q0 4 -2 11.5t-2 11.5q0 28 29 28q5 0 11 -2l5 -3q4 0 13 2l30 7q41 10 65 12q160 16 208 16q-9 0 53 -5q11 -25 16.5 -79
t14.5 -78q32 4 69 10l56 9q13 0 35 -22q-12 -50 -12 -75v-138q0 6 9 -49q-24 -9 -51 -13l-52 -7q-42 -6 -42 -43q0 -62 12 -62q19 0 58 3t58 3q7 0 29 -23q-7 -21 -7 -28zM436 254q-1 47 -2 58q-3 34 -12 56q18 16 33 19q27 5 96 18q17 3 19 8q4 13 1 43q-6 73 -1 100
q6 31 6 43q0 4 -3 13h-28q-15 0 -50.5 -11.5t-51.5 -11.5q-26 0 -27 35l-2 84q-8 53 -50 52q-21 -1 -50 -2q-22 -1 -28 -1l-192 -25q-11 0 -23 -11q-17 -13 -21 -15v-777q0 -37 3 -69h116q18 0 52.5 4t52.5 4q5 0 15.5 -1.5t15.5 -1.5q13 0 39.5 6t39.5 6q5 0 15 -1.5
t15 -1.5q12 0 23 7q-6 37 -17 122q49 23 88 31q59 12 62 15q15 11 15 68v78q0 4 -5.5 10.5t-8.5 6.5q-18 0 -54.5 -3t-54.5 -3q-11 0 -22 10t-11 21q0 7 5 14zM339 373h-22q-9 0 -26.5 -5t-26.5 -5q-26 0 -58 -14q-7 -3 -14 -3q-19 0 -26 16q-11 25 -13 28v98
q0 15 -4.5 44.5t-4.5 44.5q0 28 14 41q80 -21 85 -21q15 0 93 6q8 -65 32 -225q-19 -5 -29 -5zM343 17q-10 0 -30.5 1.5t-30.5 1.5q-14 0 -45 6q-34 7 -38 13q0 72 -14 142q-4 20 -4 28q0 36 48 36q75 0 136 -20q-5 -50 -1 -112q6 -91 6 -72q0 -9 -8.5 -16.5t-18.5 -7.5z
M186 560v-51q0 -42 18 -111q115 5 115 36q0 123 -45 123h-76q-5 0 -12 3zM313 194q-25 12 -36 12q-54 0 -54 -22q0 -25 14 -110q19 -11 65 -11q12 0 20 1l3 20q0 40 -12 110z" />
    <glyph glyph-name="c" unicode="c" horiz-adv-x="739" 
d="M645 -52q-3 0 -7.5 1.5t-6.5 1.5t-66 -22q3 -76 16 -115q-70 -10 -160 -10q-47 0 -142 3.5t-142 3.5q-32 0 -32 25q0 8 4 17l1 5l1 76q0 22 -31 28q-26 1 -80 12v29q23 63 25 131l4 134q11 67 23 158q1 50 8 145q-1 18 -4 57q14 16 27 16q4 0 11 -1.5t11 -1.5q24 0 79 10
q7 14 24 116q4 25 18 25q3 0 9.5 -1.5t9.5 -1.5q18 0 54 7t54 7q20 0 41 -1l41 -2h26q11 -112 31 -112q-9 0 135 6q8 -8 19 -25q0 -30 5 -89.5t5 -89.5v-84q0 -2 4 -12.5t4 -15.5q0 -11 -18 -28q-6 0 -9 1l-3 1q-3 1 -6 1t-9 -1.5t-9 -1.5q-2 0 -11 2q-40 7 -47 7
q-14 0 -42 -4.5t-42 -4.5q-6 0 -17.5 -2.5t-17.5 -2.5q-11 0 -20.5 7.5t-9.5 17.5q0 4 1 7q5 9 5 54q0 59 -17 59q-13 0 -43.5 -8.5t-43.5 -14.5q-1 -31 -5 -87l-4 -55v-129q0 -9 -5 -62l-6 -63q1 -7 4 -45q5 0 18 1q17 1 26 1l31 1q7 0 27 2q17 1 27 1t10 44q0 75 -15 115
q17 17 30 17q4 0 11 -1.5t11 -1.5l170 -3q7 0 26 -19q-3 -31 -3 -62q0 -78 18 -154q-18 -19 -31 -19zM615 415q2 26 2 51q0 61 -4 107q-6 24 -16 68q-21 11 -27 11q-39 0 -66 -1q-4 0 -16.5 -8t-18.5 -8q-30 0 -30 28q0 7 2 23q3 12 1 15q-6 19 -23 54q-60 9 -73 9
q-12 0 -98 -18q-6 -9 -11 -83q-4 -61 -29 -61q-4 0 -12 2.5t-12 2.5q-11 0 -77 -9q-9 -12 -9 -17q-18 -176 -34 -379q-1 -27 -3.5 -96t-13.5 -88v-5q42 -17 51 -17q12 0 36 7q16 -27 16 -60q0 -9 -1.5 -25.5t-1.5 -25.5q0 -17 4 -32q16 -7 21 -7h143q11 0 32 -4t32 -4
q10 0 29 4t29 4h91v48q0 9 -5.5 27t-5.5 27q0 24 27 24q5 0 13.5 -1.5t13.5 -1.5q8 0 54 19l-6 115q-1 25 -5 46q-47 13 -58 13q-27 0 -90 -6q-9 -30 -9 -77q0 -27 14 -75q-5 -24 -27 -24q-9 0 -25.5 3t-25.5 3q-63 0 -111 -16q-12 -4 -15 -4q-10 0 -17.5 9.5t-6.5 20.5
l25 472q0 4 -2.5 15t-2.5 16q22 12 28 12q2 0 7 -1.5t8 -1.5q17 0 52.5 14t50.5 14q26 0 29 -52q2 -35 9 -96h62q20 0 54 11t42 11q4 0 10 -2z" />
    <glyph glyph-name="d" unicode="d" horiz-adv-x="759" 
d="M492 -152q9 -7 9 -17q0 -11 -9.5 -19.5t-20.5 -8.5q-8 0 -22.5 4t-22.5 4l-26 -1l-26 -1q-4 0 -13 2.5t-13 2.5q-9 0 -25.5 -2.5t-25.5 -2.5q-32 0 -96.5 2.5t-96.5 2.5q-8 0 -24 -1.5t-24 -1.5q-4 0 -13 -2.5t-14 -2.5q-10 0 -19.5 7.5t-9.5 16.5q0 10 3 30.5t3 30.5
v244q0 6 1 12l3 17q9 54 9 126q-1 44 -2 89q-2 67 0 124l3 93q1 14 3 45l2 36q2 29 -12 112q26 14 47 14l342 -3q29 4 50 -13t21 -46v-100q0 -10 4 -30t4 -30l1 -42q125 22 157 22q11 0 22.5 -10t11.5 -21q0 -6 -4 -19.5t-4 -20.5q-4 -115 -4 -174q0 -17 1.5 -52t1.5 -52
v-89q0 -13 5 -38l-2 -50q-1 -27 11 -60q-72 -24 -91 -24q-53 0 -95 -16v-87zM625 515q-3 1 -6 1q-64 0 -94 -6q-55 -22 -65 -22t-18 10.5t-8 21.5q0 9 5.5 26.5t5.5 26.5q-1 14 -11 160q-3 10 -11 21q-46 10 -103 9q-22 0 -34 -1l-17 -1q-5 0 -15.5 -3t-15.5 -3q-9 0 -26 4
t-26 4q-3 0 -24 -4q-41 -7 -79 -2q-6 1 -24 -6q0 -25 -3 -302q-2 -178 -14 -357l6 -235q15 -6 24 -6q7 0 20 1.5t20 1.5q10 0 30.5 -3t30.5 -3q12 0 36 4.5t36 4.5q9 0 27.5 -3t27.5 -3t28 3t28 3q4 0 24 -3l13 -2q3 -1 7 -1q33 0 53 8v66q-6 23 -6 35q0 27 24 27
q3 0 9.5 -1.5t9.5 -1.5q108 0 136 27l-1 217q0 143 2 285zM367 36q-1 0 -5 1l-34 8q-34 8 -42 8t-25 -1.5t-25 -1.5q-30 0 -38 15q-2 192 -3 232q-3 120 -12 196q11 16 33 20q6 1 40 3q72 17 89 17q5 0 28 -17q0 -13 7 -99l5 -65v-74l9 -181q1 -14 -7 -36q-8 -25 -20 -25z
M232 470q-1 -13 -1 -31v-124q0 -111 8 -219q7 -6 63 -6q9 0 23 1t22 0q5 13 5 16l-3 147q-1 51 -10 181l-2 34q-3 22 -18 22q-12 0 -39.5 -11.5t-40.5 -11.5q-3 0 -7 2z" />
    <glyph glyph-name="e" unicode="e" horiz-adv-x="663" 
d="M550 -161q-53 0 -115 -4q0 -6 -36 -12q-32 -5 -49 -5q-4 0 -12 3t-11 3q22 0 -27.5 -4.5t-54.5 -4.5q-24 0 -73 3t-73 3q-8 0 -31.5 -9t-34.5 -9q-10 0 -21.5 9.5t-11.5 19.5q0 7 7 16l3 3q-2 19 -3 49q0 7 2.5 20t2.5 19v76q0 108 2 117q1 5 -2 10v408q5 20 8 143
q3 110 25 110q13 0 17 -11l2 -2q0 -2 8 -2q30 0 90 4.5t90 4.5q91 0 119 -1l56 -2q4 0 30 6q8 3 15 -8q2 -4 11 -19q-1 -12 -1 -26q0 -19 4 -56t4 -56q0 -22 -17 -118q-54 -1 -182 -19v-53q0 -24 18 -24q6 0 18 3t18 3h84q1 0 14.5 7.5t18.5 7.5q23 0 24 -65q1 -60 7 -160
q-70 -14 -73 -14q-105 0 -129 -15v-69q0 -9 5 -21l248 6q31 1 31 -33v-4q-1 -3 -1 -4v-77q0 -18 6 -66q7 -56 12 -64q-24 -17 -42 -17zM529 46q-5 18 -33 18q-19 0 -189 -7q-2 0 -10 -5.5t-14 -5.5q-17 0 -38 19q11 72 5 93q-10 36 -10 59q0 26 27 26q8 0 24 -3t24 -3
q19 0 63 5q54 6 68 15l3 63v67q-6 -1 -76 0q-12 0 -35 -4.5t-35 -4.5q-4 0 -13.5 -3t-13.5 -3q-11 0 -21 9.5t-10 20.5q0 5 4 13t4 10q-1 31 -1 79q-10 20 -10 22q0 13 10.5 22t23.5 9l25 -5q20 -4 23 -4q73 0 98 17q31 21 31 90q0 57 -10 74q-13 22 -73 27q-13 1 -85 1
q-4 0 -62 -5q-35 -3 -62 1l-106 -14v-332q0 -150 -7 -315l-2 -47q-1 -17 5 -94l7 -94q87 7 166 7q10 0 27 -3l11 -2q3 -1 6 -1l99 3q14 0 41.5 10.5t42.5 10.5q5 0 14.5 -1.5t14.5 -1.5q27 0 57 12q-1 30 -1 51t1 32q-1 24 -8 72z" />
    <glyph glyph-name="f" unicode="f" horiz-adv-x="581" 
d="M309 518q-9 -19 -8 -67q10 -4 44.5 -11.5t42.5 -7.5q9 0 20 6q16 -26 16 -97v-106l12 -24q-23 -17 -77 -20q-42 -2 -58 -14q10 -104 24 -287q1 -2 9 -2q1 -5 1 -9q0 -11 -8.5 -22.5t-18.5 -11.5q-4 0 -10.5 1.5t-10.5 1.5q-22 0 -130 -20q-33 -2 -94 -8l-11 -9
q-12 -8 -19 -8q-6 0 -27 10q0 7 -3 20t-3 20t4 22.5t4 22.5q4 107 4 138v110q0 14 1 37q2 27 2 36q2 64 -3 88q-1 23 1 97q0 8 6 43q4 24 4 43q0 65 -10 99q-7 23 4 73q3 16 -3 43q-8 31 -8 42q0 7 9 17t16 11q47 1 135 5q22 1 71 11q46 9 71 9q10 0 30.5 -3t30.5 -3
q9 0 25.5 4.5t25.5 4.5h72q9 -28 22 -85q13 -96 13 -147v-40q-40 7 -75 7q-51 0 -143 -20zM286 -107l1 3q1 5 1 6q0 44 -19 225q-1 10 -9 34q-7 21 -7 34q0 28 19 28q4 0 9 -1q48 5 106 17q-1 13 1.5 37t2.5 34q0 54 -15 72.5t-68 18.5q-4 0 -11.5 -1.5t-10.5 -1.5
q-11 0 -31 19q8 96 8 85q0 22 -6 50q42 16 112 21q98 8 115 11v69q-7 63 -9 68q-11 38 -47 38q-12 0 -31 -3q-23 -3 -31 -3l-283 -18q-10 -1 -28 -9q0 -19 -3 -65l-3 -46q0 6 6 -57l5 -56q0 -11 -3 -50q1 -6 -1 -12q0 -60 -2 -142l-3 -4v-136q-1 -7 -1 -180v-77q0 -48 1 -41
q113 7 235 33z" />
    <glyph glyph-name="g" unicode="g" horiz-adv-x="775" 
d="M417 478q38 0 116 4l60 3q33 1 57 2q16 -36 20 -108q1 -16 2 -111q2 -163 25 -203q-11 -21 -42 -21q-4 0 -12.5 3t-12.5 3q-20 0 -20 -6q0 -14 15.5 -76t22.5 -75q-17 -18 -31 -18q-2 0 -6.5 1.5t-6.5 1.5q-1 -1 -9 -2l-24 -4q-180 -30 -213 -30q-7 0 -20 1.5t-20 1.5
q-36 0 -112 -19q-6 -1 -35 -13q-25 -10 -31 -10q-41 0 -42 64q0 12 2.5 35.5t2.5 34.5v118q0 16 -68 16l-11 1q-7 0 -10 3q-14 12 -14 37q0 9 4.5 25.5t5.5 23.5q2 25 2 74v112q1 6 9 34q-1 9 -1 35q0 27 1 71q-3 10 -13 49q-2 7 -2 11q0 26 24 26q4 0 13 -1.5t13 -1.5
q11 0 69 14q5 13 5 26q0 20 -6 66q-8 60 -17 80q24 22 38 23l339 24q4 0 15 -3t16 -3q12 0 35.5 3t35.5 3q40 0 45 -70q1 -33 2 -99l12 -72q-15 -13 -41 -11l-49 3q-20 1 -93 -11t-86 -26.5t-12 -86.5q1 -77 0 -89q-3 -35 -11 -92l-6 -43l-3 -21q0 -23 27 -23h21q55 0 52 59
q-2 29 -6 88l-4 1h-11q-1 -1 -1 -2l-3 -2q-9 -8 -16 -8q-13 0 -23.5 14t-10.5 28q0 -16 6 55q4 49 0 70q9 19 29 19q8 0 13 -6zM638 196q0 4 -1 9l-3 16q-5 24 -4 38q6 149 -7 178q-4 9 -13 10h-17q-10 0 -31 -4.5t-31 -4.5h-91l-17 -5q-5 -20 -5 -41q0 -19 4 -39h17l2 1
l2 2q9 6 16 6q11 0 23.5 -9t12.5 -20q0 -18 -20 -107l-4 -16v-71q0 -29 -26 -29q-8 0 -25.5 6t-24.5 6q-11 0 -33 -3t-33 -3q-31 0 -31 35q0 28 12.5 79.5t13.5 76.5q3 69 9 217q-3 8 -6 18q5 18 25 25q9 1 37 5l200 23q5 1 5 3v102q0 56 -48 56q-213 0 -365 -21
q-9 -1 -22 -15q6 -52 9 -102q1 -25 -3 -50q-7 -38 -24 -38q-4 0 -16 5l-10 4q-2 0 -62 -16v-349q0 -7 -3.5 -19.5t-3.5 -18.5q0 -24 37 -24q31 0 44 -5q22 -9 22 -36q0 -7 -4 -20.5t-4 -19.5v-82q0 -73 14 -87l142 23h74q7 0 19.5 1.5t19.5 1.5q29 0 102 13q17 3 50 8
q29 8 29 32q0 20 -13.5 62t-13.5 62q0 35 29 35q6 0 15 -4l9 -5q5 0 21 2v103z" />
    <glyph glyph-name="h" unicode="h" horiz-adv-x="791" 
d="M662 -190q-5 0 -14.5 3.5t-14.5 3.5q-13 0 -38 -5t-38 -5q-23 0 -68 -2t-68 -2q-11 0 -21 11.5t-10 22.5q0 6 5 14.5t5 10.5v129q0 19 6.5 57.5t6.5 58.5q0 11 -1 14q-15 1 -28 1q-63 0 -81 -26q-13 -18 -13 -98q0 -3 14 -191q-6 0 -17.5 -2t-17.5 -2q-5 0 -12 3.5
t-9 3.5q-16 0 -65 3l-66 4q-13 1 -40.5 -4.5t-40.5 -5.5q-10 0 -23 9t-13 19q1 4 8 25q29 178 32 463q0 40 10 176q8 114 7 176q-1 60 0 71q4 48 27 58q22 -11 46 -11q54 0 149 -5q6 -10 23 -27q-13 -30 -12 -68l11 -298q22 7 107 31q19 6 24 14.5t4 29.5q-1 8 -2 31
q-1 38 3 103q4 75 4 104q0 13 -7 40q102 7 226 26q5 -9 16 -26q-4 -31 -4 -68q0 -44 7 -118q9 -88 11 -117q2 -34 -1 -162l-3 -141q0 -22 2 -95q5 -155 6 -215q-11 -22 -32 -22zM99 745l-4 -137q-1 -43 -4 -69l-5 -47q0 -13 -3.5 -38.5t-3.5 -38.5v-106q0 -36 -9 -215
q-3 -60 -12 -127l-9 -67q0 -3 9 -37q65 -5 110 -5q8 0 25 1t25 1q30 0 36 1l-2 207q0 9 -2.5 27.5t-2.5 28.5q0 31 19 36q27 -7 40 -7q20 0 60 10t60 10q33 0 33 -36q0 44 -10 -81t-10 -143q0 -56 -1 -53q1 -2 21 -2q137 0 183 5q6 33 6 45v537q0 17 -6.5 50t-6.5 50v100
q0 47 -11 77q-131 -4 -148 -31q-3 -104 -3 -192q0 -53 1 -100l-1 -2q-7 -14 -19 -14q-3 0 -8 2t-7 2q-7 0 -50 -12q-50 -14 -77 -25q-23 -20 -31 -20q-34 0 -32 94q0 15 3 51q3 32 3 50q-1 140 -11 210q-69 15 -94 15q-7 0 -21.5 -3.5t-21.5 -3.5q-4 0 -8 2z" />
    <glyph glyph-name="i" unicode="i" horiz-adv-x="411" 
d="M309 465q-5 0 -18.5 7t-18.5 8q-47 5 -138 19q-115 18 -115 47q2 10 11 57l17 85q3 16 1 47q-3 39 -2 48q15 20 55 20q6 0 15 -6t13 -7q96 -23 144 -23q-4 0 40 7q15 -17 17 -34v-38q0 -35 3 -104.5t3 -104.5q0 -10 -8.5 -19t-18.5 -9zM294 -180q-2 -3 -8 -18
q-115 28 -168 28q-14 0 -41.5 -3.5t-41.5 -3.5q-35 0 -35 35q0 9 8 17l2 2q2 2 8 98q3 43 0 112q-4 90 -4 113q0 13 4 50l4 37v85q8 23 53 23q26 0 77.5 -7t77.5 -7l32 4q16 -7 16 -30q0 -5 -2 -23.5t-1 -25.5q15 -77 10 -133q-3 -34 -3 -62v-137q0 -30 7.5 -89t7.5 -50
q0 -7 -3 -15zM170 745q-24 4 -51 8q-16 -16 -25 -16t-18 9q10 -20 -2 -100l-7 -46l-3 -21q0 -29 87 -46q62 -12 118 -12q26 0 26 66v18q-1 10 -1 16q0 135 2 60q-1 29 -22 42q-14 8 -104 22zM246 264q0 3 -17 71q-86 13 -140 13q-38 0 -38 -155v-258q0 -10 3 -28.5t3 -28.5
q45 -8 76 -8q9 0 27 1.5t27 1.5q15 0 45 -12q1 -1 3 -1h11v404z" />
    <glyph glyph-name="j" unicode="j" horiz-adv-x="827" 
d="M686.5 32.5q-18.5 -1.5 -35.5 -2.5q-26 -4 -26 -28q0 -23 12 -60t12 -40q0 -12 -69 -28q-60 -14 -72 -14h-22l-151 -27q-73 5 -121 -20q-19 -10 -22 -10q-13 0 -34 16l-16 110l-7 1l-8 2q-3 0 -6 1q-21 0 -59 -7q-11 -9 -21 -9q-31 0 -31 48v89q0 34 -5 102t-5 102
q0 18 15.5 41.5t32.5 23.5q11 0 32 -3.5t32 -3.5q-1 0 52 2l53 2q6 0 19 5t20 5q11 0 28 -8q0 -5 2 -15t2 -15q0 -10 -8 -78l-9 -77q0 -26 2 -32q3 -9 17 -9h32q6 0 97 19q3 22 8 64l-6 402q-10 90 -10 84q0 7 3 21.5t3 21.5t-8 20.5t-8 19.5q0 15 15 24q12 8 28 8
q9 0 25.5 -3.5t25.5 -3.5q30 0 92 11q23 3 83 14l34 6q9 -10 9 -25v-307l32 -418q-11 -12 -25.5 -16t-33 -5.5zM670 748q-8 2 -10 2t-31 -6q-24 -5 -167 -21q-3 -6 -6 -32.5t-3 -35.5l17 -320l-3 -246q3 -32 -32 -32q-6 0 -17.5 3t-17.5 3q-26 0 -76 -11.5t-76 -11.5
q-12 0 -22.5 14.5t-10.5 27.5q0 7 6 17l6 10q15 138 15 148q0 19 -27 20h-20l-139 -7q-1 -21 -9 -47q0 -2 -1 -5v-163q0 -12 3 -42q4 -40 10 -40q11 0 34 1.5t34 1.5q6 0 33 19q13 -10 39 -27q-13 -23 -13 -39q0 -11 8.5 -34t9.5 -33l52 10q42 8 45 8t8.5 -2t8.5 -2
q16 0 117 16q120 19 157 34q-4 44 -11 92q-11 18 -11 24q0 31 29 31q8 0 15 -5l2 -1l1 -1q45 0 63 13q22 16 19 59l-27 393q-2 32 -1 54q1 17 3 32l2 14v88q0 9 -6 29z" />
    <glyph glyph-name="k" unicode="k" horiz-adv-x="784" 
d="M701 719q7 -32 7 -71q0 -21 -8 -104q-4 -37 -4 -65q-1 -39 8 -65q-23 -17 -80 -17q-4 0 -12 1.5t-12 1.5q-25 0 -29 -4q-1 -74 9 -92q4 -7 50 -20t58 -27q-22 -78 -26 -200l-7 -203q-15 -16 -33 -16q-3 0 -8.5 1.5t-8.5 1.5q-8 -1 -37 -6q-47 -8 -100 -14
q-7 -1 -25.5 -9.5t-24.5 -8.5q-13 0 -24.5 9t-10.5 22l25 387q1 13 -2 22l-67 3q-17 1 -60 -15q-2 -30 -5 -59l-5 -42q0 -27 8 -125q9 -103 14 -115q-8 -22 -59 -18q-90 7 -149 7q-9 0 -25.5 -5t-25.5 -5q-10 0 -21 8.5t-11 18.5q0 14 21 98q6 25 6 37q-1 32 4 75
q7 60 17 62h3v449l6 4q8 88 8 105l-6 10q-6 10 -6 15q0 33 71 40q19 1 67 4q73 5 56 5q15 0 59 -1v-256q0 -29 9 -29q10 0 77 17q13 1 35 4q30 4 30 37q0 6 -4 17.5t-4 17.5v180l10 9h-2l4 2q7 5 15 5q6 0 17 -3t17 -3q4 0 11.5 1.5t11.5 1.5q35 0 97 -15q82 -20 82 -43
q0 -4 -4 -11t-7 -12zM69 199v-98q0 -46 -17 -175q59 -9 56 -9h68q53 0 58.5 7t5.5 63q0 66 -13 86v200q36 15 155 15q6 0 23.5 8t25.5 8q11 0 18.5 -10t6.5 -21l-28 -341l1 -71h15q20 0 82 12t81 20q4 25 17 108q3 19 3 24v192q0 10 9 12l3 1q-1 -1 -5 5q-14 8 -38 13
q-33 7 -39 9q-27 9 -26 26q5 71 0 89l-14 51q0 9 10 18.5t19 9.5t26.5 -3t26.5 -3q22 0 49 5l11 102q8 74 8 80t-5 43l-8 60q-53 20 -119 20q-23 0 -39 -2q-9 -102 -9 -93q0 -59 17 -151q-33 -9 -81 -17l-70 -11q-7 -1 -29.5 -11t-28.5 -10q-16 0 -34 19q6 11 7 30
q1 15 0 30q-2 28 -2 30q0 15 2 42t2 39q2 101 -16 102q-87 3 -112 -4q-9 -4 -30 -9q-13 -61 -17 -167q-4 -118 -13 -167q4 -46 3 -91q-1 -20 -7 -64l-6 -41q0 -7 -3 -10z" />
    <glyph glyph-name="l" unicode="l" horiz-adv-x="601" 
d="M9 -142q-3 6 -6 14q16 23 16 33q0 79 21 253q25 206 33 308q12 151 16 302l29 15q15 0 28 -26q-16 -32 -24 -93q-2 -19 -7 -99q-10 -3 -39 -8l-1 -625l-12 -5q-7 -29 -7 -50q0 -12 4 -19q68 6 92 6q13 0 38.5 -3t38.5 -3q98 0 245 28q0 11 -2 39l-2 28v122h-6
q-53 0 -111 -10l-58 -10q-11 0 -19.5 10.5t-8.5 21.5q0 10 6 36q4 16 -2 23q10 128 12 302q0 56 2 214q13 67 13 73q0 18 -12 21h-24q-18 0 -47 -5q-42 -7 -55 -19l-8 8l-3 2q-15 10 -15 40q12 17 75 17q40 0 135 5q-2 -38 -18 -132q-11 -65 -2 -110l-11 -438q0 -15 13 -15
q30 0 80 7l100 14q0 -16 15 -23l-11 -58v-121q0 9 25 -81q-10 -8 -31 -16l-249 -17q-17 -1 -60 1l-65 3q-24 0 -78 -12q-9 -2 -14 -2q-2 0 -21 3h-13q0 5 -2 15t-2 15q0 13 9 21z" />
    <glyph glyph-name="m" unicode="m" horiz-adv-x="1111" 
d="M1015 555l4 -2q5 -13 5 -22t-5 -12v-304l-6 -4q0 -1 -3 -67q-1 -37 -9 -66q0 -71 1 -217q-38 -13 -147 -29q-13 -2 -42 -14q-7 -3 -12 -3q-21 0 -28 35q-2 10 -4 51q-3 61 -3 79q0 16 1 69l2 112q0 29 -8 36q-16 15 -38 15q-12 0 -15 -21q-1 -5 0 -50q0 -20 3 -64.5
t3 -67.5l-72 8l-214 -21q-25 0 -32 71q-1 12 -6 79q-8 9 -31 18t-36 9q-10 0 -11 -5q-1 -1 -1 -14q0 -14 4 -40.5t4 -40.5q0 -19 9 -110l8 -81q0 -4 -2 -12t-2 -12q-15 -5 -23 -4q-7 1 -19 3q-38 0 -183 -31q-8 -2 -37 -12.5t-33 -10.5q-12 0 -24.5 11t-12.5 23q0 8 5 15
l3 4q-2 16 -1 46q18 66 21 205l2 65q2 110 7 214q7 159 6 216q2 17 2 42q0 19 -1 43q-2 10 -1 30q8 12 22 20q45 3 163 16l101 11q19 0 28 -22q-12 -71 -12 -105q0 -25 3 -28.5t27 -3.5l13 1t28 1l41 1q24 1 56 -13v-35q-5 -8 -14.5 -56.5t-9.5 -62.5q0 -29 92 -29h11
q3 20 11 76q5 42 -2 103q14 14 27 14q-8 0 7.5 -2t26.5 -3q13 -1 65 2q19 4 19 20q0 7 -3 18v141q16 16 31 16q39 0 78 -1l77 -2q8 1 29 4l19 3q13 2 12 2q21 0 28 -47q1 -15 3 -47q2 -21 2 -22q-1 -13 -7 -24v-108zM975 747q-5 3 -7 3h-78q-8 0 -25 1.5t-25 1.5t-24 -3
l-26 -5q1 -67 -7 -169q-4 -18 -18 -18q-5 0 -13.5 1.5t-13.5 1.5q-11 0 -93 -12q-1 -36 -3 -134q-1 -53 -26 -53q-19 0 -78 9q-72 11 -87 22q15 135 15 157q0 14 -20 14t-60 -4.5t-60 -4.5q-14 0 -35 20q19 86 19 108v24q-41 8 -145 -4q-18 -2 -38 -3q-27 -4 -34 -14t-5 -37
v-21q-1 -49 -7 -186q-17 -293 -20 -547q-4 -8 -11 -26q59 5 89 5q6 0 18 3t18 3q12 0 105 23q1 2 9 24q-3 52 -1 65q-3 13 -6 99q-2 61 -28 92q19 34 33 34q21 0 77 -14q72 -18 76 -41q-6 -29 -6 -54q0 -36 13 -63h78q23 0 70 7q52 8 72 9q3 6 4 12v97q0 43 -3 68
q16 18 29 18q84 0 117 -35v-160q0 -19 -2 -57.5t-2 -57.5q0 -53 10 -77q106 13 136 29q5 59 18 380q3 67 9 150l7 93q2 32 2 64q0 82 -17 162z" />
    <glyph glyph-name="n" unicode="n" horiz-adv-x="976" 
d="M790 -65q-17 -4 -47 -13q-58 -29 -61 -29q-9 0 -20.5 7.5t-12.5 15.5q0 1 -9 116q-6 71 -17 112q-119 -9 -143 -29q-19 -16 -26 -16q-32 0 -42 31q-2 7 -4 56q-1 34 -13 50.5t-45 16.5q-9 0 -27 -7q19 -81 53 -346q1 -4 6.5 -16t5.5 -19q0 -30 -29 -30q-4 0 -11 2t-11 2
q13 0 14 -2q0 -2 -28 -7q-145 -27 -206 -27q-10 0 -26 7q-10 52 -28 161q-4 77 -19 231q-10 28 -24 87q-5 42 -5 172q0 -27 -7 215q0 8 -4 23.5t-4 23.5q0 6 15 31q53 -4 147 15q124 25 149 28q13 -14 14 -56q-1 6 -2 -61l-1 -55q0 -24 13 -24q1 0 55 3l54 3q31 2 36 -102
q0 -16 1.5 -47t11.5 -36l38 -3q23 -2 35 -2q38 0 37 37l-3 166q-16 106 -16 119q0 15 11.5 25t26.5 10q11 0 34 -3t34 -3q25 0 97 29l10 4q5 2 8 2q42 0 42 -84l28 -209v-408l8 -2q1 -28 6 -84q9 -36 9 -38q-13 -8 -34 -16.5t-74 -26.5zM839 500q6 -2 6 -10q-33 8 -33 65v25
q0 6 1 14v8q0 41 -3 59q-3 17 0 38q-3 15 -5 29q-6 20 -16 20q-22 0 -68 -10l-48 -8q-39 -8 -40 -17q-3 -20 4 -72q1 -8 1 -14v-137q0 -10 3 -29t3 -28q2 -58 -30 -58q-13 0 -37.5 1.5t-37.5 1.5q-10 0 -29.5 -4.5t-29.5 -4.5q-33 0 -33 32q0 4 1.5 11.5t1.5 11.5
q-6 56 -10.5 95.5t-16.5 39.5q-59 0 -71 -2q-5 0 -16 -5.5t-17 -5.5q-33 0 -34 35l-3 159q-121 -3 -229 -37q-7 -17 -5 -48l7 -136v-106q0 -127 -1 -70q1 -30 15.5 -60t14.5 -36v-39q12 -92 18 -184q10 -172 47 -172h39q24 0 73.5 13t71.5 25q-2 82 -14 173q-16 121 -42 168
q-11 20 -11 24q0 31 66 38q24 2 87 6q13 -18 18 -43q1 -13 6 -46q7 -46 40 -46q6 0 78 17l51 12q26 6 28 6h23q2 -13 14 -140q6 -68 19 -107l86 24q57 21 57 54v470z" />
    <glyph glyph-name="o" unicode="o" horiz-adv-x="837" 
d="M680 -2q-35 -9 -46 -21q-3 -59 7 -114q-16 -18 -28 -18q-4 0 -12 1.5t-12 1.5q-63 0 -187 -22.5t-187 -22.5q-5 0 -14.5 3.5t-14.5 3.5q-5 13 -5 29q1 36 0 68q-1 40 -22 40q-14 -1 -62 -6l-70 -7q-19 16 -19 79v14q-1 14 -1 27v55q0 -7 2 80q1 61 1 106q-1 56 -3 215
q0 11 -3.5 32.5t-3.5 32.5q0 30 26 30q3 0 8 -2t8 -2q12 0 69 15q11 0 29 8v20q0 26 -17 146l388 7q4 0 13 3t14 3q16 0 24 -14q3 -17 3 -40q0 -42 2 -57q4 -29 18 -55q3 -4 31 -4q16 0 48 2t48 2q33 0 33 -34q0 -12 -7 -56t-5 -52l6 -212q19 -144 19 -183v-82
q-9 -2 -78 -20zM170 731v-19q0 -18 9 -53t9 -53q0 -11 -9 -22.5t-20 -11.5q-5 0 -15 3.5t-15 3.5q-10 0 -78 -15q-10 -61 -9 -96l13 -479l11 -1h60q13 0 39.5 2.5t39.5 2.5q15 -31 18 -106q1 -23 14 -30q9 -5 34 -5q4 0 23 4q72 15 87 18q50 9 88 11l85 5q4 0 35 8
q5 38 5 62q0 7 -2.5 21t-2.5 21q0 18 15 28q56 7 64 9q40 10 48 39q4 14 0 66l-19 250v145q0 9 9 45q-14 4 -53 4q-11 0 -32 -3t-32 -3q-20 0 -44 12q-2 29 -25 149q-8 15 -57 15q-13 0 -37 -5t-36 -5l-197 -4q-4 -6 -15 -17zM245 492l-1 1q-8 5 -8 15q0 46 65 46h13
q7 -1 11 -1q41 0 145 -7q3 -67 10 -154q0 -4 13 -120q10 -90 9 -125q0 -9 5.5 -26t5.5 -26q0 -26 -27 -26q-7 0 -22 1t-22 1q-26 0 -78.5 -9t-78.5 -9q-20 0 -36 28q6 54 3 157q-3 118 -4 112q1 26 -1 71q-2 51 -2 71zM425 503q0 8 -49 8q-68 0 -92 -18v-217q0 -25 5 -71
q7 -62 16 -93q11 -4 28 -4q41 0 127 13q5 16 5 28q0 86 -40 354z" />
    <glyph glyph-name="p" unicode="p" horiz-adv-x="766" 
d="M710 580q-3 -24 -11 -92q0 -17 2 -110q-2 -16 -6 -52q-3 -32 8 -67q-51 -6 -81 -11q-50 -8 -50 -24q0 -38 13 -103q-13 -14 -28 -14q-3 0 -9.5 1.5t-9.5 1.5q-18 0 -109 -20q-86 -19 -114 -27q3 -15 8 -45q0 -122 22 -149v-30q-21 -1 -186 -21l-127 -15q-13 0 -32 20
l26 473q7 127 7 225q0 145 -14 242q16 21 27 21q10 0 17 -7q87 26 257 26q8 0 25 -4.5t26 -4.5l159 6q28 1 28 -54q0 -14 -3 -42t-3 -42q0 -20 11 -20q30 0 78 14q40 12 54 19q22 -31 15 -95zM61 724l2 -1q-10 -114 -10 -99v-656q0 -12 -12 -12h-3q1 -1 4 -13q2 -31 3 -62
q0 -8 10 -23l10 -2q10 -2 11 -2q-7 0 60 10l40 6q20 3 24 3q5 0 15.5 -1.5t15.5 -1.5q40 0 60 9q-2 59 -14 175q-1 4 -7 15t-6 18q0 11 12.5 22t23.5 11q4 0 11 -1.5t11 -1.5q70 0 213 45q-1 3 -12 73q-2 12 -2 16q0 24 43 32q24 5 84 17q2 5 10 68l4 4v78q-2 24 -1 52
q0 8 1 22t1 11v79q-99 -23 -120 -23q-12 0 -21 37q-6 23 -8 46q-1 10 -3 73q-29 8 -46 8t-36 -1l-37 -2q1 0 -53 3l-55 3q-36 2 -115 -7q-6 -1 -56 -15l-28 -8q-11 -3 -17 -5q-4 0 -7 1zM378 281q-47 -3 -70 -3q-7 0 -19.5 -2t-19.5 -2q-15 0 -27.5 11t-12.5 26q0 6 5.5 18
t5.5 18q8 69 8 119v87q13 13 25 13q7 0 15 -6l1 -1l2 -1q6 -5 103 -5q8 0 25 1.5t25 1.5q25 0 26 -23q4 -95 4 -219q0 -30 -24.5 -30t-71.5 -3zM423 502q-11 13 -89 13q-14 0 -45 -11l-12 -165q-1 -11 9 -14q4 -1 20 -1q44 1 113 8q11 33 11 96q0 66 -7 74z" />
    <glyph glyph-name="q" unicode="q" horiz-adv-x="848" 
d="M746 -125q-18 -15 -33 -15q-5 0 -16 1.5t-16 1.5l-309 -47q-30 0 -47 1l-34 2q-18 1 -130 -17q-10 18 -12 39q-1 11 0 37q1 31 1 39q-2 52 -58 52q-7 0 -20 -1.5t-20 -1.5q-31 0 -36 2q-16 6 -16 33q0 -55 11 81.5t11 152.5v259q0 2 5 13q2 4 10 55q3 19 3 23q0 5 -16 29
q10 36 37 36q6 0 16.5 -3.5t16.5 -3.5q90 0 90 28q0 32 -13 73q30 15 108 15q-28 0 204 21q21 2 81 8q6 1 22 8t23 7q37 0 37 -32q0 -6 -5 -26q-6 -24 -7 -27q-5 -29 -5 -36q0 -51 8 -67q13 -25 62 -25q4 0 11.5 1.5t11.5 1.5q12 0 23.5 -12t11.5 -24q0 -6 -6 -21.5
t-6 -17.5l12 -495q0 -12 -4 -64zM706 334q-1 53 -4 202q-3 6 -22 11t-29 5q-2 0 -8.5 -3.5t-11.5 -3.5q-16 0 -36 21q1 36 -1 70l-4 69q0 22 3 41q-5 1 -9 3l-270 -35q-6 -1 -90 -4q-3 -4 -3 -17q0 -7 1.5 -20t1.5 -20q0 -24 -12 -41q-64 0 -131 -9q-11 -71 -17 -119
q-2 -18 -7 -213l-6 -247q0 -2 1 -6l2 -4q26 -3 20 -3q15 0 44.5 4.5t44.5 4.5q31 -78 28 -163q38 -4 62 0q41 7 36 7h120l204 34q8 3 52 7q30 3 34 21q15 64 14 103zM525 185q-67 0 -76 -2q-37 -8 -37 -52q0 4 19 -82l-32 -14q1 0 -18 1q-22 1 -46 1l-64 1q-27 0 -25 56
l6 181q1 22 -2 74q-1 11 -9 77q-4 31 -4 46q0 5 13 33h22q7 0 17 -6l10 -6h128q44 0 66 10l3 1q3 1 5 2q14 0 31 -30q20 -231 20 -264q0 -10 -8.5 -18.5t-18.5 -8.5zM496 415q-2 15 -19 33l-28 3q-13 0 -39 -3t-39 -3q-6 0 -18 3t-18 3q-39 0 -51 -10v-332q0 -15 20 -25
q16 -8 33 -8q13 0 36 8q-1 35 -1 57t1 30q-5 17 -5 30q0 29 23 29q7 0 20 -3t20 -3q14 0 71 14q2 7 2 20q0 88 -8 157z" />
    <glyph glyph-name="r" unicode="r" horiz-adv-x="813" 
d="M329 -115q8 -12 8 -19v-27l-9 -9h1l-3 -3q-8 -4 -16 -4q-7 0 -21.5 4.5t-20.5 4.5q-21 0 -61 -9.5t-61 -9.5q-7 0 -20 1.5t-20 1.5q-30 0 -61 -10q-9 -3 -16 -3q-8 0 -16 8l-3 3l62 937q1 15 39 26q4 0 11.5 -3t10.5 -3l214 22q8 0 107 8q25 2 115 2q10 0 18 -11t8 -21
t-8 -33t-8 -32q0 -44 12 -95q40 -5 76 -5q5 0 20 6.5t22 6.5q12 0 22 -22q8 -18 8 -33q0 -23 -8 -69.5t-8 -69.5l5 -36q4 -29 4 -59q-25 -5 -60 -5h-14q-9 1 -12 1q-29 0 -29 -44q0 -36 7 -45q45 -6 57 -9q39 -10 39 -32q0 -5 -11 -144q-7 -89 8 -183q-4 -4 -23.5 -10.5
t-25.5 -6.5t-17 -1.5t-16 -1.5q-136 0 -155 -9q-22 -10 -25 -11q-37 0 -37 31q0 6 5.5 17t6.5 15.5t1 16.5q0 51 -6 157q-15 6 -49 6q-51 0 -51 -34q0 -90 4 -153zM419 118l1 1q8 8 17 8q30 0 32 -104l3 -135h127q-5 0 63 12q9 84 9 125v139q0 24 -46 24q-4 0 -10.5 -1.5
t-10.5 -1.5q-17 0 -39 35v125q18 23 28 22q12 -4 22 -4q20 0 68 14l3 55q-2 20 3 54q5 40 5 55q0 23 -10 23q-6 0 -16.5 -2t-16.5 -2q-9 0 -26 3.5t-26 3.5q-3 0 -14.5 -5t-17.5 -5q-8 0 -16 12.5t-9 21.5q3 21 1 53q-1 21 -4 111q-48 6 -59 6q-50 0 -348 -37q-5 -4 -19 -13
q-12 -49 -17 -148q-1 -24 -11 -88q-8 -56 -8 -87t-3 -94t-3 -95v-96q0 -45 -5 -120q-6 -90 -7 -121q47 0 70 1l46 2q-17 0 23 6q28 4 56 7q31 0 29 9v36q0 104 2 112q-15 40 -15 51q0 31 32 31q5 0 14 -3t13 -3q15 0 45 3.5t45 3.5zM347 348q-39 -4 -59 -27q-21 22 -21 112
v87q0 1 -5 9.5t-5 14.5q0 32 132 41q25 2 40 6q24 -28 19 -48q-4 -15 -4 -38q0 -30 23 -138q-20 -7 -120 -19zM415 404l3 12q0 23 -7 59q-9 47 -10 59q-12 7 -22 7q-51 0 -64 -18q-9 -13 -9 -62v-66q29 -3 23 -3q26 0 86 12z" />
    <glyph glyph-name="s" unicode="s" horiz-adv-x="864" 
d="M605 -156q-2 0 -54 3l-52 3h-26l-286 -34q-20 0 -60 -6.5t-60 -6.5q-12 0 -23.5 9.5t-11.5 21.5q0 7 5 12l1 2q8 9 8 145q0 17 -5 35q32 31 192 31l190 18q35 -2 35 11q0 64 -14 88q-7 2 -87 11q-52 6 -88 6q-13 0 -53 -3l-53 -4q-3 0 -9.5 -1.5t-10.5 -1.5q-3 0 -18 7
q-4 18 -5 37q0 12 2 35.5t2 34.5v52q-11 5 -43 7.5t-45 8.5q-21 30 -21 44q0 26 -7.5 76.5t-7.5 76.5q0 43 34 43q6 0 18 -3t18 -3q11 0 32 1.5t32 1.5q8 21 15 100q8 88 29 88q11 0 32.5 -3t32.5 -3q15 0 44.5 6.5t44.5 6.5q18 0 54 -3.5t54 -3.5q22 0 43 3q40 10 45 10
q14 0 40.5 -4.5t40.5 -4.5q1 0 18 2q18 2 38 -2q-2 -25 3 -104q2 -33 5 -49q6 -33 21 -47q-7 -12 -15 -24.5t-21 -12.5q-8 0 -34 9l-228 -41q-32 -6 -38 -19q-2 -4 -2 -40q0 -17 4 -39q49 6 130 6q14 0 42 -3.5t42 -3.5q7 0 32 6t33 7q25 -13 25 -32q0 -8 -9.5 -33t-9.5 -37
q0 -10 8 -31l54 16q41 12 49 12q11 0 23 -12t11 -23q-3 -8 -7 -19q2 -57 4 -146q1 -38 8 -53q3 -6 3 -11q0 -21 -70 -40q-18 -4 -89 -22v-79q0 -11 6 -33q6 -25 7 -34q-18 -24 -34 -24q-8 0 -13 6zM747 171v44q-2 12 -11 54q-2 10 -16 10q-30 0 -83 -35q-14 0 -25.5 10
t-11.5 24q0 17 4.5 51.5t4.5 51.5l-115 10q-16 -2 -123 -14q-19 -15 -26 -15q-37 0 -37 32q0 12 6.5 36t6.5 36q0 42 -21 58q5 13 11 26q7 10 27 9q45 6 104 17l191 35l1 5q1 5 1 11q0 10 -15 121h-17h-12q-23 -1 -25 -1h-131h-19q-38 1 -41 1h-55q-30 0 -124 -16
q-6 -16 -14 -49q2 -82 0 -102q3 -4 3 -8q0 -8 -11 -16l-1 -1q0 1 2 3l-11 -5q-15 3 -46 3q-54 0 -72 -9q2 -7 3 -34q2 -45 8 -70q11 -46 40 -46q17 0 45 13q33 -16 33 -44q0 -7 -11 -29l-5 -65q-1 -16 2 -26q4 -13 19 -13q1 0 67 2l66 2q21 1 62.5 -6t61.5 -7q2 0 9.5 3.5
t12.5 3.5q29 0 33 -56q6 -82 18 -127q-18 -25 -33 -25q-9 0 -26 4.5t-26 4.5l-210 -19q-6 0 -17 1.5t-17 1.5q-78 0 -94 -37q-7 -16 -7 -105q0 -23 9 -23q16 0 136 13l148 16q33 4 109 16q12 2 17 2q14 0 40.5 -4.5t40.5 -4.5q10 0 20 6v40q0 16 -6 48.5t-6 48.5q0 33 29 33
q6 0 18.5 -3.5t17.5 -3.5q23 0 36 4q39 12 52 26q6 5 6 82z" />
    <glyph glyph-name="t" unicode="t" horiz-adv-x="710" 
d="M622 438q-9 -3 -15 -3q-7 0 -21 5.5t-20 5.5q-70 0 -86 -10q-28 -17 -24 -74l26 -379q-5 -57 -6 -108q0 -15 1 -32q-2 -17 -20 -25q-22 6 -59 12l-230 -26q-2 0 -21 4h-14q0 8 -4 17.5t-4 15.5q0 7 8.5 18.5t9.5 16.5q5 11 5 34v36q0 34 23 320l16 199q2 27 -82 39
q-16 2 -105 12v27q0 6 9.5 19.5t9.5 16.5q4 29 10 87v94q0 6 -4 17q2 12 65 20q54 7 92 7q32 0 98 -8t101 -7l214 4q25 0 31 -22q1 -21 10 -89l8 -64v-150q0 -6 -4 -13.5t-18 -16.5zM529 744q-27 0 -83 -2l-84 -3q8 0 -85 8l-85 7q-11 1 -55 -4t-67 -10q-1 -24 -4 -85
q-1 -8 -5.5 -25.5t-4.5 -27.5v-44q5 -1 72 -15q43 -9 74 -9q13 0 24 1q3 -2 4 -2q13 -6 13 -20q0 -16 -8 -46q-8 -33 -9 -47q-14 -180 -29 -430q-1 -16 -7 -57q-5 -37 -5 -58q0 -15 20 -15h7q4 1 5 1q62 0 190 19q12 2 22 10q2 28 8 77q-1 6 -1 30q0 23 1 63l-16 152
q-8 74 -7 146q0 28 -11 80q-3 14 -3 16q0 19 24 37q65 -7 72 -6q70 11 96 11q2 11 7 43q4 26 0 123q-2 50 -12 64q-13 18 -58 18z" />
    <glyph glyph-name="u" unicode="u" horiz-adv-x="886" 
d="M13 179q0 -8 19 76q4 33 13 129q2 30 9 113q2 18 11 193q6 113 32 113q11 0 19.5 -10t8.5 -21q0 -6 -9 -30t-10 -32q-10 -65 -10 -114v-81l-37 -348q0 -20 -1 -61l-2 -35q0 -45 111 -45q8 0 60 7q14 -41 14 -44q0 -6 -4.5 -18t-4.5 -18q-1 -11 -7 -95q13 -5 26 -5
q4 0 9 1l16 3q16 3 36 5q107 -1 294 5q3 0 6 7q7 11 3 75q-3 61 4 68q48 10 67 15q37 10 65 23q15 7 15 28q0 8 -3 24t-3 24q0 37 3.5 110.5t3.5 110.5t-12 111.5t-12 112.5q0 46 -11 75q-15 0 -45.5 -5t-46.5 -5q-6 0 -18 1.5t-18 1.5q-27 0 -27 -44v-367q0 -18 -7 -37
q-8 0 -24.5 1.5t-24.5 1.5q-38 0 -123 -21q-2 -1 -15 -10q-9 -6 -16 -6q-25 0 -29 28q-1 1 -1 44v135q0 20 -8 53q-6 24 4 52q-1 23 -10 124q-4 37 -15 132q-1 8 -6 10q-28 10 -77 10q-11 0 -32.5 -3t-32.5 -3q-21 0 -34 13q-2 17 7.5 30t26.5 13q1 0 62 -5l61 -5
q16 -1 59 9q1 -7 17 -190q13 -145 13 -196q0 -89 11 -186q3 -2 7 -2q51 0 135 21q2 0 13 107q5 47 5 77t-6 242q26 15 33 15q26 0 51 -1l50 -2q7 0 40 13t41 13q25 0 30 -50q1 -14 5 -50q0 -92 -3 -108q2 -13 13 -64q10 -47 10 -51v-84q0 -16 -4 -51q-4 -31 -4 -52
q-1 -35 4 -86q7 -75 7 -91q-28 -9 -107 -34q-7 -2 -28 -10q-11 -6 -13 -14q-2 -57 -14 -145l-293 -3q-13 -1 -72 -7l-73 -7q-38 0 -38 38q0 5 8 20q1 13 7 49q5 31 5 49q0 23 -20 23h-14q-9 -1 -15 -1q-8 0 -57 12q-86 21 -86 43q0 13 13 29v114z" />
    <glyph glyph-name="v" unicode="v" horiz-adv-x="1005" 
d="M919 719v-261q1 -3 7 -29.5t6 -35.5v-113q-13 -4 -75 -23q-38 -12 -58 -40q-3 -4 -14 -100q-1 -9 6 -30l-7 -49q-100 -15 -170 -19q-5 -40 -16 -120q1 8 1 -44q0 -41 -36 -42l-257 -6q-17 51 -6 120q3 20 7 48q0 10 -4 19q-10 20 -96 26q-44 3 -55 5q-40 7 -40 27
q0 -12 7 68l6 69q3 34 -5 49t-42 19q-10 1 -39 4l-39 3v32q0 -18 1 -20q0 -3 2 10.5t4 42.5q8 93 14 193q7 108 7 134l1 115q53 32 62 32q19 0 56.5 -6.5t56.5 -6.5q52 0 89 4q10 -35 10 -41l-20 -325q-1 -22 0 -30q5 -11 28 -11q-7 0 25 3q22 2 46 -1q0 -7 5 -18.5t5 -17.5
q0 -11 -8.5 -33.5t-8.5 -32.5q0 -37 15 -68q134 11 134 38q0 15 -17 113q36 16 101 23q19 2 24 3q10 4 11 14v103l-10 115q-5 58 -22 114q5 23 26 24l122 4q23 1 74.5 15.5t67.5 14.5q11 0 21 -13.5t10 -24.5q0 -7 -6.5 -23t-6.5 -20zM658 355q-25 -1 -98 -19v-42
q0 -9 6.5 -29.5t6.5 -30.5q0 -48 -135 -52q-25 -5 -87 -20q-16 20 -16 39q5 34 4 80q-1 60 -29 60q-7 0 -21.5 -5t-21.5 -5q-13 0 -23.5 8.5t-9.5 20.5l23 292q6 73 -7 88q-9 11 -87 11q-13 0 -39.5 -2t-39.5 -2l-41 -386q4 -16 10 -47q14 -9 55.5 -15t58.5 -18
q2 -52 -4 -202q39 -12 172 -23q17 -22 17 -40q0 -17 -6.5 -50t-6.5 -50q0 -24 9 -59q-16 -1 126 -1q42 0 77 14q3 54 9 113q10 97 38 97q7 0 22.5 -6.5t20.5 -6.5q8 0 24.5 2t24.5 2q5 0 47 14q1 15 8 56q6 36 6 56q0 25 -7 54q31 19 67 32q51 18 59 25q20 17 20 63
q0 14 -5 42t-5 42v126q0 16 1 48.5t1 48.5q0 53 -6 62l-48 -9h-81q-85 0 -85 -25q0 -13 5 -37q5 -29 6 -38q10 -103 13 -229l5 -9q4 -10 4 -15q0 -9 -7.5 -19.5t-16.5 -10.5q-10 0 -13 7z" />
    <glyph glyph-name="w" unicode="w" horiz-adv-x="1177" 
d="M36 366q-1 2 -1 11l29 279q-1 85 -16 124l7 8q13 15 26 15q6 0 18 -7t15 -7q-37 0 46.5 7t93.5 7q31 0 60 -8q42 -12 42 -35q0 -7 -7 -21.5t-7 -17.5q0 -17 7 -50.5t7 -50.5l-17 -168q0 -34 8 -55q37 7 110 14q9 11 4 28q-8 30 -8 33q0 14 10 25q57 13 169 22q97 8 156 8
q16 0 29 -38q0 -14 -7 -40.5t-7 -40.5q0 -26 8 -57q65 14 65 101q0 -18 -3 60q-4 105 22 233q119 23 175 23q12 0 25 -11t13 -22q0 -10 -5 -28.5t-5 -28.5q0 -25 -7 -132q-6 -92 -6 -133q2 -20 -8.5 -56t-10.5 -53v-100q0 -2 -5 -34l-11 -71q-17 -112 -23 -165
q-2 -19 -6 -108q-28 -16 -72 -18q-25 0 -75 -1q-75 -3 -92 -3q-8 0 -12 8q-10 -9 -18 -9q-18 0 -18 35q2 4 14 36q0 34 1 68q-2 56 -14 56q-15 0 -44.5 -7t-44.5 -7q-4 0 -36 11v38q6 4 12 39q6 31 6 44q0 3 -4 27l-6 36h-7q-52 0 -64 -7q-20 -11 -20 -56q0 22 -2 -33.5
t-2 -60.5q-49 -9 -99 -4l-61 6q-26 0 -34 -27q-4 -14 -4 -49q0 -71 13 -95q4 -7 4 -11q0 -27 -33 -27h-124q-25 0 -76 -5.5t-76 -5.5q-34 0 -34 22q0 16 25 43v462q0 8 7 10h1q4 5 4 25zM1003 713q-43 0 -61 -10q-9 -4 -17 -69q-6 -49 -6 -75v-104q0 -14 -14 -90
q5 -13 7 -37q-15 -13 -39 -17q-16 3 -44 -10t-36 -13q-27 0 -37 21q3 53 8 152q-11 18 -17 18q-62 0 -126 -8q-88 -11 -113 -30q3 -21 4 -50q1 -23 -13 -33.5t-37 -9.5q-2 11 -5.5 13t-15.5 2t-67 -9l-15 -11q-16 -12 -23 -12q-14 0 -29.5 12t-15.5 26q0 42 10.5 126.5
t10.5 126.5q0 69 -19 121q-3 9 -51 9q-5 0 -14.5 -2t-13.5 -2q-7 0 -20 3.5t-19 3.5q-4 0 -65 -21l-41 -332v-105q0 -17 -8 -149l-9 -149v-137q12 -7 20 -7l14 2l35 5q49 7 57 7q-14 0 102 -4q0 93 -3 129q-11 38 -11 40q3 44 27 44q-1 0 32 -11q34 -3 77 -2q9 1 35 2h18
q27 0 27 48v26q0 13 -7 30.5t-7 18.5q0 13 11 23t24 10q5 0 15 -3.5t15 -3.5l40 8l74 15q10 -14 21 -43q0 -26 1 -154q6 -3 22 -3q7 2 50 15q10 3 15 3q36 0 37 -83v-110q23 -1 66 -5l42 -4q81 0 81 62l37 324l38 427q0 30 -13 38q-9 7 -41 7z" />
    <glyph glyph-name="x" unicode="x" horiz-adv-x="1148" 
d="M136 523l-1 1q-2 1 -5 1q-9 0 -65 -11q-10 -2 -14 -2q-9 0 -17 14t-7 23q1 17 -4.5 62t-11.5 58q-11 23 -11 29q0 25 99 40q31 4 116 19q78 15 90 15q10 0 38 -9l1 -102q0 -27 47 -27q25 0 56 12q8 3 13 3h27q1 -29 3 -103q3 -82 28 -82h23q9 0 9 15v162q21 11 28 11
q8 0 25 -6t24 -6q4 0 69 13q0 52 7 114q3 24 28 24q4 0 10.5 -3t7.5 -3l205 9q6 0 19 4.5t20 4.5q30 0 34 -68q-1 -25 0 -78q0 -12 2.5 -36t2.5 -37q0 -29 -27 -29q-9 0 -27.5 1.5t-27.5 1.5q-30 0 -34 -6l8 -124v-30q-16 -5 -101 -16q-53 -7 -72 -26v-104q0 -7 19 -4
q6 0 19 3t20.5 3t33.5 5t35 7q22 -17 22 -38q-10 -20 -7 -37t6 -79q24 0 71.5 -2t71.5 -2l12 -140q7 -76 23 -138q-28 -11 -31 -11q-4 0 -12 1.5t-12 1.5l-10.5 -1t-23.5 -1l-35 -1q-11 0 -33 3t-32 3q-26 0 -56 -10q-9 -3 -12 -3q-21 0 -34 77.5t-18 77.5q2 0 -60 -5
l-62 -5q-31 -2 -36 64q-1 18 -4 66q-1 16 -17 25q-38 22 -101 18q-8 -9 -8 -24q0 -58 9 -83q3 -6 3 -14q0 -30 -33 -30q-7 0 -22 4.5t-23 4.5q-10 0 -28 -5q12 -83 18 -90q17 -21 17 -26q0 -39 -38 -39q-7 0 -15 8q-17 1 -73 1q-81 0 -132 -16q-15 -15 -28 -15q-5 0 -14 3
t-14 3q-1 0 -11 -4.5t-15 -4.5q-10 0 -21 9.5t-12 19.5q-20 5 -18 24q2 20 2 48q0 120 -24 145q11 30 28 30q16 0 47 -6.5t47 -6.5q4 0 21 3q12 2 20 0l8 144q1 15 -7 26t-8 18q0 20 52 30q60 12 62 14q25 24 25 104q0 5 -9 5q-14 0 -113 -18q-17 -3 -21 -3q-31 0 -31 31
q0 11 7 23q-1 8 -1 27q0 20 1 53zM1019 -22q0 2 -2 11l-4 23l-8 48q-14 8 -37 8q-15 0 -44 -6t-44 -6q-18 0 -29 6v150l-24 1q-12 0 -42.5 -9t-43.5 -9q-11 0 -37 26v167q19 19 79 30q24 4 88 16q9 21 9 33q0 55 -4 77q-1 5 -6.5 16t-5.5 17q0 9 7.5 19t16.5 10q6 0 16 -6
q64 0 84 9v125q0 4 -6 16q-5 0 -15.5 1.5t-15.5 1.5q-9 0 -72 -6l-74 -7q-34 0 -60 -2q0 -10 -4 -37l-4 -20q-1 -5 -1 -9q0 -10 3 -30.5t3 -30.5q-15 -1 -76 -11l-48 -8q-15 0 -21 1q0 -25 -9 -117q1 -7 6 -29q6 -26 -16 -44q-49 16 -73 16q-41 -1 -61 21q0 102 4 142
q-1 3 -2 9l-1 2q-25 -4 -108 -4q-38 0 -38 38q0 3 6 34q2 11 -7 55l-43 3q-31 2 -94 -10q-31 -6 -93 -19q-5 -1 -11 -10t-6 -15q0 -25 23 -104q8 -1 19 -1q28 0 56 14l4 2q4 2 7 2q9 0 16 -9.5t7 -18.5q0 -18 -8 -23q-4 -4 -4 -42q4 -27 7 -40q8 0 22.5 -4.5t20.5 -4.5
q14 0 47 12.5t47 12.5q21 0 29 -19q0 -4 -7 -105q-5 -71 -24 -80l-61 -8q-35 -9 -41 -41q2 -9 2 -37t-2 -75l12 -33q0 -28 -70 -34l-96 -8v-24q0 -40 17 -141q3 1 67 1q10 2 27 8q32 11 43 12q32 3 91 2q48 -1 61 5q-6 30 -16 82q-1 3 -11 20q-9 14 -9 21q0 10 10 19t20 9
q6 0 16.5 -4.5t11.5 -4.5q60 0 60 37q0 26 -8 59.5t-8 37.5q0 23 28 23q7 0 70 -12l105 -20q11 -9 23 -28q-7 -26 -7 -59q0 -59 30 -59q20 0 59 7.5t58 7.5q12 0 28 -23q2 -6 1 -29q-6 -102 29 -102h29q9 0 27 -1.5t27 -1.5q52 0 83 13v102z" />
    <glyph glyph-name="y" unicode="y" horiz-adv-x="887" 
d="M726 441q0 -3 3 -18q13 -64 22 -126q8 -14 8 -19v-33q-61 -17 -184 -32q-4 -23 -4 -38q0 -33 6 -92q2 -18 12 -157q1 -10 8 -30t7 -31q0 -8 -11 -29q-29 3 -64 3q-2 0 -6.5 -1.5t-6.5 -1.5l-158 -33q-16 0 -27 13q-16 223 -16 290v78q0 16 -12 16q-37 0 -88 -20
q-8 -3 -25 -4q-8 17 -13 68.5t-15 76.5q-3 8 -48 16q-39 7 -56 7q-3 0 -10 -1.5t-10 -1.5q-17 0 -31 16q-1 55 -4 106q-6 103 5 168q7 41 -3 84q14 15 28 29q20 19 32 19q5 0 10 -2q5 -8 38 -6q11 1 65 3l93 4q8 0 25.5 5.5t24.5 5.5h24q2 -30 -4 -83q-7 -59 -7 -82
q0 4 1.5 -11t2.5 -38q2 -30 2 -64q46 -2 151 -10q-4 155 -22 261l299 58q40 -64 49 -243q2 -29 11 -50q3 -7 3 -11v-30q-105 -10 -105 -29zM563 253q30 1 71 8q60 10 78 25q-8 64 -25 142l-7 30q0 18 42 34q13 5 62 19q-9 127 -9 128q-10 86 -33 116q-49 -9 -116 -21
q-79 -15 -109 -29v-25q0 -58 9 -167q1 -7 6.5 -23.5t5.5 -25.5q0 -26 -27 -26l-58 6l-58 6q-13 0 -38.5 -4.5t-38.5 -4.5q-27 0 -27 24q0 5 3.5 15t3.5 14l1 232l-223 -9q-4 0 -9 2q-29 -106 -29 -157q0 -168 9 -171q65 -21 105 -21q5 0 14.5 3t14.5 3q12 0 22 -18
q2 -39 22 -127l113 22q24 0 24 -25q0 -9 -4.5 -25.5t-4.5 -24.5q-5 -141 16 -324q4 -1 11 -1q34 0 90 10q84 15 84 40q0 71 -19 271q-2 20 -14 45q-3 6 -3 10q0 12 10 21t22 9q9 0 13 -6z" />
    <glyph glyph-name="z" unicode="z" horiz-adv-x="794" 
d="M674 -170l-225 6q-2 0 -44 -4l-41 -4q-18 0 -51.5 -5.5t-50.5 -5.5l-188 -3q-3 0 -19 -5.5t-31 -3.5q-7 16 -10 50q-2 25 -15 39q16 56 18 125q1 36 4 128q1 20 7 107q1 8 10.5 14.5t18.5 6.5q3 0 8.5 -1t8.5 -1q7 0 131 21q18 0 51 7q3 9 3 15q0 12 -5.5 35t-5.5 34
t9 19.5t20 8.5q8 0 23 -1.5t23 -1.5q-3 0 74 8q3 7 3 15q0 19 -5 89q-6 82 -11 112q-46 -4 -139 -22q1 -5 1 -10q-1 -1 -1 -95v-13q0 -57 -26 -57q-7 0 -20 4t-20 4q-6 0 -148 -8q-3 7 -4 9l-4 6q-7 10 -7 15q0 8 4.5 22.5t4.5 22.5v227q0 26 34 35q14 4 55 7l204 16h81
q8 0 24.5 3t24.5 3q14 0 37 -7q27 -8 37 -9q37 -4 112 -14q-2 -53 2 -142q4 -107 4 -143q0 -21 -3 -62t-3 -62l2 -29q1 -16 0 -30q-7 -13 -22 -13q-79 0 -137 -13q1 -9 6 -31.5t5 -29.5q0 -45 -54 -39l-148 -33q-35 -3 -35 -13v-89q17 -7 24 -7q11 0 116 10q27 -1 82 1v123
h60q19 0 93 18q17 4 25 4q16 0 26 -16q10 -108 29 -326q-2 -6 -13.5 -13.5t-18.5 -7.5zM210 148q-6 -2 -6 3v3q0 21 21 24q61 8 213 42q3 7 3 25q0 19 -1 25q-2 12 -15 14q-1 15 7 29.5t22 14.5q3 0 19 -8q23 0 114 13q7 14 10 56q8 45 8 120q0 35 -13 221q-129 31 -155 31
q-12 0 -65 -5l-64 -6h-68q-10 0 -84 -8l-83 -9q-3 -1 -5 -8v-125q0 -14 -2 -42l-3 -42q-2 -29 7 -34q3 -1 39 -1q10 0 28.5 3t28.5 3q26 0 39 2l7 73q0 11 -5 33t-5 33q0 32 51 32q36 0 133 18l21 4q9 0 25 -12q1 -13 0 -29q-2 -26 -2 -28q0 -26 2 -77t2 -77q0 -10 4 -30.5
t4 -30.5q0 -20 -9 -24q-13 -2 -30 0q-25 3 -28 3q-58 0 -81 -9q-5 -29 -5 -41q0 -7 5.5 -23.5t5.5 -24.5q0 -26 -22 -26q-5 0 -15.5 3t-15.5 3q-18 0 -94 -13q-39 -6 -82 -20q-8 -13 -13 -72l-11 -129v-142q0 -34 29 -33l220 5q10 2 98 20q10 2 18 2h149q6 0 17.5 -4
t16.5 -4q7 0 20.5 1.5t20.5 1.5q21 0 25 11q1 3 1 28q0 130 -27 235q-42 -4 -63 -7q-48 -7 -55 -17t-7 -53q0 -17 12 -54q-20 -20 -26 -20q-2 0 -12 2l-21 4q-26 5 -34 5q-101 0 -173 -12l-24 -4q-10 0 -19 8t-9 18q0 5 8 16q3 48 3 70q0 28 -11 46q2 -1 5 -6q0 3 1 6z" />
    <glyph glyph-name="glyph84" 
 />
    <glyph glyph-name="glyph85" 
 />
    <glyph glyph-name="glyph85" 
 />
    <glyph glyph-name="glyph86" 
 />
  </font>
</defs>
</svg>
