<?xml version="1.0" standalone="no"?>
<!DOCTYPE svg PUBLIC "-//W3C//DTD SVG 1.1//EN" "http://www.w3.org/Graphics/SVG/1.1/DTD/svg11.dtd" >
<svg xmlns="http://www.w3.org/2000/svg" xmlns:xlink="http://www.w3.org/1999/xlink" version="1.1">
<metadata>
Created by FontForge 20201107 at Sat Dec 22 16:03:26 2012
 By 
Copyright (c) 2012 by Style-7. All rights reserved. http://www.styleseven.com
</metadata>
<defs>
<font id="StencilPixel-7" horiz-adv-x="900" >
  <font-face 
    font-family="Stencil Pixel-7"
    font-weight="400"
    font-stretch="normal"
    units-per-em="1000"
    panose-1="0 0 0 0 0 0 0 0 0 0"
    ascent="750"
    descent="-250"
    x-height="750"
    cap-height="950"
    bbox="0 -300 1350 1200"
    underline-thickness="50"
    underline-position="-200"
    unicode-range="U+0020-2122"
  />
<missing-glyph 
 />
    <glyph glyph-name=".notdef" 
 />
    <glyph glyph-name=".null" horiz-adv-x="0" 
 />
    <glyph glyph-name="nonmarkingreturn" 
 />
    <glyph glyph-name="space" unicode=" " 
 />
    <glyph glyph-name="space" unicode="&#xa0;" 
 />
    <glyph glyph-name="exclam" unicode="!" horiz-adv-x="300" 
d="M0 950h150v-700h-150v700zM0 150h150v-150h-150v150z" />
    <glyph glyph-name="quotedbl" unicode="&#x22;" horiz-adv-x="500" 
d="M0 950h150v-300h-150v300zM200 950h150v-300h-150v300z" />
    <glyph glyph-name="numbersign" unicode="#" horiz-adv-x="1000" 
d="M150 950h150v-950h-150v950zM550 950h150v-950h-150v950zM350 800h150v-150h-150v150zM350 300h150v-150h-150v150zM750 300h100v-150h-100v150zM750 800h100v-150h-100v150zM0 800h100v-150h-100v150zM0 300h100v-150h-100v150z" />
    <glyph glyph-name="dollar" unicode="$" 
d="M0 900h50v50h100v-550h-100v50h-50v450zM600 550h100v-50h50v-450h-50v-50h-100v550zM200 950h350v-150h-350v150zM200 550h350v-150h-350v150zM200 150h350v-150h-350v150zM300 750h150v-150h-150v150zM300 350h150v-150h-150v150zM0 150h150v-150h-150v150zM600 950
h150v-150h-150v150zM300 1150h150v-150h-150v150zM300 -50h150v-150h-150v150z" />
    <glyph glyph-name="percent" unicode="%" 
d="M200 400h50v50h50v50h50v50h50v50h50v50h50v50h50v-200h-50v-50h-50v-50h-50v-50h-50v-50h-50v-50h-50v-50h-50v200zM0 850h50v50h100v-100h-50v-150h50v-100h-100v50h-50v250zM400 300h50v50h100v-100h-50v-150h50v-100h-100v50h-50v250zM600 350h100v-50h50v-250h-50
v-50h-100v100h50v150h-50v100zM200 900h100v-50h50v-250h-50v-50h-100v100h50v150h-50v100zM600 900h150v-200h-50v-50h-50v-50h-50v300zM0 200h50v50h50v50h50v-300h-150v200z" />
    <glyph glyph-name="ampersand" unicode="&#x26;" horiz-adv-x="950" 
d="M0 900h50v50h100v-950h-100v50h-50v850zM450 550h150v-350h-150v350zM450 150h350v-150h-350v150zM450 950h100v-50h50v-300h-150v350zM200 150h200v-150h-200v150zM200 550h200v-150h-200v150zM200 950h200v-150h-200v150zM650 550h150v-150h-150v150z" />
    <glyph glyph-name="quotesingle" unicode="'" horiz-adv-x="300" 
d="M0 950h150v-300h-150v300z" />
    <glyph glyph-name="parenleft" unicode="(" horiz-adv-x="500" 
d="M0 850h50v50h50v50h50v-950h-50v50h-50v50h-50v750zM200 150h150v-150h-150v150zM200 950h150v-150h-150v150z" />
    <glyph glyph-name="parenright" unicode=")" horiz-adv-x="500" 
d="M200 950h50v-50h50v-50h50v-750h-50v-50h-50v-50h-50v950zM0 150h150v-150h-150v150zM0 950h150v-150h-150v150z" />
    <glyph glyph-name="asterisk" unicode="*" 
d="M300 700h150v-450h-150v450zM0 550h250v-150h-250v150zM500 550h250v-150h-250v150zM100 850h150v-150h-150v150zM100 250h150v-150h-150v150zM500 250h150v-150h-150v150zM500 850h150v-150h-150v150z" />
    <glyph glyph-name="plus" unicode="+" horiz-adv-x="800" 
d="M250 800h150v-650h-150v650zM0 550h200v-150h-200v150zM450 550h200v-150h-200v150z" />
    <glyph glyph-name="comma" unicode="," horiz-adv-x="350" 
d="M0 150h100v-50h50v-50h50v-150h-100v50h-50v50h-50v150z" />
    <glyph glyph-name="hyphen" unicode="-" horiz-adv-x="800" 
d="M200 550h250v-150h-250v150zM0 550h150v-150h-150v150zM500 550h150v-150h-150v150z" />
    <glyph glyph-name="period" unicode="." horiz-adv-x="300" 
d="M0 150h150v-150h-150v150z" />
    <glyph glyph-name="slash" unicode="/" 
d="M200 400h50v50h50v50h50v50h50v50h50v50h50v50h50v-200h-50v-50h-50v-50h-50v-50h-50v-50h-50v-50h-50v-50h-50v200zM600 900h150v-200h-50v-50h-50v-50h-50v300zM0 200h50v50h50v50h50v-300h-150v200z" />
    <glyph glyph-name="zero" unicode="0" 
d="M0 900h50v50h100v-950h-100v50h-50v850zM600 950h100v-50h50v-850h-50v-50h-100v950zM200 400h50v50h50v50h50v50h50v50h50v50h50v50h50v-150h-50v-50h-50v-50h-50v-50h-50v-50h-50v-50h-50v-50h-50v150zM200 150h350v-150h-350v150zM200 950h350v-150h-350v150z" />
    <glyph glyph-name="one" unicode="1" horiz-adv-x="500" 
d="M200 950h150v-950h-150v950zM0 950h150v-150h-150v150z" />
    <glyph glyph-name="two" unicode="2" 
d="M0 500h50v50h100v-550h-150v500zM600 950h100v-50h50v-450h-50v-50h-100v550zM200 550h350v-150h-350v150zM200 150h350v-150h-350v150zM200 950h350v-150h-350v150zM600 150h150v-150h-150v150zM0 950h150v-150h-150v150z" />
    <glyph glyph-name="three" unicode="3" 
d="M600 950h100v-50h50v-350h-50v-50h-100v450zM600 450h100v-50h50v-350h-50v-50h-100v450zM200 550h350v-150h-350v150zM200 950h350v-150h-350v150zM200 150h350v-150h-350v150zM0 150h150v-150h-150v150zM0 950h150v-150h-150v150z" />
    <glyph glyph-name="four" unicode="4" 
d="M600 950h150v-950h-150v950zM0 950h150v-550h-150v550zM200 550h350v-150h-350v150z" />
    <glyph glyph-name="five" unicode="5" 
d="M0 950h150v-550h-150v550zM600 550h100v-50h50v-450h-50v-50h-100v550zM200 550h350v-150h-350v150zM200 150h350v-150h-350v150zM200 950h350v-150h-350v150zM0 150h150v-150h-150v150zM600 950h150v-150h-150v150z" />
    <glyph glyph-name="six" unicode="6" 
d="M0 900h50v50h100v-950h-100v50h-50v850zM600 550h100v-50h50v-450h-50v-50h-100v550zM200 550h350v-150h-350v150zM200 150h350v-150h-350v150zM200 950h350v-150h-350v150zM600 950h150v-150h-150v150z" />
    <glyph glyph-name="seven" unicode="7" 
d="M600 950h150v-950h-150v950zM200 950h350v-150h-350v150zM0 950h150v-300h-150v300z" />
    <glyph glyph-name="eight" unicode="8" 
d="M0 900h50v50h100v-950h-100v50h-50v850zM600 950h100v-50h50v-850h-50v-50h-100v950zM200 550h350v-150h-350v150zM200 150h350v-150h-350v150zM200 950h350v-150h-350v150z" />
    <glyph glyph-name="nine" unicode="9" 
d="M600 950h100v-50h50v-850h-50v-50h-100v950zM0 900h50v50h100v-550h-100v50h-50v450zM200 550h350v-150h-350v150zM200 150h350v-150h-350v150zM200 950h350v-150h-350v150zM0 150h150v-150h-150v150z" />
    <glyph glyph-name="colon" unicode=":" horiz-adv-x="300" 
d="M0 750h150v-150h-150v150zM0 350h150v-150h-150v150z" />
    <glyph glyph-name="semicolon" unicode=";" horiz-adv-x="350" 
d="M0 150h100v-50h50v-50h50v-150h-100v50h-50v50h-50v150zM0 750h150v-150h-150v150z" />
    <glyph glyph-name="less" unicode="&#x3c;" horiz-adv-x="550" 
d="M200 700h50v50h50v50h100v-150h-50v-50h-50v-50h-50v-50h-50v200zM200 450h50v-50h50v-50h50v-50h50v-150h-100v50h-50v50h-50v200zM0 500h50v50h50v50h50v-250h-50v50h-50v50h-50v50z" />
    <glyph glyph-name="equal" unicode="=" 
d="M200 700h350v-150h-350v150zM200 400h350v-150h-350v150zM0 700h150v-150h-150v150zM0 400h150v-150h-150v150zM600 700h150v-150h-150v150zM600 400h150v-150h-150v150z" />
    <glyph glyph-name="greater" unicode="&#x3e;" horiz-adv-x="550" 
d="M0 800h100v-50h50v-50h50v-200h-50v50h-50v50h-50v50h-50v150zM0 300h50v50h50v50h50v50h50v-200h-50v-50h-50v-50h-100v150zM250 600h50v-50h50v-50h50v-50h-50v-50h-50v-50h-50v250z" />
    <glyph glyph-name="question" unicode="?" 
d="M600 950h100v-50h50v-450h-50v-50h-100v550zM300 500h50v50h200v-150h-100v-200h-150v300zM200 950h350v-150h-350v150zM0 900h50v50h100v-300h-150v250zM300 150h150v-150h-150v150z" />
    <glyph glyph-name="at" unicode="@" 
d="M0 900h50v50h100v-950h-100v50h-50v850zM600 950h100v-50h50v-550h-50v-50h-100v650zM200 150h350v-150h-350v150zM200 950h350v-150h-350v150zM200 450h350v-150h-350v150zM600 150h150v-150h-150v150z" />
    <glyph glyph-name="A" unicode="A" 
d="M0 900h50v50h100v-950h-150v900zM600 950h100v-50h50v-900h-150v950zM200 550h350v-150h-350v150zM200 950h350v-150h-350v150z" />
    <glyph glyph-name="B" unicode="B" 
d="M0 950h150v-950h-150v950zM600 950h100v-50h50v-350h-50v-50h-100v450zM600 450h100v-50h50v-350h-50v-50h-100v450zM200 550h350v-150h-350v150zM200 150h350v-150h-350v150zM200 950h350v-150h-350v150z" />
    <glyph glyph-name="C" unicode="C" 
d="M0 900h50v50h100v-950h-100v50h-50v850zM200 950h350v-150h-350v150zM200 150h350v-150h-350v150zM600 150h150v-150h-150v150zM600 950h150v-150h-150v150z" />
    <glyph glyph-name="D" unicode="D" 
d="M0 950h150v-950h-150v950zM600 950h50v-50h50v-50h50v-750h-50v-50h-50v-50h-50v950zM200 150h350v-150h-350v150zM200 950h350v-150h-350v150z" />
    <glyph glyph-name="E" unicode="E" 
d="M0 950h150v-950h-150v950zM200 150h550v-150h-550v150zM200 950h550v-150h-550v150zM200 550h350v-150h-350v150z" />
    <glyph glyph-name="F" unicode="F" 
d="M0 950h150v-950h-150v950zM200 550h350v-150h-350v150zM200 950h350v-150h-350v150zM600 950h150v-150h-150v150z" />
    <glyph glyph-name="G" unicode="G" 
d="M0 900h50v50h100v-950h-100v50h-50v850zM600 550h100v-50h50v-450h-50v-50h-100v550zM200 150h350v-150h-350v150zM200 950h350v-150h-350v150zM350 550h200v-150h-200v150zM600 950h150v-150h-150v150z" />
    <glyph glyph-name="H" unicode="H" 
d="M0 950h150v-950h-150v950zM600 950h150v-950h-150v950zM200 550h350v-150h-350v150z" />
    <glyph glyph-name="I" unicode="I" 
d="M300 950h150v-950h-150v950zM0 950h250v-150h-250v150zM500 950h250v-150h-250v150zM0 150h250v-150h-250v150zM500 150h250v-150h-250v150z" />
    <glyph glyph-name="J" unicode="J" 
d="M600 950h150v-900h-50v-50h-100v950zM0 400h150v-400h-100v50h-50v350zM200 950h350v-150h-350v150zM200 150h350v-150h-350v150zM0 950h150v-150h-150v150z" />
    <glyph glyph-name="K" unicode="K" 
d="M0 950h150v-950h-150v950zM200 550h50v50h50v50h50v50h50v50h50v50h50v50h50v-200h-50v-50h-50v-50h-50v-150h50v-50h50v-50h50v-200h-50v50h-50v50h-50v50h-50v50h-50v50h-50v50h-50v150zM600 200h50v-50h50v-50h50v-100h-150v200zM600 950h150v-100h-50v-50h-50v-50
h-50v200z" />
    <glyph glyph-name="L" unicode="L" 
d="M0 950h150v-950h-150v950zM200 150h350v-150h-350v150zM600 150h150v-150h-150v150z" />
    <glyph glyph-name="M" unicode="M" 
d="M0 950h150v-950h-150v950zM600 950h150v-950h-150v950zM200 700h50v-50h50v-50h50v-50h50v50h50v50h50v50h50v-200h-50v-50h-50v-50h-50v-50h-50v50h-50v50h-50v50h-50v200z" />
    <glyph glyph-name="N" unicode="N" 
d="M0 950h150v-950h-150v950zM600 950h150v-950h-150v950zM200 700h50v-50h50v-50h50v-50h50v-50h50v-50h50v-50h50v-200h-50v50h-50v50h-50v50h-50v50h-50v50h-50v50h-50v200z" />
    <glyph glyph-name="O" unicode="O" 
d="M0 900h50v50h100v-950h-100v50h-50v850zM600 950h100v-50h50v-850h-50v-50h-100v950zM200 150h350v-150h-350v150zM200 950h350v-150h-350v150z" />
    <glyph glyph-name="P" unicode="P" 
d="M0 950h150v-950h-150v950zM600 950h100v-50h50v-450h-50v-50h-100v550zM200 550h350v-150h-350v150zM200 950h350v-150h-350v150z" />
    <glyph glyph-name="Q" unicode="Q" 
d="M0 900h50v50h100v-950h-100v50h-50v850zM600 950h100v-50h50v-850h-50v-50h-100v950zM200 150h350v-150h-350v150zM200 950h350v-150h-350v150zM400 350h150v-150h-150v150z" />
    <glyph glyph-name="R" unicode="R" 
d="M0 950h150v-950h-150v950zM600 950h100v-50h50v-450h-50v-50h-100v550zM300 350h200v-50h50v-50h50v-50h50v-50h50v-50h50v-100h-150v50h-50v50h-50v50h-50v50h-50v50h-50v50h-50v50zM200 550h350v-150h-350v150zM200 950h350v-150h-350v150z" />
    <glyph glyph-name="S" unicode="S" 
d="M0 900h50v50h100v-550h-100v50h-50v450zM600 550h100v-50h50v-450h-50v-50h-100v550zM200 150h350v-150h-350v150zM200 550h350v-150h-350v150zM200 950h350v-150h-350v150zM0 150h150v-150h-150v150zM600 950h150v-150h-150v150z" />
    <glyph glyph-name="T" unicode="T" 
d="M300 950h150v-950h-150v950zM0 950h250v-150h-250v150zM500 950h250v-150h-250v150z" />
    <glyph glyph-name="U" unicode="U" 
d="M0 950h150v-950h-100v50h-50v900zM600 950h150v-900h-50v-50h-100v950zM200 150h350v-150h-350v150z" />
    <glyph glyph-name="V" unicode="V" 
d="M0 950h150v-700h-50v50h-50v50h-50v600zM600 950h150v-600h-50v-50h-50v-50h-50v700zM200 350h50v-50h50v-50h50v-50h50v50h50v50h50v50h50v-200h-50v-50h-50v-50h-50v-50h-50v50h-50v50h-50v50h-50v200z" />
    <glyph glyph-name="W" unicode="W" 
d="M0 950h150v-950h-100v50h-50v900zM600 950h150v-900h-50v-50h-100v950zM300 800h150v-600h-150v600zM200 150h350v-150h-350v150z" />
    <glyph glyph-name="X" unicode="X" 
d="M200 650h50v-50h50v-50h150v50h50v50h50v-150h-50v-50h50v-150h-50v50h-50v50h-150v-50h-50v-50h-50v150h50v50h-50v150zM0 300h50v50h50v50h50v-400h-150v300zM600 400h50v-50h50v-50h50v-300h-150v400zM0 950h150v-400h-50v50h-50v50h-50v300zM600 950h150v-300h-50
v-50h-50v-50h-50v400z" />
    <glyph glyph-name="Y" unicode="Y" 
d="M200 650h50v-50h50v-50h50v-50h50v50h50v50h50v50h50v-200h-50v-50h-50v-400h-150v400h-50v50h-50v200zM0 950h150v-400h-50v50h-50v50h-50v300zM600 950h150v-300h-50v-50h-50v-50h-50v400z" />
    <glyph glyph-name="Z" unicode="Z" 
d="M200 400h50v50h50v50h50v50h50v50h50v50h50v50h50v-200h-50v-50h-50v-50h-50v-50h-50v-50h-50v-50h-50v-50h-50v200zM200 950h350v-150h-350v150zM200 150h350v-150h-350v150zM600 950h150v-250h-50v-50h-50v-50h-50v350zM0 200h50v50h50v50h50v-300h-150v200zM0 950h150
v-150h-150v150zM600 150h150v-150h-150v150z" />
    <glyph glyph-name="bracketleft" unicode="[" horiz-adv-x="500" 
d="M0 950h150v-950h-150v950zM200 150h150v-150h-150v150zM200 950h150v-150h-150v150z" />
    <glyph glyph-name="backslash" unicode="\" 
d="M200 700h50v-50h50v-50h50v-50h50v-50h50v-50h50v-50h50v-200h-50v50h-50v50h-50v50h-50v50h-50v50h-50v50h-50v200zM0 900h150v-300h-50v50h-50v50h-50v200zM600 300h50v-50h50v-50h50v-200h-150v300z" />
    <glyph glyph-name="bracketright" unicode="]" horiz-adv-x="500" 
d="M200 950h150v-950h-150v950zM0 150h150v-150h-150v150zM0 950h150v-150h-150v150z" />
    <glyph glyph-name="asciicircum" unicode="^" horiz-adv-x="700" 
d="M0 700h50v50h50v50h50v50h50v50h50v-200h-50v-50h-50v-50h-50v-50h-100v150zM300 900h50v-50h50v-50h50v-50h50v-50h50v-150h-100v50h-50v50h-50v50h-50v200z" />
    <glyph glyph-name="underscore" unicode="_" 
d="M0 150h250v-150h-250v150zM500 150h250v-150h-250v150zM300 150h150v-150h-150v150z" />
    <glyph glyph-name="grave" unicode="`" horiz-adv-x="450" 
d="M0 950h100v-50h50v-50h50v-50h50v-50h50v-100h-150v50h-50v50h-50v50h-50v150z" />
    <glyph glyph-name="a" unicode="a" 
d="M600 750h100v-50h50v-700h-150v750zM0 400h50v50h100v-450h-100v50h-50v350zM200 450h350v-150h-350v150zM200 150h350v-150h-350v150zM200 750h350v-150h-350v150zM0 750h150v-150h-150v150z" />
    <glyph glyph-name="b" unicode="b" 
d="M0 950h150v-950h-150v950zM600 750h100v-50h50v-650h-50v-50h-100v750zM200 750h350v-150h-350v150zM200 150h350v-150h-350v150z" />
    <glyph glyph-name="c" unicode="c" 
d="M0 700h50v50h100v-750h-100v50h-50v650zM200 150h350v-150h-350v150zM200 750h350v-150h-350v150zM600 150h150v-150h-150v150zM600 750h150v-150h-150v150z" />
    <glyph glyph-name="d" unicode="d" 
d="M600 950h150v-950h-150v950zM0 700h50v50h100v-750h-100v50h-50v650zM200 150h350v-150h-350v150zM200 750h350v-150h-350v150z" />
    <glyph glyph-name="e" unicode="e" 
d="M0 700h50v50h100v-750h-100v50h-50v650zM600 750h100v-50h50v-350h-50v-50h-100v450zM200 450h350v-150h-350v150zM200 150h350v-150h-350v150zM200 750h350v-150h-350v150zM600 150h150v-150h-150v150z" />
    <glyph glyph-name="f" unicode="f" 
d="M200 900h50v50h100v-950h-150v900zM400 950h350v-150h-350v150zM400 650h200v-150h-200v150zM0 650h150v-150h-150v150z" />
    <glyph glyph-name="g" unicode="g" 
d="M600 750h100v-50h50v-950h-50v-50h-100v1050zM0 700h50v50h100v-750h-100v50h-50v650zM200 -150h350v-150h-350v150zM200 750h350v-150h-350v150zM200 150h350v-150h-350v150zM0 -150h150v-150h-150v150z" />
    <glyph glyph-name="h" unicode="h" 
d="M0 950h150v-950h-150v950zM600 750h100v-50h50v-700h-150v750zM200 750h350v-150h-350v150z" />
    <glyph glyph-name="i" unicode="i" horiz-adv-x="700" 
d="M200 750h150v-750h-150v750zM0 150h150v-150h-150v150zM400 750h150v-150h-150v150zM400 150h150v-150h-150v150zM200 1000h150v-150h-150v150zM0 750h150v-150h-150v150z" />
    <glyph glyph-name="j" unicode="j" horiz-adv-x="700" 
d="M400 750h150v-1000h-50v-50h-100v1050zM0 750h350v-150h-350v150zM0 -150h350v-150h-350v150zM200 1000h150v-150h-150v150z" />
    <glyph glyph-name="k" unicode="k" 
d="M0 950h150v-950h-150v950zM200 450h150v50h50v50h50v50h50v50h50v-200h-50v-50h-50v-50h50v-50h50v-200h-50v50h-50v50h-50v50h-50v50h-150v150zM600 750h150v-100h-50v-50h-50v-50h-50v200zM600 200h50v-50h50v-50h50v-100h-150v200z" />
    <glyph glyph-name="l" unicode="l" horiz-adv-x="700" 
d="M200 950h150v-950h-150v950zM0 150h150v-150h-150v150zM400 150h150v-150h-150v150zM0 950h150v-150h-150v150z" />
    <glyph glyph-name="m" unicode="m" 
d="M0 750h150v-750h-150v750zM600 750h100v-50h50v-700h-150v750zM300 550h150v-550h-150v550zM200 750h350v-150h-350v150z" />
    <glyph glyph-name="n" unicode="n" 
d="M0 750h150v-750h-150v750zM600 750h100v-50h50v-700h-150v750zM200 750h350v-150h-350v150z" />
    <glyph glyph-name="o" unicode="o" 
d="M0 700h50v50h100v-750h-100v50h-50v650zM600 750h100v-50h50v-650h-50v-50h-100v750zM200 750h350v-150h-350v150zM200 150h350v-150h-350v150z" />
    <glyph glyph-name="p" unicode="p" 
d="M0 750h150v-1050h-150v1050zM600 750h100v-50h50v-650h-50v-50h-100v750zM200 750h350v-150h-350v150zM200 150h350v-150h-350v150z" />
    <glyph glyph-name="q" unicode="q" 
d="M600 750h150v-1050h-150v1050zM0 700h50v50h100v-750h-100v50h-50v650zM200 750h350v-150h-350v150zM200 150h350v-150h-350v150z" />
    <glyph glyph-name="r" unicode="r" 
d="M0 750h150v-750h-150v750zM200 750h350v-150h-350v150zM600 750h100v-50h50v-200h-150v250z" />
    <glyph glyph-name="s" unicode="s" 
d="M0 700h50v50h100v-450h-100v50h-50v350zM600 450h100v-50h50v-350h-50v-50h-100v450zM200 750h350v-150h-350v150zM200 450h350v-150h-350v150zM200 150h350v-150h-350v150zM0 150h150v-150h-150v150zM600 750h150v-150h-150v150z" />
    <glyph glyph-name="t" unicode="t" 
d="M200 950h150v-950h-100v50h-50v900zM400 150h350v-150h-350v150zM400 650h200v-150h-200v150zM0 650h150v-150h-150v150z" />
    <glyph glyph-name="u" unicode="u" 
d="M0 750h150v-750h-100v50h-50v700zM600 750h150v-700h-50v-50h-100v750zM200 150h350v-150h-350v150z" />
    <glyph glyph-name="v" unicode="v" 
d="M200 350h50v-50h50v-50h50v-50h50v50h50v50h50v50h50v-200h-50v-50h-50v-50h-50v-50h-50v50h-50v50h-50v50h-50v200zM0 750h150v-500h-50v50h-50v50h-50v400zM600 750h150v-400h-50v-50h-50v-50h-50v500z" />
    <glyph glyph-name="w" unicode="w" 
d="M0 750h150v-750h-100v50h-50v700zM600 750h150v-700h-50v-50h-100v750zM300 600h150v-400h-150v400zM200 150h350v-150h-350v150z" />
    <glyph glyph-name="x" unicode="x" 
d="M200 650h50v-50h50v-50h50v-50h50v50h50v50h50v50h50v-200h-50v-50h-50v-50h50v-50h50v-200h-50v50h-50v50h-50v50h-50v-50h-50v-50h-50v-50h-50v200h50v50h50v50h-50v50h-50v200zM0 750h150v-200h-50v50h-50v50h-50v100zM0 100h50v50h50v50h50v-200h-150v100zM600 200
h50v-50h50v-50h50v-100h-150v200zM600 750h150v-100h-50v-50h-50v-50h-50v200z" />
    <glyph glyph-name="y" unicode="y" 
d="M600 750h150v-1000h-50v-50h-100v1050zM0 750h150v-750h-100v50h-50v700zM200 -150h350v-150h-350v150zM200 150h350v-150h-350v150zM0 -150h150v-150h-150v150z" />
    <glyph glyph-name="z" unicode="z" 
d="M200 750h350v-150h-350v150zM200 450h350v-150h-350v150zM200 150h350v-150h-350v150zM0 250h50v50h50v50h50v-350h-150v250zM600 750h150v-250h-50v-50h-50v-50h-50v350zM600 150h150v-150h-150v150zM0 750h150v-150h-150v150z" />
    <glyph glyph-name="braceleft" unicode="{" horiz-adv-x="650" 
d="M150 900h50v50h100v-950h-100v50h-50v850zM350 150h150v-150h-150v150zM350 950h150v-150h-150v150zM0 550h100v-150h-100v150z" />
    <glyph glyph-name="bar" unicode="|" horiz-adv-x="300" 
d="M0 950h150v-950h-150v950z" />
    <glyph glyph-name="braceright" unicode="}" horiz-adv-x="650" 
d="M200 950h100v-50h50v-850h-50v-50h-100v950zM0 150h150v-150h-150v150zM0 950h150v-150h-150v150zM400 550h100v-150h-100v150z" />
    <glyph glyph-name="asciitilde" unicode="~" 
d="M50 500h50v50h50v50h100v-150h-50v-50h-50v-50h-100v150zM550 500h50v50h50v50h100v-150h-50v-50h-50v-50h-100v150zM300 600h100v-50h50v-50h50v-150h-100v50h-50v50h-50v150z" />
    <glyph glyph-name="exclamdown" unicode="&#xa1;" horiz-adv-x="300" 
d="M0 700h150v-700h-150v700zM0 950h150v-150h-150v150z" />
    <glyph glyph-name="cent" unicode="&#xa2;" 
d="M0 700h50v50h100v-750h-100v50h-50v650zM200 750h350v-150h-350v150zM400 550h150v-350h-150v350zM200 150h350v-150h-350v150zM600 750h150v-150h-150v150zM600 150h150v-150h-150v150zM400 900h150v-100h-150v100zM400 -50h150v-100h-150v100z" />
    <glyph glyph-name="sterling" unicode="&#xa3;" 
d="M200 900h50v50h100v-950h-150v900zM400 950h350v-150h-350v150zM400 150h250v-150h-250v150zM400 650h200v-150h-200v150zM0 650h150v-150h-150v150zM0 150h150v-150h-150v150z" />
    <glyph glyph-name="currency" unicode="&#xa4;" 
d="M150 700h150v-250h-150v250zM350 700h250v-150h-250v150zM450 500h150v-250h-150v250zM150 400h250v-150h-250v150zM500 800h50v50h200v-200h-50v-50h-50v150h-150v50zM0 300h50v50h50v-150h150v-50h-50v-50h-200v200zM0 850h200v-50h50v-50h-150v-150h-50v50h-50v200z
M500 200h150v150h50v-50h50v-200h-200v50h-50v50z" />
    <glyph glyph-name="yen" unicode="&#xa5;" 
d="M200 650h50v-50h50v-50h50v-50h50v50h50v50h50v50h50v-200h-50v-50h-50v-400h-150v400h-50v50h-50v200zM0 950h150v-400h-50v50h-50v50h-50v300zM600 950h150v-300h-50v-50h-50v-50h-50v400zM50 350h200v-100h-200v100zM500 150h200v-100h-200v100zM500 350h200v-100
h-200v100zM50 150h200v-100h-200v100z" />
    <glyph glyph-name="brokenbar" unicode="&#xa6;" horiz-adv-x="300" 
d="M0 450h150v-450h-150v450zM0 950h150v-400h-150v400z" />
    <glyph glyph-name="section" unicode="&#xa7;" 
d="M600 950h100v-50h50v-600h-50v-50h-100v700zM0 650h50v50h100v-700h-100v50h-50v600zM200 150h350v-150h-350v150zM200 950h350v-150h-350v150zM200 700h350v-150h-350v150zM200 400h350v-150h-350v150zM600 150h150v-150h-150v150zM0 950h150v-150h-150v150z" />
    <glyph glyph-name="dieresis" unicode="&#xa8;" horiz-adv-x="550" 
d="M0 950h150v-150h-150v150zM250 950h150v-150h-150v150z" />
    <glyph glyph-name="copyright" unicode="&#xa9;" horiz-adv-x="1150" 
d="M0 900h50v50h100v-950h-100v50h-50v850zM850 950h100v-50h50v-850h-50v-50h-100v950zM200 950h600v-150h-600v150zM200 150h600v-150h-600v150zM250 700h50v50h50v-550h-50v50h-50v450zM400 750h200v-100h-200v100zM400 300h200v-100h-200v100zM650 750h50v-50h50v-100
h-100v150zM650 350h100v-100h-50v-50h-50v150z" />
    <glyph glyph-name="ordfeminine" unicode="&#xaa;" 
d="M350 950h50v-50h50v-450h-100v500zM0 700h50v50h50v-300h-50v50h-50v200zM150 950h150v-100h-150v100zM150 750h150v-100h-150v100zM150 550h150v-100h-150v100zM0 950h100v-100h-100v100z" />
    <glyph glyph-name="guillemotleft" unicode="&#xab;" 
d="M200 750h50v50h50v50h150v-100h-50v-50h-50v-50h-50v-50h-50v-50h-50v200zM200 400h50v-50h50v-50h50v-50h50v-50h50v-100h-150v50h-50v50h-50v200zM500 400h50v-50h50v-50h50v-50h50v-50h50v-100h-150v50h-50v50h-50v200zM500 750h50v50h50v50h150v-100h-50v-50h-50v-50
h-50v-50h-50v-50h-50v200zM0 550h50v50h50v50h50v-350h-50v50h-50v50h-50v150zM300 550h50v50h50v50h50v-350h-50v50h-50v50h-50v150z" />
    <glyph glyph-name="logicalnot" unicode="&#xac;" 
d="M200 950h350v-150h-350v150zM600 950h150v-300h-150v300zM0 950h150v-150h-150v150z" />
    <glyph glyph-name="uni00AD" unicode="&#xad;" horiz-adv-x="500" 
d="M0 550h350v-150h-350v150z" />
    <glyph glyph-name="registered" unicode="&#xae;" horiz-adv-x="1150" 
d="M0 900h50v50h100v-950h-100v50h-50v850zM850 950h100v-50h50v-850h-50v-50h-100v950zM200 950h600v-150h-600v150zM200 150h600v-150h-600v150zM400 750h300v-50h50v-250h-50v-50h-50v250h-250v100zM250 750h100v-550h-100v550zM550 350h150v-50h50v-100h-100v50h-50v50
h-50v50zM400 500h200v-100h-200v100z" />
    <glyph glyph-name="degree" unicode="&#xb0;" horiz-adv-x="600" 
d="M0 650h50v50h100v-250h-150v200zM300 500h150v-200h-50v-50h-100v250zM0 400h250v-150h-200v50h-50v100zM200 700h200v-50h50v-100h-250v150z" />
    <glyph glyph-name="plusminus" unicode="&#xb1;" 
d="M300 900h150v-650h-150v650zM50 650h200v-150h-200v150zM500 650h200v-150h-200v150zM50 150h200v-150h-200v150zM500 150h200v-150h-200v150zM300 150h150v-150h-150v150z" />
    <glyph glyph-name="twosuperior" unicode="&#xb2;" horiz-adv-x="600" 
d="M0 650h50v50h50v-250h-100v200zM350 950h50v-50h50v-150h-50v-50h-50v250zM150 750h150v-100h-150v100zM150 550h150v-100h-150v100zM150 950h150v-100h-150v100zM350 550h100v-100h-100v100zM0 950h100v-100h-100v100z" />
    <glyph glyph-name="threesuperior" unicode="&#xb3;" horiz-adv-x="600" 
d="M350 950h50v-50h50v-150h-50v-100h50v-150h-50v-50h-50v500zM150 950h150v-100h-150v100zM150 550h150v-100h-150v100zM150 750h150v-100h-150v100zM0 950h100v-100h-100v100zM0 550h100v-100h-100v100z" />
    <glyph glyph-name="acute" unicode="&#xb4;" horiz-adv-x="450" 
d="M0 750h50v50h50v50h50v50h50v50h100v-150h-50v-50h-50v-50h-50v-50h-150v100z" />
    <glyph glyph-name="mu" unicode="&#xb5;" 
d="M0 950h150v-1050h-150v1050zM600 950h150v-950h-150v950zM200 400h50v-50h50v-50h50v-50h50v50h50v50h50v50h50v-200h-50v-50h-50v-50h-50v-50h-50v50h-50v50h-50v50h-50v200z" />
    <glyph glyph-name="paragraph" unicode="&#xb6;" horiz-adv-x="1050" 
d="M200 950h150v-950h-150v950zM600 950h150v-950h-150v950zM0 900h50v50h100v-300h-100v50h-50v200zM400 950h150v-150h-150v150zM800 950h100v-150h-100v150z" />
    <glyph glyph-name="periodcentered" unicode="&#xb7;" horiz-adv-x="300" 
d="M0 550h150v-150h-150v150z" />
    <glyph glyph-name="cedilla" unicode="&#xb8;" horiz-adv-x="500" 
d="M200 -50h150v-200h-50v-50h-100v250zM0 -150h150v-150h-150v150z" />
    <glyph glyph-name="onesuperior" unicode="&#xb9;" horiz-adv-x="550" 
d="M150 950h100v-500h-100v500zM0 550h100v-100h-100v100zM0 950h100v-100h-100v100zM300 550h100v-100h-100v100z" />
    <glyph glyph-name="ordmasculine" unicode="&#xba;" horiz-adv-x="600" 
d="M0 900h50v50h50v-500h-50v50h-50v400zM350 950h50v-50h50v-400h-50v-50h-50v500zM150 950h150v-100h-150v100zM150 550h150v-100h-150v100z" />
    <glyph glyph-name="guillemotright" unicode="&#xbb;" 
d="M0 850h150v-50h50v-50h50v-200h-50v50h-50v50h-50v50h-50v50h-50v100zM300 850h150v-50h50v-50h50v-200h-50v50h-50v50h-50v50h-50v50h-50v100zM0 200h50v50h50v50h50v50h50v50h50v-200h-50v-50h-50v-50h-150v100zM300 200h50v50h50v50h50v50h50v50h50v-200h-50v-50h-50
v-50h-150v100zM300 650h50v-50h50v-50h50v-150h-50v-50h-50v-50h-50v350zM600 650h50v-50h50v-50h50v-150h-50v-50h-50v-50h-50v350z" />
    <glyph glyph-name="onequarter" unicode="&#xbc;" horiz-adv-x="1450" 
d="M450 400h50v50h50v50h50v50h50v50h50v50h50v50h50v-200h-50v-50h-50v-50h-50v-50h-50v-50h-50v-50h-50v-50h-50v200zM150 950h100v-500h-100v500zM1200 500h100v-500h-100v500zM850 900h150v-200h-50v-50h-50v-50h-50v300zM250 200h50v50h50v50h50v-300h-150v200z
M850 500h100v-300h-100v300zM1000 300h150v-100h-150v100zM0 950h100v-100h-100v100zM0 550h100v-100h-100v100zM300 550h100v-100h-100v100z" />
    <glyph glyph-name="onehalf" unicode="&#xbd;" horiz-adv-x="1450" 
d="M450 400h50v50h50v50h50v50h50v50h50v50h50v50h50v-200h-50v-50h-50v-50h-50v-50h-50v-50h-50v-50h-50v-50h-50v200zM150 950h100v-500h-100v500zM850 900h150v-200h-50v-50h-50v-50h-50v300zM250 200h50v50h50v50h50v-300h-150v200zM850 200h50v50h50v-250h-100v200z
M1200 500h50v-50h50v-150h-50v-50h-50v250zM1000 100h150v-100h-150v100zM1000 500h150v-100h-150v100zM1000 300h150v-100h-150v100zM1200 100h100v-100h-100v100zM850 500h100v-100h-100v100zM0 950h100v-100h-100v100zM0 550h100v-100h-100v100zM300 550h100v-100h-100
v100z" />
    <glyph glyph-name="threequarters" unicode="&#xbe;" horiz-adv-x="1450" 
d="M450 400h50v50h50v50h50v50h50v50h50v50h50v50h50v-200h-50v-50h-50v-50h-50v-50h-50v-50h-50v-50h-50v-50h-50v200zM1200 500h100v-500h-100v500zM350 950h50v-50h50v-150h-50v-100h50v-150h-50v-50h-50v500zM850 900h150v-200h-50v-50h-50v-50h-50v300zM250 200h50v50
h50v50h50v-300h-150v200zM850 500h100v-300h-100v300zM150 950h150v-100h-150v100zM150 750h150v-100h-150v100zM150 550h150v-100h-150v100zM1000 300h150v-100h-150v100zM0 950h100v-100h-100v100zM0 550h100v-100h-100v100z" />
    <glyph glyph-name="questiondown" unicode="&#xbf;" 
d="M0 500h50v50h100v-550h-100v50h-50v450zM200 550h100v200h150v-300h-50v-50h-200v150zM200 150h350v-150h-350v150zM600 300h150v-250h-50v-50h-100v300zM300 950h150v-150h-150v150z" />
    <glyph glyph-name="Agrave" unicode="&#xc0;" 
d="M0 900h50v50h100v-950h-150v900zM600 950h100v-50h50v-900h-150v950zM200 950h350v-150h-350v150zM200 550h350v-150h-350v150zM150 1200h150v-50h50v-50h50v-50h50v-50h-150v50h-50v50h-50v50h-50v50z" />
    <glyph glyph-name="Aacute" unicode="&#xc1;" 
d="M0 900h50v50h100v-950h-150v900zM600 950h100v-50h50v-900h-150v950zM200 950h350v-150h-350v150zM200 550h350v-150h-350v150zM300 1050h50v50h50v50h50v50h150v-50h-50v-50h-50v-50h-50v-50h-150v50z" />
    <glyph glyph-name="Acircumflex" unicode="&#xc2;" 
d="M0 900h50v50h100v-950h-150v900zM600 950h100v-50h50v-900h-150v950zM200 950h350v-150h-350v150zM200 550h350v-150h-350v150zM150 1100h50v50h50v50h100v-100h-50v-50h-50v-50h-100v100zM400 1200h100v-50h50v-50h50v-100h-100v50h-50v50h-50v100z" />
    <glyph glyph-name="Atilde" unicode="&#xc3;" 
d="M0 900h50v50h100v-950h-150v900zM600 950h100v-50h50v-900h-150v950zM200 950h350v-150h-350v150zM200 550h350v-150h-350v150zM550 1100h50v50h50v50h100v-100h-50v-50h-50v-50h-100v100zM50 1100h50v50h50v50h100v-100h-50v-50h-50v-50h-100v100zM300 1200h100v-50h50
v-50h50v-100h-100v50h-50v50h-50v100z" />
    <glyph glyph-name="Adieresis" unicode="&#xc4;" 
d="M0 900h50v50h100v-950h-150v900zM600 950h100v-50h50v-900h-150v950zM200 950h350v-150h-350v150zM200 550h350v-150h-350v150zM150 1200h150v-150h-150v150zM450 1200h150v-150h-150v150z" />
    <glyph glyph-name="Aring" unicode="&#xc5;" 
d="M0 900h50v50h100v-950h-150v900zM600 950h100v-50h50v-900h-150v950zM200 950h350v-150h-350v150zM200 550h350v-150h-350v150zM150 1150h50v50h50v-200h-100v150zM500 1200h50v-50h50v-150h-100v200zM300 1200h150v-100h-150v100z" />
    <glyph glyph-name="AE" unicode="&#xc6;" horiz-adv-x="1300" 
d="M500 950h150v-950h-150v950zM0 900h50v50h100v-950h-150v900zM700 950h250v-150h-250v150zM200 950h250v-150h-250v150zM700 150h250v-150h-250v150zM200 550h250v-150h-250v150zM700 550h250v-150h-250v150zM1000 950h150v-150h-150v150zM1000 150h150v-150h-150v150z
" />
    <glyph glyph-name="Ccedilla" unicode="&#xc7;" 
d="M0 900h50v50h100v-950h-100v50h-50v850zM200 950h350v-150h-350v150zM200 150h350v-150h-350v150zM400 -50h150v-200h-50v-50h-100v250zM200 -150h150v-150h-150v150zM600 150h150v-150h-150v150zM600 950h150v-150h-150v150z" />
    <glyph glyph-name="Egrave" unicode="&#xc8;" 
d="M0 950h150v-950h-150v950zM200 950h550v-150h-550v150zM200 150h550v-150h-550v150zM200 550h350v-150h-350v150zM150 1200h150v-50h50v-50h50v-50h50v-50h-150v50h-50v50h-50v50h-50v50z" />
    <glyph glyph-name="Eacute" unicode="&#xc9;" 
d="M0 950h150v-950h-150v950zM200 950h550v-150h-550v150zM200 150h550v-150h-550v150zM200 550h350v-150h-350v150zM300 1050h50v50h50v50h50v50h150v-50h-50v-50h-50v-50h-50v-50h-150v50z" />
    <glyph glyph-name="Ecircumflex" unicode="&#xca;" 
d="M0 950h150v-950h-150v950zM200 150h550v-150h-550v150zM200 950h550v-150h-550v150zM200 550h350v-150h-350v150zM150 1100h50v50h50v50h100v-100h-50v-50h-50v-50h-100v100zM400 1200h100v-50h50v-50h50v-100h-100v50h-50v50h-50v100z" />
    <glyph glyph-name="Edieresis" unicode="&#xcb;" 
d="M0 950h150v-950h-150v950zM200 150h550v-150h-550v150zM200 950h550v-150h-550v150zM200 550h350v-150h-350v150zM150 1200h150v-150h-150v150zM450 1200h150v-150h-150v150z" />
    <glyph glyph-name="Igrave" unicode="&#xcc;" 
d="M300 950h150v-950h-150v950zM0 950h250v-150h-250v150zM500 950h250v-150h-250v150zM0 150h250v-150h-250v150zM500 150h250v-150h-250v150zM150 1200h150v-50h50v-50h50v-50h50v-50h-150v50h-50v50h-50v50h-50v50z" />
    <glyph glyph-name="Iacute" unicode="&#xcd;" 
d="M300 950h150v-950h-150v950zM0 950h250v-150h-250v150zM500 950h250v-150h-250v150zM0 150h250v-150h-250v150zM500 150h250v-150h-250v150zM300 1050h50v50h50v50h50v50h150v-50h-50v-50h-50v-50h-50v-50h-150v50z" />
    <glyph glyph-name="Icircumflex" unicode="&#xce;" 
d="M300 950h150v-950h-150v950zM500 950h250v-150h-250v150zM500 150h250v-150h-250v150zM0 950h250v-150h-250v150zM0 150h250v-150h-250v150zM400 1200h100v-50h50v-50h50v-100h-100v50h-50v50h-50v100zM150 1100h50v50h50v50h100v-100h-50v-50h-50v-50h-100v100z" />
    <glyph glyph-name="Idieresis" unicode="&#xcf;" 
d="M300 950h150v-950h-150v950zM500 950h250v-150h-250v150zM0 950h250v-150h-250v150zM0 150h250v-150h-250v150zM500 150h250v-150h-250v150zM150 1200h150v-150h-150v150zM450 1200h150v-150h-150v150z" />
    <glyph glyph-name="Eth" unicode="&#xd0;" horiz-adv-x="1050" 
d="M150 950h150v-950h-150v950zM750 950h50v-50h50v-50h50v-750h-50v-50h-50v-50h-50v950zM350 150h350v-150h-350v150zM350 950h350v-150h-350v150zM350 550h200v-150h-200v150zM0 550h100v-150h-100v150z" />
    <glyph glyph-name="Ntilde" unicode="&#xd1;" 
d="M0 950h150v-950h-150v950zM600 950h150v-950h-150v950zM200 700h50v-50h50v-50h50v-50h50v-50h50v-50h50v-50h50v-200h-50v50h-50v50h-50v50h-50v50h-50v50h-50v50h-50v200zM50 1100h50v50h50v50h100v-100h-50v-50h-50v-50h-100v100zM550 1100h50v50h50v50h100v-100h-50
v-50h-50v-50h-100v100zM300 1200h100v-50h50v-50h50v-100h-100v50h-50v50h-50v100z" />
    <glyph glyph-name="Ograve" unicode="&#xd2;" 
d="M0 900h50v50h100v-950h-100v50h-50v850zM600 950h100v-50h50v-850h-50v-50h-100v950zM200 950h350v-150h-350v150zM200 150h350v-150h-350v150zM150 1200h150v-50h50v-50h50v-50h50v-50h-150v50h-50v50h-50v50h-50v50z" />
    <glyph glyph-name="Oacute" unicode="&#xd3;" 
d="M0 900h50v50h100v-950h-100v50h-50v850zM600 950h100v-50h50v-850h-50v-50h-100v950zM200 950h350v-150h-350v150zM200 150h350v-150h-350v150zM300 1050h50v50h50v50h50v50h150v-50h-50v-50h-50v-50h-50v-50h-150v50z" />
    <glyph glyph-name="Ocircumflex" unicode="&#xd4;" 
d="M0 900h50v50h100v-950h-100v50h-50v850zM600 950h100v-50h50v-850h-50v-50h-100v950zM200 150h350v-150h-350v150zM200 950h350v-150h-350v150zM150 1100h50v50h50v50h100v-100h-50v-50h-50v-50h-100v100zM400 1200h100v-50h50v-50h50v-100h-100v50h-50v50h-50v100z" />
    <glyph glyph-name="Otilde" unicode="&#xd5;" 
d="M0 900h50v50h100v-950h-100v50h-50v850zM600 950h100v-50h50v-850h-50v-50h-100v950zM200 950h350v-150h-350v150zM200 150h350v-150h-350v150zM50 1100h50v50h50v50h100v-100h-50v-50h-50v-50h-100v100zM550 1100h50v50h50v50h100v-100h-50v-50h-50v-50h-100v100z
M300 1200h100v-50h50v-50h50v-100h-100v50h-50v50h-50v100z" />
    <glyph glyph-name="Odieresis" unicode="&#xd6;" 
d="M0 900h50v50h100v-950h-100v50h-50v850zM600 950h100v-50h50v-850h-50v-50h-100v950zM200 150h350v-150h-350v150zM200 950h350v-150h-350v150zM150 1200h150v-150h-150v150zM450 1200h150v-150h-150v150z" />
    <glyph glyph-name="multiply" unicode="&#xd7;" horiz-adv-x="700" 
d="M0 750h150v-50h50v-50h50v-150h-150v50h-50v50h-50v150zM300 650h50v50h50v50h150v-150h-50v-50h-50v-50h-150v150zM0 350h50v50h50v50h150v-150h-50v-50h-50v-50h-150v150zM300 450h150v-50h50v-50h50v-150h-150v50h-50v50h-50v150z" />
    <glyph glyph-name="Oslash" unicode="&#xd8;" 
d="M0 900h50v50h100v-950h-100v50h-50v850zM600 950h100v-50h50v-850h-50v-50h-100v950zM200 400h50v50h50v50h50v50h50v50h50v50h50v50h50v-150h-50v-50h-50v-50h-50v-50h-50v-50h-50v-50h-50v-50h-50v150zM200 150h350v-150h-350v150zM200 950h350v-150h-350v150z" />
    <glyph glyph-name="Ugrave" unicode="&#xd9;" 
d="M0 950h150v-950h-100v50h-50v900zM600 950h150v-900h-50v-50h-100v950zM200 150h350v-150h-350v150zM150 1200h150v-50h50v-50h50v-50h50v-50h-150v50h-50v50h-50v50h-50v50z" />
    <glyph glyph-name="Uacute" unicode="&#xda;" 
d="M0 950h150v-950h-100v50h-50v900zM600 950h150v-900h-50v-50h-100v950zM200 150h350v-150h-350v150zM300 1050h50v50h50v50h50v50h150v-50h-50v-50h-50v-50h-50v-50h-150v50z" />
    <glyph glyph-name="Ucircumflex" unicode="&#xdb;" 
d="M0 950h150v-950h-100v50h-50v900zM600 950h150v-900h-50v-50h-100v950zM200 150h350v-150h-350v150zM150 1100h50v50h50v50h100v-100h-50v-50h-50v-50h-100v100zM400 1200h100v-50h50v-50h50v-100h-100v50h-50v50h-50v100z" />
    <glyph glyph-name="Udieresis" unicode="&#xdc;" 
d="M0 950h150v-950h-100v50h-50v900zM600 950h150v-900h-50v-50h-100v950zM200 150h350v-150h-350v150zM150 1200h150v-150h-150v150zM450 1200h150v-150h-150v150z" />
    <glyph glyph-name="Yacute" unicode="&#xdd;" 
d="M200 650h50v-50h50v-50h50v-50h50v50h50v50h50v50h50v-200h-50v-50h-50v-400h-150v400h-50v50h-50v200zM0 950h150v-400h-50v50h-50v50h-50v300zM600 950h150v-300h-50v-50h-50v-50h-50v400zM300 1050h50v50h50v50h50v50h150v-50h-50v-50h-50v-50h-50v-50h-150v50z" />
    <glyph glyph-name="Thorn" unicode="&#xde;" 
d="M0 950h150v-950h-150v950zM600 800h100v-50h50v-550h-50v-50h-100v650zM200 800h350v-150h-350v150zM200 300h350v-150h-350v150z" />
    <glyph glyph-name="germandbls" unicode="&#xdf;" 
d="M0 900h50v50h100v-950h-150v900zM550 950h100v-50h50v-350h-50v-50h-100v450zM550 450h100v-50h50v-350h-50v-50h-100v450zM200 550h300v-150h-300v150zM200 950h300v-150h-300v150zM300 150h200v-150h-200v150z" />
    <glyph glyph-name="agrave" unicode="&#xe0;" 
d="M600 750h100v-50h50v-700h-150v750zM0 400h50v50h100v-450h-100v50h-50v350zM200 450h350v-150h-350v150zM200 150h350v-150h-350v150zM200 750h350v-150h-350v150zM150 1000h150v-50h50v-50h50v-50h50v-50h-150v50h-50v50h-50v50h-50v50zM0 750h150v-150h-150v150z" />
    <glyph glyph-name="aacute" unicode="&#xe1;" 
d="M600 750h100v-50h50v-700h-150v750zM0 400h50v50h100v-450h-100v50h-50v350zM200 450h350v-150h-350v150zM200 150h350v-150h-350v150zM200 750h350v-150h-350v150zM300 850h50v50h50v50h50v50h150v-50h-50v-50h-50v-50h-50v-50h-150v50zM0 750h150v-150h-150v150z" />
    <glyph glyph-name="acircumflex" unicode="&#xe2;" 
d="M600 750h100v-50h50v-700h-150v750zM0 400h50v50h100v-450h-100v50h-50v350zM200 150h350v-150h-350v150zM200 750h350v-150h-350v150zM200 450h350v-150h-350v150zM150 900h50v50h50v50h100v-100h-50v-50h-50v-50h-100v100zM400 1000h100v-50h50v-50h50v-100h-100v50
h-50v50h-50v100zM0 750h150v-150h-150v150z" />
    <glyph glyph-name="atilde" unicode="&#xe3;" 
d="M600 750h100v-50h50v-700h-150v750zM0 400h50v50h100v-450h-100v50h-50v350zM200 150h350v-150h-350v150zM200 750h350v-150h-350v150zM200 450h350v-150h-350v150zM50 900h50v50h50v50h100v-100h-50v-50h-50v-50h-100v100zM550 900h50v50h50v50h100v-100h-50v-50h-50
v-50h-100v100zM300 1000h100v-50h50v-50h50v-100h-100v50h-50v50h-50v100zM0 750h150v-150h-150v150z" />
    <glyph glyph-name="adieresis" unicode="&#xe4;" 
d="M600 750h100v-50h50v-700h-150v750zM0 400h50v50h100v-450h-100v50h-50v350zM200 750h350v-150h-350v150zM200 150h350v-150h-350v150zM200 450h350v-150h-350v150zM0 750h150v-150h-150v150zM150 1000h150v-150h-150v150zM450 1000h150v-150h-150v150z" />
    <glyph glyph-name="aring" unicode="&#xe5;" 
d="M600 750h100v-50h50v-700h-150v750zM0 400h50v50h100v-450h-100v50h-50v350zM200 750h350v-150h-350v150zM200 150h350v-150h-350v150zM200 450h350v-150h-350v150zM0 750h150v-150h-150v150zM150 950h50v50h50v-200h-100v150zM500 1000h50v-50h50v-150h-100v200z
M300 1000h150v-100h-150v100z" />
    <glyph glyph-name="ae" unicode="&#xe6;" horiz-adv-x="1300" 
d="M500 750h150v-750h-150v750zM1000 750h100v-50h50v-350h-50v-50h-100v450zM0 400h50v50h100v-450h-100v50h-50v350zM700 750h250v-150h-250v150zM200 450h250v-150h-250v150zM200 150h250v-150h-250v150zM200 750h250v-150h-250v150zM700 450h250v-150h-250v150zM700 150
h250v-150h-250v150zM1000 150h150v-150h-150v150zM0 750h150v-150h-150v150z" />
    <glyph glyph-name="ccedilla" unicode="&#xe7;" 
d="M0 700h50v50h100v-750h-100v50h-50v650zM200 150h350v-150h-350v150zM200 750h350v-150h-350v150zM400 -50h150v-200h-50v-50h-100v250zM200 -150h150v-150h-150v150zM600 150h150v-150h-150v150zM600 750h150v-150h-150v150z" />
    <glyph glyph-name="egrave" unicode="&#xe8;" 
d="M0 700h50v50h100v-750h-100v50h-50v650zM600 750h100v-50h50v-350h-50v-50h-100v450zM200 750h350v-150h-350v150zM200 150h350v-150h-350v150zM200 450h350v-150h-350v150zM150 1000h150v-50h50v-50h50v-50h50v-50h-150v50h-50v50h-50v50h-50v50zM600 150h150v-150h-150
v150z" />
    <glyph glyph-name="eacute" unicode="&#xe9;" 
d="M0 700h50v50h100v-750h-100v50h-50v650zM600 750h100v-50h50v-350h-50v-50h-100v450zM200 750h350v-150h-350v150zM200 150h350v-150h-350v150zM200 450h350v-150h-350v150zM300 850h50v50h50v50h50v50h150v-50h-50v-50h-50v-50h-50v-50h-150v50zM600 150h150v-150h-150
v150z" />
    <glyph glyph-name="ecircumflex" unicode="&#xea;" 
d="M0 700h50v50h100v-750h-100v50h-50v650zM600 750h100v-50h50v-350h-50v-50h-100v450zM200 150h350v-150h-350v150zM200 750h350v-150h-350v150zM200 450h350v-150h-350v150zM150 900h50v50h50v50h100v-100h-50v-50h-50v-50h-100v100zM400 1000h100v-50h50v-50h50v-100
h-100v50h-50v50h-50v100zM600 150h150v-150h-150v150z" />
    <glyph glyph-name="edieresis" unicode="&#xeb;" 
d="M0 700h50v50h100v-750h-100v50h-50v650zM600 750h100v-50h50v-350h-50v-50h-100v450zM200 150h350v-150h-350v150zM200 450h350v-150h-350v150zM200 750h350v-150h-350v150zM600 150h150v-150h-150v150zM150 1000h150v-150h-150v150zM450 1000h150v-150h-150v150z" />
    <glyph glyph-name="igrave" unicode="&#xec;" horiz-adv-x="700" 
d="M200 750h150v-750h-150v750zM50 1000h150v-50h50v-50h50v-50h50v-50h-150v50h-50v50h-50v50h-50v50zM0 750h150v-150h-150v150zM0 150h150v-150h-150v150zM400 150h150v-150h-150v150zM400 750h150v-150h-150v150z" />
    <glyph glyph-name="iacute" unicode="&#xed;" horiz-adv-x="700" 
d="M200 750h150v-750h-150v750zM200 850h50v50h50v50h50v50h150v-50h-50v-50h-50v-50h-50v-50h-150v50zM0 750h150v-150h-150v150zM0 150h150v-150h-150v150zM400 150h150v-150h-150v150zM400 750h150v-150h-150v150z" />
    <glyph glyph-name="icircumflex" unicode="&#xee;" horiz-adv-x="700" 
d="M200 750h150v-750h-150v750zM50 900h50v50h50v50h100v-100h-50v-50h-50v-50h-100v100zM300 1000h100v-50h50v-50h50v-100h-100v50h-50v50h-50v100zM400 750h150v-150h-150v150zM0 150h150v-150h-150v150zM0 750h150v-150h-150v150zM400 150h150v-150h-150v150z" />
    <glyph glyph-name="idieresis" unicode="&#xef;" horiz-adv-x="700" 
d="M200 750h150v-750h-150v750zM0 750h150v-150h-150v150zM0 150h150v-150h-150v150zM400 150h150v-150h-150v150zM50 1000h150v-150h-150v150zM350 1000h150v-150h-150v150zM400 750h150v-150h-150v150z" />
    <glyph glyph-name="eth" unicode="&#xf0;" 
d="M600 950h50v-50h50v-50h50v-800h-50v-50h-100v950zM0 700h50v50h100v-750h-100v50h-50v650zM200 750h350v-150h-350v150zM200 150h350v-150h-350v150zM300 950h250v-150h-250v150z" />
    <glyph glyph-name="ntilde" unicode="&#xf1;" 
d="M0 750h150v-750h-150v750zM600 750h100v-50h50v-700h-150v750zM200 750h350v-150h-350v150zM50 900h50v50h50v50h100v-100h-50v-50h-50v-50h-100v100zM550 900h50v50h50v50h100v-100h-50v-50h-50v-50h-100v100zM300 1000h100v-50h50v-50h50v-100h-100v50h-50v50h-50v100z
" />
    <glyph glyph-name="ograve" unicode="&#xf2;" 
d="M0 700h50v50h100v-750h-100v50h-50v650zM600 750h100v-50h50v-650h-50v-50h-100v750zM200 750h350v-150h-350v150zM200 150h350v-150h-350v150zM150 1000h150v-50h50v-50h50v-50h50v-50h-150v50h-50v50h-50v50h-50v50z" />
    <glyph glyph-name="oacute" unicode="&#xf3;" 
d="M0 700h50v50h100v-750h-100v50h-50v650zM600 750h100v-50h50v-650h-50v-50h-100v750zM200 750h350v-150h-350v150zM200 150h350v-150h-350v150zM300 850h50v50h50v50h50v50h150v-50h-50v-50h-50v-50h-50v-50h-150v50z" />
    <glyph glyph-name="ocircumflex" unicode="&#xf4;" 
d="M0 700h50v50h100v-750h-100v50h-50v650zM600 750h100v-50h50v-650h-50v-50h-100v750zM200 150h350v-150h-350v150zM200 750h350v-150h-350v150zM150 900h50v50h50v50h100v-100h-50v-50h-50v-50h-100v100zM400 1000h100v-50h50v-50h50v-100h-100v50h-50v50h-50v100z" />
    <glyph glyph-name="otilde" unicode="&#xf5;" 
d="M0 700h50v50h100v-750h-100v50h-50v650zM600 750h100v-50h50v-650h-50v-50h-100v750zM200 750h350v-150h-350v150zM200 150h350v-150h-350v150zM50 900h50v50h50v50h100v-100h-50v-50h-50v-50h-100v100zM550 900h50v50h50v50h100v-100h-50v-50h-50v-50h-100v100z
M300 1000h100v-50h50v-50h50v-100h-100v50h-50v50h-50v100z" />
    <glyph glyph-name="odieresis" unicode="&#xf6;" 
d="M0 700h50v50h100v-750h-100v50h-50v650zM600 750h100v-50h50v-650h-50v-50h-100v750zM200 150h350v-150h-350v150zM200 750h350v-150h-350v150zM150 1000h150v-150h-150v150zM450 1000h150v-150h-150v150z" />
    <glyph glyph-name="divide" unicode="&#xf7;" horiz-adv-x="800" 
d="M0 550h650v-150h-650v150zM250 800h150v-200h-150v200zM250 350h150v-200h-150v200z" />
    <glyph glyph-name="oslash" unicode="&#xf8;" 
d="M0 700h50v50h100v-750h-100v50h-50v650zM600 750h100v-50h50v-650h-50v-50h-100v750zM200 150h350v-150h-350v150zM200 750h350v-150h-350v150zM200 300h50v50h50v50h50v50h50v50h50v50h100v-100h-50v-50h-50v-50h-50v-50h-50v-50h-50v-50h-100v100z" />
    <glyph glyph-name="ugrave" unicode="&#xf9;" 
d="M0 750h150v-750h-100v50h-50v700zM600 750h150v-700h-50v-50h-100v750zM200 150h350v-150h-350v150zM150 1000h150v-50h50v-50h50v-50h50v-50h-150v50h-50v50h-50v50h-50v50z" />
    <glyph glyph-name="uacute" unicode="&#xfa;" 
d="M0 750h150v-750h-100v50h-50v700zM600 750h150v-700h-50v-50h-100v750zM200 150h350v-150h-350v150zM300 850h50v50h50v50h50v50h150v-50h-50v-50h-50v-50h-50v-50h-150v50z" />
    <glyph glyph-name="ucircumflex" unicode="&#xfb;" 
d="M0 750h150v-750h-100v50h-50v700zM600 750h150v-700h-50v-50h-100v750zM200 150h350v-150h-350v150zM150 900h50v50h50v50h100v-100h-50v-50h-50v-50h-100v100zM400 1000h100v-50h50v-50h50v-100h-100v50h-50v50h-50v100z" />
    <glyph glyph-name="udieresis" unicode="&#xfc;" 
d="M0 750h150v-750h-100v50h-50v700zM600 750h150v-700h-50v-50h-100v750zM200 150h350v-150h-350v150zM150 1000h150v-150h-150v150zM450 1000h150v-150h-150v150z" />
    <glyph glyph-name="yacute" unicode="&#xfd;" 
d="M600 750h150v-1000h-50v-50h-100v1050zM0 750h150v-750h-100v50h-50v700zM200 -150h350v-150h-350v150zM200 150h350v-150h-350v150zM0 -150h150v-150h-150v150z" />
    <glyph glyph-name="thorn" unicode="&#xfe;" 
d="M0 900h150v-1050h-150v1050zM600 750h100v-50h50v-650h-50v-50h-100v750zM200 750h350v-150h-350v150zM200 150h350v-150h-350v150z" />
    <glyph glyph-name="ydieresis" unicode="&#xff;" 
d="M600 750h150v-1000h-50v-50h-100v1050zM0 750h150v-750h-100v50h-50v700zM200 -150h350v-150h-350v150zM200 150h350v-150h-350v150zM300 850h50v50h50v50h50v50h150v-50h-50v-50h-50v-50h-50v-50h-150v50zM0 -150h150v-150h-150v150z" />
    <glyph glyph-name="OE" unicode="&#x152;" horiz-adv-x="1300" 
d="M500 950h150v-950h-150v950zM0 900h50v50h100v-950h-100v50h-50v850zM700 950h250v-150h-250v150zM200 150h250v-150h-250v150zM200 950h250v-150h-250v150zM700 150h250v-150h-250v150zM700 550h250v-150h-250v150zM1000 950h150v-150h-150v150zM1000 150h150v-150h-150
v150z" />
    <glyph glyph-name="oe" unicode="&#x153;" horiz-adv-x="1300" 
d="M500 750h150v-750h-150v750zM0 700h50v50h100v-750h-100v50h-50v650zM1000 750h100v-50h50v-350h-50v-50h-100v450zM700 750h250v-150h-250v150zM200 150h250v-150h-250v150zM700 150h250v-150h-250v150zM200 750h250v-150h-250v150zM700 450h250v-150h-250v150z
M1000 150h150v-150h-150v150z" />
    <glyph glyph-name="Scaron" unicode="&#x160;" 
d="M0 900h50v50h100v-550h-100v50h-50v450zM600 550h100v-50h50v-450h-50v-50h-100v550zM200 550h350v-150h-350v150zM200 150h350v-150h-350v150zM200 950h350v-150h-350v150zM400 1100h50v50h50v50h100v-100h-50v-50h-50v-50h-100v100zM150 1200h100v-50h50v-50h50v-100
h-100v50h-50v50h-50v100zM0 150h150v-150h-150v150zM600 950h150v-150h-150v150z" />
    <glyph glyph-name="scaron" unicode="&#x161;" 
d="M0 700h50v50h100v-450h-100v50h-50v350zM600 450h100v-50h50v-350h-50v-50h-100v450zM200 150h350v-150h-350v150zM200 450h350v-150h-350v150zM200 750h350v-150h-350v150zM400 900h50v50h50v50h100v-100h-50v-50h-50v-50h-100v100zM150 1000h100v-50h50v-50h50v-100
h-100v50h-50v50h-50v100zM0 150h150v-150h-150v150zM600 750h150v-150h-150v150z" />
    <glyph glyph-name="Ydieresis" unicode="&#x178;" 
d="M200 650h50v-50h50v-50h50v-50h50v50h50v50h50v50h50v-200h-50v-50h-50v-400h-150v400h-50v50h-50v200zM0 950h150v-400h-50v50h-50v50h-50v300zM600 950h150v-300h-50v-50h-50v-50h-50v400zM150 1200h150v-150h-150v150zM450 1200h150v-150h-150v150z" />
    <glyph glyph-name="Zcaron" unicode="&#x17d;" 
d="M200 400h50v50h50v50h50v50h50v50h50v50h50v50h50v-200h-50v-50h-50v-50h-50v-50h-50v-50h-50v-50h-50v-50h-50v200zM200 950h350v-150h-350v150zM200 150h350v-150h-350v150zM600 950h150v-250h-50v-50h-50v-50h-50v350zM0 200h50v50h50v50h50v-300h-150v200zM150 1200
h100v-50h50v-50h50v-100h-100v50h-50v50h-50v100zM400 1100h50v50h50v50h100v-100h-50v-50h-50v-50h-100v100zM600 150h150v-150h-150v150zM0 950h150v-150h-150v150z" />
    <glyph glyph-name="zcaron" unicode="&#x17e;" 
d="M200 750h350v-150h-350v150zM200 450h350v-150h-350v150zM200 150h350v-150h-350v150zM600 750h150v-250h-50v-50h-50v-50h-50v350zM0 250h50v50h50v50h50v-350h-150v250zM150 1000h100v-50h50v-50h50v-100h-100v50h-50v50h-50v100zM400 900h50v50h50v50h100v-100h-50
v-50h-50v-50h-100v100zM600 150h150v-150h-150v150zM0 750h150v-150h-150v150z" />
    <glyph glyph-name="florin" unicode="&#x192;" 
d="M200 900h50v50h100v-900h-50v-50h-100v900zM400 950h350v-150h-350v150zM400 650h200v-150h-200v150zM0 650h150v-150h-150v150zM0 150h150v-150h-150v150z" />
    <glyph glyph-name="circumflex" unicode="&#x2c6;" horiz-adv-x="600" 
d="M0 750h50v50h50v50h50v50h50v-200h-50v-50h-50v-50h-100v150zM250 900h50v-50h50v-50h50v-50h50v-150h-100v50h-50v50h-50v200z" />
    <glyph glyph-name="tilde" unicode="&#x2dc;" horiz-adv-x="850" 
d="M250 950h100v-50h50v-50h50v-150h-100v50h-50v50h-50v150zM500 850h50v50h150v-100h-50v-50h-50v-50h-100v150zM0 850h50v50h50v50h100v-150h-50v-50h-150v100z" />
    <glyph glyph-name="afii10023" unicode="&#x401;" 
d="M0 950h150v-950h-150v950zM200 150h550v-150h-550v150zM200 950h550v-150h-550v150zM200 550h350v-150h-350v150zM150 1200h150v-150h-150v150zM450 1200h150v-150h-150v150z" />
    <glyph glyph-name="afii10051" unicode="&#x402;" horiz-adv-x="1100" 
d="M200 950h150v-950h-150v950zM800 750h100v-50h50v-650h-50v-50h-100v750zM400 750h350v-150h-350v150zM500 150h250v-150h-250v150zM400 950h200v-150h-200v150zM0 950h150v-150h-150v150z" />
    <glyph glyph-name="afii10052" unicode="&#x403;" 
d="M0 950h150v-950h-150v950zM200 950h350v-150h-350v150zM300 1050h50v50h50v50h50v50h150v-50h-50v-50h-50v-50h-50v-50h-150v50zM600 950h150v-150h-150v150z" />
    <glyph glyph-name="afii10053" unicode="&#x404;" 
d="M0 900h50v50h100v-950h-100v50h-50v850zM200 950h350v-150h-350v150zM200 150h350v-150h-350v150zM200 550h250v-150h-250v150zM600 950h150v-150h-150v150zM600 150h150v-150h-150v150z" />
    <glyph glyph-name="afii10054" unicode="&#x405;" 
d="M0 900h50v50h100v-550h-100v50h-50v450zM600 550h100v-50h50v-450h-50v-50h-100v550zM200 150h350v-150h-350v150zM200 550h350v-150h-350v150zM200 950h350v-150h-350v150zM0 150h150v-150h-150v150zM600 950h150v-150h-150v150z" />
    <glyph glyph-name="afii10055" unicode="&#x406;" 
d="M300 950h150v-950h-150v950zM0 950h250v-150h-250v150zM500 950h250v-150h-250v150zM0 150h250v-150h-250v150zM500 150h250v-150h-250v150z" />
    <glyph glyph-name="afii10056" unicode="&#x407;" 
d="M300 950h150v-950h-150v950zM500 950h250v-150h-250v150zM0 950h250v-150h-250v150zM0 150h250v-150h-250v150zM500 150h250v-150h-250v150zM150 1200h150v-150h-150v150zM450 1200h150v-150h-150v150z" />
    <glyph glyph-name="afii10057" unicode="&#x408;" 
d="M600 950h150v-900h-50v-50h-100v950zM0 400h150v-400h-100v50h-50v350zM200 950h350v-150h-350v150zM200 150h350v-150h-350v150zM0 950h150v-150h-150v150z" />
    <glyph glyph-name="afii10058" unicode="&#x409;" horiz-adv-x="1300" 
d="M500 950h150v-950h-150v950zM0 750h50v50h50v50h50v-850h-150v750zM1000 550h100v-50h50v-450h-50v-50h-100v550zM200 950h250v-150h-250v150zM700 550h250v-150h-250v150zM700 150h250v-150h-250v150z" />
    <glyph glyph-name="afii10059" unicode="&#x40a;" horiz-adv-x="1300" 
d="M0 950h150v-950h-150v950zM500 950h150v-950h-150v950zM1000 550h100v-50h50v-450h-50v-50h-100v550zM700 550h250v-150h-250v150zM200 550h250v-150h-250v150zM700 150h250v-150h-250v150z" />
    <glyph glyph-name="afii10060" unicode="&#x40b;" horiz-adv-x="1100" 
d="M200 950h150v-950h-150v950zM800 750h100v-50h50v-700h-150v750zM400 750h350v-150h-350v150zM400 950h200v-150h-200v150zM0 950h150v-150h-150v150z" />
    <glyph glyph-name="afii10061" unicode="&#x40c;" 
d="M0 950h150v-950h-150v950zM200 550h50v50h50v50h50v50h50v50h50v50h50v50h50v-200h-50v-50h-50v-50h-50v-150h50v-50h50v-50h50v-200h-50v50h-50v50h-50v50h-50v50h-50v50h-50v50h-50v150zM300 1050h50v50h50v50h50v50h150v-50h-50v-50h-50v-50h-50v-50h-150v50zM600 200
h50v-50h50v-50h50v-100h-150v200zM600 950h150v-100h-50v-50h-50v-50h-50v200z" />
    <glyph glyph-name="afii10062" unicode="&#x40e;" 
d="M200 650h50v-50h50v-50h50v-50h50v50h50v50h50v50h50v-200h-50v-50h-50v-400h-150v400h-50v50h-50v200zM0 950h150v-400h-50v50h-50v50h-50v300zM600 950h150v-300h-50v-50h-50v-50h-50v400zM400 1100h50v50h50v50h100v-100h-50v-50h-50v-50h-100v100zM150 1200h100v-50
h50v-50h50v-100h-100v50h-50v50h-50v100z" />
    <glyph glyph-name="afii10145" unicode="&#x40f;" 
d="M0 950h150v-950h-150v950zM600 950h150v-950h-150v950zM200 150h350v-150h-350v150zM300 -50h150v-150h-150v150z" />
    <glyph glyph-name="afii10017" unicode="&#x410;" 
d="M0 900h50v50h100v-950h-150v900zM600 950h100v-50h50v-900h-150v950zM200 550h350v-150h-350v150zM200 950h350v-150h-350v150z" />
    <glyph glyph-name="afii10018" unicode="&#x411;" 
d="M0 950h150v-950h-150v950zM600 550h100v-50h50v-450h-50v-50h-100v550zM200 150h350v-150h-350v150zM200 550h350v-150h-350v150zM200 950h350v-150h-350v150zM600 950h150v-150h-150v150z" />
    <glyph glyph-name="afii10019" unicode="&#x412;" 
d="M0 950h150v-950h-150v950zM600 950h100v-50h50v-350h-50v-50h-100v450zM600 450h100v-50h50v-350h-50v-50h-100v450zM200 550h350v-150h-350v150zM200 150h350v-150h-350v150zM200 950h350v-150h-350v150z" />
    <glyph glyph-name="afii10020" unicode="&#x413;" 
d="M0 950h150v-950h-150v950zM200 950h350v-150h-350v150zM600 950h150v-150h-150v150z" />
    <glyph glyph-name="afii10021" unicode="&#x414;" horiz-adv-x="1100" 
d="M200 900h50v50h100v-950h-150v900zM600 950h100v-50h50v-900h-150v950zM0 100h50v50h100v-300h-150v250zM800 150h100v-50h50v-250h-150v300zM400 150h150v-150h-150v150zM400 950h150v-150h-150v150z" />
    <glyph glyph-name="afii10022" unicode="&#x415;" 
d="M0 950h150v-950h-150v950zM200 150h550v-150h-550v150zM200 950h550v-150h-550v150zM200 550h350v-150h-350v150z" />
    <glyph glyph-name="afii10024" unicode="&#x416;" 
d="M0 950h150v-450h-100v50h-50v400zM600 950h150v-400h-50v-50h-100v450zM0 400h50v50h100v-450h-150v400zM600 450h100v-50h50v-400h-150v450zM300 350h150v-350h-150v350zM200 550h350v-150h-350v150zM300 950h150v-350h-150v350z" />
    <glyph glyph-name="afii10025" unicode="&#x417;" 
d="M600 950h100v-50h50v-350h-50v-50h-100v450zM600 450h100v-50h50v-350h-50v-50h-100v450zM200 950h350v-150h-350v150zM200 150h350v-150h-350v150zM250 550h300v-150h-300v150zM0 150h150v-150h-150v150zM0 950h150v-150h-150v150z" />
    <glyph glyph-name="afii10026" unicode="&#x418;" 
d="M0 950h150v-950h-150v950zM600 950h150v-950h-150v950zM200 400h50v50h50v50h50v50h50v50h50v50h50v50h50v-200h-50v-50h-50v-50h-50v-50h-50v-50h-50v-50h-50v-50h-50v200z" />
    <glyph glyph-name="afii10027" unicode="&#x419;" 
d="M0 950h150v-950h-150v950zM600 950h150v-950h-150v950zM200 400h50v50h50v50h50v50h50v50h50v50h50v50h50v-200h-50v-50h-50v-50h-50v-50h-50v-50h-50v-50h-50v-50h-50v200zM150 1200h100v-50h50v-50h50v-100h-100v50h-50v50h-50v100zM400 1100h50v50h50v50h100v-100h-50
v-50h-50v-50h-100v100z" />
    <glyph glyph-name="afii10028" unicode="&#x41a;" 
d="M0 950h150v-950h-150v950zM200 550h50v50h50v50h50v50h50v50h50v50h50v50h50v-200h-50v-50h-50v-50h-50v-150h50v-50h50v-50h50v-200h-50v50h-50v50h-50v50h-50v50h-50v50h-50v50h-50v150zM600 200h50v-50h50v-50h50v-100h-150v200zM600 950h150v-100h-50v-50h-50v-50
h-50v200z" />
    <glyph glyph-name="afii10029" unicode="&#x41b;" 
d="M600 950h150v-950h-150v950zM0 750h50v50h50v50h50v-850h-150v750zM200 950h350v-150h-350v150z" />
    <glyph glyph-name="afii10030" unicode="&#x41c;" 
d="M0 950h150v-950h-150v950zM600 950h150v-950h-150v950zM200 700h50v-50h50v-50h50v-50h50v50h50v50h50v50h50v-200h-50v-50h-50v-50h-50v-50h-50v50h-50v50h-50v50h-50v200z" />
    <glyph glyph-name="afii10031" unicode="&#x41d;" 
d="M0 950h150v-950h-150v950zM600 950h150v-950h-150v950zM200 550h350v-150h-350v150z" />
    <glyph glyph-name="afii10032" unicode="&#x41e;" 
d="M0 900h50v50h100v-950h-100v50h-50v850zM600 950h100v-50h50v-850h-50v-50h-100v950zM200 150h350v-150h-350v150zM200 950h350v-150h-350v150z" />
    <glyph glyph-name="afii10033" unicode="&#x41f;" 
d="M0 950h150v-950h-150v950zM600 950h150v-950h-150v950zM200 950h350v-150h-350v150z" />
    <glyph glyph-name="afii10034" unicode="&#x420;" 
d="M0 950h150v-950h-150v950zM600 950h100v-50h50v-450h-50v-50h-100v550zM200 550h350v-150h-350v150zM200 950h350v-150h-350v150z" />
    <glyph glyph-name="afii10035" unicode="&#x421;" 
d="M0 900h50v50h100v-950h-100v50h-50v850zM200 950h350v-150h-350v150zM200 150h350v-150h-350v150zM600 150h150v-150h-150v150zM600 950h150v-150h-150v150z" />
    <glyph glyph-name="afii10036" unicode="&#x422;" 
d="M300 950h150v-950h-150v950zM0 950h250v-150h-250v150zM500 950h250v-150h-250v150z" />
    <glyph glyph-name="afii10037" unicode="&#x423;" 
d="M600 950h150v-900h-50v-50h-100v950zM0 950h150v-550h-100v50h-50v500zM200 550h350v-150h-350v150zM200 150h350v-150h-350v150zM0 150h150v-150h-150v150z" />
    <glyph glyph-name="afii10038" unicode="&#x424;" 
d="M0 900h50v50h100v-800h-100v50h-50v700zM600 950h100v-50h50v-700h-50v-50h-100v800zM200 300h350v-150h-100v-150h-150v150h-100v150zM300 750h150v-400h-150v400zM200 950h350v-150h-350v150z" />
    <glyph glyph-name="afii10039" unicode="&#x425;" 
d="M200 650h50v-50h50v-50h150v50h50v50h50v-150h-50v-50h50v-150h-50v50h-50v50h-150v-50h-50v-50h-50v150h50v50h-50v150zM0 300h50v50h50v50h50v-400h-150v300zM600 400h50v-50h50v-50h50v-300h-150v400zM0 950h150v-400h-50v50h-50v50h-50v300zM600 950h150v-300h-50
v-50h-50v-50h-50v400z" />
    <glyph glyph-name="afii10040" unicode="&#x426;" horiz-adv-x="1100" 
d="M0 950h150v-950h-150v950zM600 950h150v-950h-150v950zM200 150h350v-150h-350v150zM800 150h150v-300h-150v300z" />
    <glyph glyph-name="afii10041" unicode="&#x427;" 
d="M600 950h150v-950h-150v950zM0 950h150v-550h-100v50h-50v500zM200 550h350v-150h-350v150z" />
    <glyph glyph-name="afii10042" unicode="&#x428;" 
d="M0 950h150v-950h-150v950zM600 950h150v-950h-150v950zM300 950h150v-750h-150v750zM200 150h350v-150h-350v150z" />
    <glyph glyph-name="afii10043" unicode="&#x429;" horiz-adv-x="1100" 
d="M0 950h150v-950h-150v950zM600 950h150v-950h-150v950zM300 950h150v-750h-150v750zM200 150h350v-150h-350v150zM800 150h150v-300h-150v300z" />
    <glyph glyph-name="afii10044" unicode="&#x42a;" horiz-adv-x="1100" 
d="M200 950h150v-950h-150v950zM800 550h100v-50h50v-450h-50v-50h-100v550zM400 550h350v-150h-350v150zM400 150h350v-150h-350v150zM0 950h150v-150h-150v150z" />
    <glyph glyph-name="afii10045" unicode="&#x42b;" horiz-adv-x="1100" 
d="M0 950h150v-950h-150v950zM800 950h150v-950h-150v950zM600 550h100v-50h50v-450h-50v-50h-100v550zM200 550h350v-150h-350v150zM200 150h350v-150h-350v150z" />
    <glyph glyph-name="afii10046" unicode="&#x42c;" 
d="M0 950h150v-950h-150v950zM600 550h100v-50h50v-450h-50v-50h-100v550zM200 550h350v-150h-350v150zM200 150h350v-150h-350v150z" />
    <glyph glyph-name="afii10047" unicode="&#x42d;" 
d="M600 950h100v-50h50v-850h-50v-50h-100v950zM200 950h350v-150h-350v150zM200 150h350v-150h-350v150zM250 550h300v-150h-300v150zM0 150h150v-150h-150v150zM0 950h150v-150h-150v150z" />
    <glyph glyph-name="afii10048" unicode="&#x42e;" horiz-adv-x="1000" 
d="M200 550h100v350h50v50h100v-950h-100v50h-50v350h-100v150zM0 950h150v-950h-150v950zM700 950h100v-50h50v-850h-50v-50h-100v950zM500 950h150v-150h-150v150zM500 150h150v-150h-150v150z" />
    <glyph glyph-name="afii10049" unicode="&#x42f;" 
d="M600 950h150v-950h-150v950zM0 900h50v50h100v-550h-100v50h-50v450zM0 100h50v50h50v50h50v50h50v50h50v50h200v-50h-50v-50h-50v-50h-50v-50h-50v-50h-50v-50h-50v-50h-150v100zM200 550h350v-150h-350v150zM200 950h350v-150h-350v150z" />
    <glyph glyph-name="afii10065" unicode="&#x430;" 
d="M600 750h100v-50h50v-700h-150v750zM0 400h50v50h100v-450h-100v50h-50v350zM200 450h350v-150h-350v150zM200 150h350v-150h-350v150zM200 750h350v-150h-350v150zM0 750h150v-150h-150v150z" />
    <glyph glyph-name="afii10066" unicode="&#x431;" 
d="M0 750h150v-750h-150v750zM600 450h100v-50h50v-350h-50v-50h-100v450zM200 450h350v-150h-350v150zM200 150h350v-150h-350v150zM200 750h350v-150h-350v150zM600 750h150v-150h-150v150z" />
    <glyph glyph-name="afii10067" unicode="&#x432;" 
d="M0 750h150v-750h-150v750zM200 450h350v-150h-350v150zM200 150h350v-150h-350v150zM200 750h350v-150h-350v150zM600 350h100v-50h50v-250h-50v-50h-100v350zM600 750h100v-50h50v-250h-50v-50h-100v350z" />
    <glyph glyph-name="afii10068" unicode="&#x433;" 
d="M0 750h150v-750h-150v750zM200 750h350v-150h-350v150zM600 750h150v-150h-150v150z" />
    <glyph glyph-name="afii10069" unicode="&#x434;" horiz-adv-x="1100" 
d="M200 700h50v50h100v-750h-150v700zM600 750h100v-50h50v-700h-150v750zM0 100h50v50h100v-300h-150v250zM800 150h100v-50h50v-250h-150v300zM400 750h150v-150h-150v150zM400 150h150v-150h-150v150z" />
    <glyph glyph-name="afii10070" unicode="&#x435;" 
d="M0 700h50v50h100v-750h-100v50h-50v650zM600 750h100v-50h50v-350h-50v-50h-100v450zM200 450h350v-150h-350v150zM200 150h350v-150h-350v150zM200 750h350v-150h-350v150zM600 150h150v-150h-150v150z" />
    <glyph glyph-name="afii10072" unicode="&#x436;" 
d="M200 450h350v-150h-350v150zM0 750h150v-350h-100v50h-50v300zM600 750h150v-300h-50v-50h-100v350zM0 300h50v50h100v-350h-150v300zM600 350h100v-50h50v-300h-150v350zM300 750h150v-250h-150v250zM300 250h150v-250h-150v250z" />
    <glyph glyph-name="afii10073" unicode="&#x437;" 
d="M200 750h350v-150h-350v150zM200 450h350v-150h-350v150zM200 150h350v-150h-350v150zM600 350h100v-50h50v-250h-50v-50h-100v350zM600 750h100v-50h50v-250h-50v-50h-100v350zM0 150h150v-150h-150v150zM0 750h150v-150h-150v150z" />
    <glyph glyph-name="afii10074" unicode="&#x438;" 
d="M0 750h150v-750h-150v750zM600 750h150v-750h-150v750zM200 350h50v50h50v50h50v50h50v50h50v50h50v50h50v-200h-50v-50h-50v-50h-50v-50h-50v-50h-50v-50h-50v-50h-50v200z" />
    <glyph glyph-name="afii10075" unicode="&#x439;" 
d="M0 750h150v-750h-150v750zM600 750h150v-750h-150v750zM200 350h50v50h50v50h50v50h50v50h50v50h50v50h50v-200h-50v-50h-50v-50h-50v-50h-50v-50h-50v-50h-50v-50h-50v200zM150 1000h100v-50h50v-50h50v-100h-100v50h-50v50h-50v100zM400 900h50v50h50v50h100v-100h-50
v-50h-50v-50h-100v100z" />
    <glyph glyph-name="afii10076" unicode="&#x43a;" 
d="M0 750h150v-750h-150v750zM200 450h150v50h50v50h50v50h50v50h50v-200h-50v-50h-50v-50h50v-50h50v-200h-50v50h-50v50h-50v50h-50v50h-150v150zM600 200h50v-50h50v-50h50v-100h-150v200zM600 750h150v-100h-50v-50h-50v-50h-50v200z" />
    <glyph glyph-name="afii10077" unicode="&#x43b;" 
d="M600 750h150v-750h-150v750zM0 550h50v50h50v50h50v-650h-150v550zM200 750h350v-150h-350v150z" />
    <glyph glyph-name="afii10078" unicode="&#x43c;" 
d="M0 750h150v-750h-150v750zM600 750h150v-750h-150v750zM200 600h50v-50h50v-50h50v-50h50v50h50v50h50v50h50v-200h-50v-50h-50v-50h-50v-50h-50v50h-50v50h-50v50h-50v200z" />
    <glyph glyph-name="afii10079" unicode="&#x43d;" 
d="M0 750h150v-750h-150v750zM600 750h150v-750h-150v750zM200 450h350v-150h-350v150z" />
    <glyph glyph-name="afii10080" unicode="&#x43e;" 
d="M0 700h50v50h100v-750h-100v50h-50v650zM600 750h100v-50h50v-650h-50v-50h-100v750zM200 750h350v-150h-350v150zM200 150h350v-150h-350v150z" />
    <glyph glyph-name="afii10081" unicode="&#x43f;" 
d="M0 750h150v-750h-150v750zM600 750h150v-750h-150v750zM200 750h350v-150h-350v150z" />
    <glyph glyph-name="afii10082" unicode="&#x440;" 
d="M0 750h150v-1050h-150v1050zM600 750h100v-50h50v-650h-50v-50h-100v750zM200 750h350v-150h-350v150zM200 150h350v-150h-350v150z" />
    <glyph glyph-name="afii10083" unicode="&#x441;" 
d="M0 700h50v50h100v-750h-100v50h-50v650zM200 150h350v-150h-350v150zM200 750h350v-150h-350v150zM600 150h150v-150h-150v150zM600 750h150v-150h-150v150z" />
    <glyph glyph-name="afii10084" unicode="&#x442;" 
d="M300 750h150v-750h-150v750zM0 750h250v-150h-250v150zM500 750h250v-150h-250v150z" />
    <glyph glyph-name="afii10085" unicode="&#x443;" 
d="M600 750h150v-1000h-50v-50h-100v1050zM0 750h150v-750h-100v50h-50v700zM200 -150h350v-150h-350v150zM200 150h350v-150h-350v150zM0 -150h150v-150h-150v150z" />
    <glyph glyph-name="afii10086" unicode="&#x444;" 
d="M0 700h50v50h100v-750h-100v50h-50v650zM600 750h100v-50h50v-650h-50v-50h-100v750zM200 150h350v-150h-100v-150h-150v150h-100v150zM200 750h100v150h150v-150h100v-150h-350v150zM300 550h150v-350h-150v350z" />
    <glyph glyph-name="afii10087" unicode="&#x445;" 
d="M200 650h50v-50h50v-50h50v-50h50v50h50v50h50v50h50v-200h-50v-50h-50v-50h50v-50h50v-200h-50v50h-50v50h-50v50h-50v-50h-50v-50h-50v-50h-50v200h50v50h50v50h-50v50h-50v200zM0 750h150v-200h-50v50h-50v50h-50v100zM0 100h50v50h50v50h50v-200h-150v100zM600 200
h50v-50h50v-50h50v-100h-150v200zM600 750h150v-100h-50v-50h-50v-50h-50v200z" />
    <glyph glyph-name="afii10088" unicode="&#x446;" horiz-adv-x="1100" 
d="M0 750h150v-750h-150v750zM600 750h150v-750h-150v750zM200 150h350v-150h-350v150zM800 150h150v-300h-150v300z" />
    <glyph glyph-name="afii10089" unicode="&#x447;" 
d="M600 750h150v-750h-150v750zM0 750h150v-450h-100v50h-50v400zM200 450h350v-150h-350v150z" />
    <glyph glyph-name="afii10090" unicode="&#x448;" 
d="M0 750h150v-750h-150v750zM600 750h150v-750h-150v750zM300 750h150v-550h-150v550zM200 150h350v-150h-350v150z" />
    <glyph glyph-name="afii10091" unicode="&#x449;" horiz-adv-x="1100" 
d="M0 750h150v-750h-150v750zM600 750h150v-750h-150v750zM300 750h150v-550h-150v550zM200 150h350v-150h-350v150zM800 150h150v-300h-150v300z" />
    <glyph glyph-name="afii10092" unicode="&#x44a;" horiz-adv-x="1100" 
d="M200 750h150v-750h-150v750zM800 450h100v-50h50v-350h-50v-50h-100v450zM400 450h350v-150h-350v150zM400 150h350v-150h-350v150zM0 750h150v-150h-150v150z" />
    <glyph glyph-name="afii10093" unicode="&#x44b;" horiz-adv-x="1100" 
d="M0 750h150v-750h-150v750zM800 750h150v-750h-150v750zM600 450h100v-50h50v-350h-50v-50h-100v450zM200 150h350v-150h-350v150zM200 450h350v-150h-350v150z" />
    <glyph glyph-name="afii10094" unicode="&#x44c;" 
d="M0 750h150v-750h-150v750zM600 450h100v-50h50v-350h-50v-50h-100v450zM200 450h350v-150h-350v150zM200 150h350v-150h-350v150z" />
    <glyph glyph-name="afii10095" unicode="&#x44d;" 
d="M600 750h100v-50h50v-650h-50v-50h-100v750zM200 750h350v-150h-350v150zM200 150h350v-150h-350v150zM250 450h300v-150h-300v150zM0 150h150v-150h-150v150zM0 750h150v-150h-150v150z" />
    <glyph glyph-name="afii10096" unicode="&#x44e;" horiz-adv-x="1000" 
d="M200 450h100v250h50v50h100v-750h-100v50h-50v250h-100v150zM0 750h150v-750h-150v750zM700 750h100v-50h50v-650h-50v-50h-100v750zM500 750h150v-150h-150v150zM500 150h150v-150h-150v150z" />
    <glyph glyph-name="afii10097" unicode="&#x44f;" 
d="M600 750h150v-750h-150v750zM0 700h50v50h100v-450h-100v50h-50v350zM200 450h350v-150h-350v150zM200 750h350v-150h-350v150zM0 100h50v50h50v50h50v50h150v-100h-50v-50h-50v-50h-50v-50h-150v100z" />
    <glyph glyph-name="afii10071" unicode="&#x451;" 
d="M0 700h50v50h100v-750h-100v50h-50v650zM600 750h100v-50h50v-350h-50v-50h-100v450zM200 150h350v-150h-350v150zM200 450h350v-150h-350v150zM200 750h350v-150h-350v150zM600 150h150v-150h-150v150zM150 1000h150v-150h-150v150zM450 1000h150v-150h-150v150z" />
    <glyph glyph-name="afii10099" unicode="&#x452;" horiz-adv-x="1100" 
d="M500 -150h300v900h100v-50h50v-950h-50v-50h-400v150zM200 950h150v-950h-150v950zM400 750h350v-150h-350v150zM0 750h150v-150h-150v150z" />
    <glyph glyph-name="afii10100" unicode="&#x453;" 
d="M0 750h150v-750h-150v750zM200 750h350v-150h-350v150zM300 850h50v50h50v50h50v50h150v-50h-50v-50h-50v-50h-50v-50h-150v50zM600 750h150v-150h-150v150z" />
    <glyph glyph-name="afii10101" unicode="&#x454;" 
d="M0 700h50v50h100v-750h-100v50h-50v650zM200 750h350v-150h-350v150zM200 150h350v-150h-350v150zM200 450h300v-150h-300v150zM600 750h150v-150h-150v150zM600 150h150v-150h-150v150z" />
    <glyph glyph-name="afii10102" unicode="&#x455;" 
d="M0 700h50v50h100v-450h-100v50h-50v350zM600 450h100v-50h50v-350h-50v-50h-100v450zM200 750h350v-150h-350v150zM200 450h350v-150h-350v150zM200 150h350v-150h-350v150zM0 150h150v-150h-150v150zM600 750h150v-150h-150v150z" />
    <glyph glyph-name="afii10103" unicode="&#x456;" horiz-adv-x="700" 
d="M200 750h150v-750h-150v750zM0 150h150v-150h-150v150zM400 750h150v-150h-150v150zM400 150h150v-150h-150v150zM200 1000h150v-150h-150v150zM0 750h150v-150h-150v150z" />
    <glyph glyph-name="afii10104" unicode="&#x457;" horiz-adv-x="700" 
d="M200 750h150v-750h-150v750zM0 750h150v-150h-150v150zM0 150h150v-150h-150v150zM400 150h150v-150h-150v150zM50 1000h150v-150h-150v150zM350 1000h150v-150h-150v150zM400 750h150v-150h-150v150z" />
    <glyph glyph-name="afii10105" unicode="&#x458;" horiz-adv-x="700" 
d="M400 750h150v-1000h-50v-50h-100v1050zM0 750h350v-150h-350v150zM0 -150h350v-150h-350v150zM200 1000h150v-150h-150v150z" />
    <glyph glyph-name="afii10106" unicode="&#x459;" horiz-adv-x="1300" 
d="M500 750h150v-750h-150v750zM0 550h50v50h50v50h50v-650h-150v550zM1000 450h100v-50h50v-350h-50v-50h-100v450zM200 750h250v-150h-250v150zM700 150h250v-150h-250v150zM700 450h250v-150h-250v150z" />
    <glyph glyph-name="afii10107" unicode="&#x45a;" horiz-adv-x="1300" 
d="M0 750h150v-750h-150v750zM500 750h150v-750h-150v750zM1000 450h100v-50h50v-350h-50v-50h-100v450zM700 150h250v-150h-250v150zM200 450h250v-150h-250v150zM700 450h250v-150h-250v150z" />
    <glyph glyph-name="afii10108" unicode="&#x45b;" horiz-adv-x="1100" 
d="M200 950h150v-950h-150v950zM800 750h100v-50h50v-700h-150v750zM400 750h350v-150h-350v150zM0 750h150v-150h-150v150z" />
    <glyph glyph-name="afii10109" unicode="&#x45c;" 
d="M0 750h150v-750h-150v750zM200 450h150v50h50v50h50v50h50v50h50v-200h-50v-50h-50v-50h50v-50h50v-200h-50v50h-50v50h-50v50h-50v50h-150v150zM300 850h50v50h50v50h50v50h150v-50h-50v-50h-50v-50h-50v-50h-150v50zM600 750h150v-100h-50v-50h-50v-50h-50v200z
M600 200h50v-50h50v-50h50v-100h-150v200z" />
    <glyph glyph-name="afii10110" unicode="&#x45e;" 
d="M600 750h150v-1000h-50v-50h-100v1050zM0 750h150v-750h-100v50h-50v700zM200 -150h350v-150h-350v150zM200 150h350v-150h-350v150zM150 1000h100v-50h50v-50h50v-100h-100v50h-50v50h-50v100zM400 900h50v50h50v50h100v-100h-50v-50h-50v-50h-100v100zM0 -150h150v-150
h-150v150z" />
    <glyph glyph-name="afii10193" unicode="&#x45f;" 
d="M0 750h150v-750h-150v750zM600 750h150v-750h-150v750zM200 150h350v-150h-350v150zM300 -50h150v-150h-150v150z" />
    <glyph glyph-name="afii10050" unicode="&#x490;" 
d="M0 950h150v-950h-150v950zM600 1150h150v-350h-150v350zM200 950h350v-150h-350v150z" />
    <glyph glyph-name="afii10098" unicode="&#x491;" 
d="M0 750h150v-750h-150v750zM200 750h350v-150h-350v150zM600 900h150v-300h-150v300z" />
    <glyph glyph-name="endash" unicode="&#x2013;" horiz-adv-x="800" 
d="M150 550h350v-150h-350v150zM0 550h100v-150h-100v150zM550 550h100v-150h-100v150z" />
    <glyph glyph-name="emdash" unicode="&#x2014;" horiz-adv-x="1000" 
d="M250 550h350v-150h-350v150zM0 550h200v-150h-200v150zM650 550h200v-150h-200v150z" />
    <glyph glyph-name="quoteleft" unicode="&#x2018;" horiz-adv-x="300" 
d="M0 1050h100v-100h50v-150h-150v250z" />
    <glyph glyph-name="quoteright" unicode="&#x2019;" horiz-adv-x="300" 
d="M0 950h150v-250h-100v100h-50v150z" />
    <glyph glyph-name="quotesinglbase" unicode="&#x201a;" horiz-adv-x="350" 
d="M0 150h100v-50h50v-50h50v-150h-100v50h-50v50h-50v150z" />
    <glyph glyph-name="quotedblleft" unicode="&#x201c;" horiz-adv-x="550" 
d="M0 1050h100v-100h50v-150h-150v250zM250 1050h100v-100h50v-150h-150v250z" />
    <glyph glyph-name="quotedblright" unicode="&#x201d;" horiz-adv-x="550" 
d="M0 950h150v-250h-100v100h-50v150zM250 950h150v-250h-100v100h-50v150z" />
    <glyph glyph-name="quotedblbase" unicode="&#x201e;" horiz-adv-x="550" 
d="M0 150h150v-250h-100v100h-50v150zM250 150h150v-250h-100v100h-50v150z" />
    <glyph glyph-name="dagger" unicode="&#x2020;" horiz-adv-x="700" 
d="M200 950h150v-950h-150v950zM400 800h150v-150h-150v150zM0 800h150v-150h-150v150z" />
    <glyph glyph-name="daggerdbl" unicode="&#x2021;" horiz-adv-x="700" 
d="M200 950h150v-950h-150v950zM400 800h150v-150h-150v150zM0 300h150v-150h-150v150zM400 300h150v-150h-150v150zM0 800h150v-150h-150v150z" />
    <glyph glyph-name="bullet" unicode="&#x2022;" horiz-adv-x="400" 
d="M0 550h50v50h150v-50h50v-150h-50v-50h-150v50h-50v150z" />
    <glyph glyph-name="ellipsis" unicode="&#x2026;" horiz-adv-x="800" 
d="M0 150h150v-150h-150v150zM500 150h150v-150h-150v150zM250 150h150v-150h-150v150z" />
    <glyph glyph-name="perthousand" unicode="&#x2030;" horiz-adv-x="1300" 
d="M200 400h50v50h50v50h50v50h50v50h50v50h50v50h50v-200h-50v-50h-50v-50h-50v-50h-50v-50h-50v-50h-50v-50h-50v200zM0 850h50v50h100v-100h-50v-150h50v-100h-100v50h-50v250zM400 300h50v50h100v-100h-50v-150h50v-100h-100v50h-50v250zM600 350h100v-50h50v-250h-50
v-50h-100v100h50v150h-50v100zM800 300h50v50h100v-100h-50v-150h50v-100h-100v50h-50v250zM200 900h100v-50h50v-250h-50v-50h-100v100h50v150h-50v100zM1000 350h100v-50h50v-250h-50v-50h-100v100h50v150h-50v100zM600 900h150v-200h-50v-50h-50v-50h-50v300zM0 200h50
v50h50v50h50v-300h-150v200z" />
    <glyph glyph-name="guilsinglleft" unicode="&#x2039;" horiz-adv-x="600" 
d="M200 750h50v50h50v50h150v-100h-50v-50h-50v-50h-50v-50h-50v-50h-50v200zM200 400h50v-50h50v-50h50v-50h50v-50h50v-100h-150v50h-50v50h-50v200zM0 550h50v50h50v50h50v-350h-50v50h-50v50h-50v150z" />
    <glyph glyph-name="guilsinglright" unicode="&#x203a;" horiz-adv-x="600" 
d="M0 850h150v-50h50v-50h50v-200h-50v50h-50v50h-50v50h-50v50h-50v100zM0 200h50v50h50v50h50v50h50v50h50v-200h-50v-50h-50v-50h-150v100zM300 650h50v-50h50v-50h50v-150h-50v-50h-50v-50h-50v350z" />
    <glyph glyph-name="Euro" unicode="&#x20ac;" horiz-adv-x="1050" 
d="M150 900h50v50h100v-950h-100v50h-50v850zM350 150h350v-150h-350v150zM350 950h350v-150h-350v150zM350 700h350v-150h-350v150zM350 400h350v-150h-350v150zM750 150h150v-150h-150v150zM750 950h150v-150h-150v150zM0 700h100v-150h-100v150zM0 400h100v-150h-100v150
z" />
    <glyph glyph-name="afii61352" unicode="&#x2116;" horiz-adv-x="1100" 
d="M0 950h150v-950h-150v950zM600 950h150v-950h-150v950zM200 700h50v-50h50v-50h50v-50h50v-50h50v-50h50v-50h50v-200h-50v50h-50v50h-50v50h-50v50h-50v50h-50v50h-50v200zM800 950h150v-150h-150v150zM800 750h150v-50h-150v50z" />
    <glyph glyph-name="trademark" unicode="&#x2122;" horiz-adv-x="1500" 
d="M250 750h150v-750h-150v750zM700 750h150v-750h-150v750zM1200 750h150v-750h-150v750zM900 550h50v-50h50v-50h50v50h50v50h50v-200h-50v-50h-50v-50h-50v50h-50v50h-50v200zM0 750h200v-150h-200v150zM450 750h200v-150h-200v150z" />
  </font>
</defs>
</svg>
